<?xml version="1.0" encoding="UTF-8"?> <!-- Generator: Adobe Illustrator 24.2.0, SVG Export Plug-In . SVG Version: 6.00 Build 0) --> <svg xmlns="http://www.w3.org/2000/svg" xmlns:xlink="http://www.w3.org/1999/xlink" version="1.1" id="Layer_1" x="0px" y="0px" viewBox="0 0 344 344" style="enable-background:new 0 0 344 344;" xml:space="preserve"> <style type="text/css"> .st0{fill:#194672;} .st1{fill:#24548A;} .st2{fill:#F3F4F4;} .st3{fill:#C7C7C7;} .st4{fill:#6687AC;} .st5{fill:#3F5E7E;} .st6{fill:#19406A;} .st7{fill:#61C1ED;} .st8{fill:#5EADDF;} .st9{fill:#FFFFFF;} </style> <path class="st0" d="M172.3,52.5c0.2,15.1,0.3,30.3-0.1,45.4c-5.5-2.2-5-7.6-6.8-12.4c-0.6-2.1-2-3.3-4.3-2.9 c-8.5,1.3-16.8,2.4-24.9,4.9c0,2.1,0,4.2,0,6.3c-2.4,0.4-4.7,0.8-7.1,1.3c0,2.6-0.2,5.2,0.2,7.8c0.8,1.8,2,3.3,2.8,5.1 c0.5,5.8-0.9,13.2,1.4,18.7c0.6,1.2,1.5,1.8,2.8,1.9c6.2,0.9,12.8,0.1,19.1-0.2c-1.5,2.2-3.9,4.9-4.2,7.6c0.1,3.5,3.7,6.7,4.2,10.1 c-0.2,3.4-2,7.4-5.4,8.5c-2.1,0.8-4,1.9-6.2,0.7c-3.6-1.9-6.7-4.6-10.1-6.7c0.7,7.4,6.2,12.8,11.8,17.1c2.6,2.4,6.4,1.3,9.7,1.5 c6.9-0.3,13.4-0.6,17.9-6.5l0.1,0.7c-1.1,13.3,0,26.7-0.7,40c-22.3-11-40.4-27.9-54.8-47.9c-0.7-0.8-1.3-1.6-2-2.4 c-2.7-2.7-1.6-5.6-1.8-9.1c0.1-25.3-0.2-50.6,0.2-75.9C133.4,61.6,152.9,57,172.3,52.5z"></path> <path class="st1" d="M172.3,52.5c4.7,0.6,9.3,2.2,13.9,3.2c15.3,3.8,30.5,7.4,45.8,11.2c0,24,0,48.1,0,72.1c0,3.3,0.1,6.6-0.2,9.8 l-1,1.3c-2.6,3-4.8,6.4-7.3,9.4c-10.1,12.5-22.1,23.5-35.1,32.9c-4.9,3.5-10,7-15.5,9.3l-0.6-0.3c0.7-13.3-0.4-26.7,0.7-40 c5.8,6.7,17,5.9,25,5.6c6.5-3.7,13.4-10.6,14.1-18.4c-3.8,2.2-7.3,5.5-11.3,7.2c-4.8,0.1-9.3-2.9-10.2-7.8c-1.5-4.5,4.9-8.4,3.7-13 c-0.8-2.5-2.6-4.6-4.1-6.7c7.1,0.5,14,1.1,21.1,0c3.4-5.9,2.1-13.9,2.2-20.4c0.8-1.7,1.9-3.2,2.7-4.9c0.4-2.7,0.2-5.4,0.2-8.1 c-2.3-0.4-4.6-0.8-7-1.2c0-2-0.1-4.1-0.1-6.1c-7.1-2.6-14.6-4.2-21.9-6.1c-2.4-0.4-4.6-1.7-6.4,0.7c-2.9,4.8-1.4,12.1-6.9,15.2 l-2.1,0.4C172.6,82.7,172.5,67.6,172.3,52.5z"></path> <path class="st2" d="M187.5,81.5c7.3,1.9,14.8,3.5,21.9,6.1c0,2.1,0.1,4.1,0.1,6.1c2.3,0.4,4.6,0.8,7,1.2c0,2.7,0.2,5.4-0.2,8.1 c-0.8,1.7-1.9,3.2-2.7,4.9c-0.2,6.4,1.1,14.5-2.2,20.4c-7.1,1.1-14,0.5-21.1,0c1.5,2.1,3.3,4.2,4.1,6.7c1.1,4.6-5.2,8.4-3.7,13 c0.9,4.9,5.4,7.9,10.2,7.8c4.1-1.7,7.5-4.9,11.3-7.2c-0.8,7.8-7.6,14.7-14.1,18.4c-8,0.3-19.2,1-25-5.6l-0.1-0.7 c-0.4-3.9-1.3-9,0.5-12.6c3.7-1.1,5.8-4.2,9.3-5.5c3.1-1.3,6.6-2.4,7.9-5.9c0.6-1.9-0.8-2.4-2-3.5c-1.7-1.3-3.6-2-5.6-2.8 c-0.2-10.5-5.2-18.2-10.2-27c-0.3-1.6-0.4-3.1-0.6-4.7c0.7-0.4,1.3-0.9,2-1.3c5.5-3.1,4-10.5,6.9-15.2 C182.9,79.8,185.2,81.2,187.5,81.5z"></path> <path class="st3" d="M161.1,82.6c2.3-0.4,3.7,0.8,4.3,2.9c1.8,4.8,1.3,10.1,6.8,12.4l2.1-0.4c-0.6,0.4-1.3,0.9-2,1.3 c0.2,1.6,0.3,3.1,0.6,4.7c-0.5,0.9-1.1,1.8-1.6,2.7c-4.4,7.8-8.6,15.1-8.7,24.3c-2.9,1.1-5.5,2.3-7.6,4.7c-0.7,3.7,3.9,6.1,6.7,7.1 c4.1,1.3,6.3,4.9,10.4,6.1l1.2-0.1c-1.9,3.6-0.9,8.7-0.5,12.6c-4.6,5.9-11.1,6.2-17.9,6.5c-3.3-0.2-7.1,0.9-9.7-1.5 c-5.6-4.3-11.1-9.7-11.8-17.1c3.4,2.1,6.6,4.8,10.1,6.7c2.2,1.2,4.1,0.1,6.2-0.7c3.4-1.2,5.2-5.2,5.4-8.5c-0.5-3.4-4.2-6.6-4.2-10.1 c0.3-2.8,2.7-5.4,4.2-7.6c-6.3,0.3-12.9,1-19.1,0.2c-1.3-0.2-2.3-0.7-2.8-1.9c-2.2-5.5-0.9-12.9-1.4-18.7c-0.8-1.8-2-3.3-2.8-5.1 c-0.4-2.6-0.2-5.2-0.2-7.8c2.4-0.4,4.7-0.9,7.1-1.3c0-2.1,0-4.2,0-6.3C144.3,84.9,152.6,83.9,161.1,82.6z"></path> <path class="st4" d="M214.5,98.5c1.6,1.2-0.6,2.5-1.3,3.5c-0.8-0.4-1.5-0.8-2.2-1.2c0.1-0.9,0.1-1.8,0.2-2.7 C212.6,97.8,213.4,97.1,214.5,98.5z"></path> <path class="st5" d="M134.9,98.1c0.1,1,0.1,1.9,0.1,2.9c-2,2-2.6,0.8-3.9-0.9C132.2,97.6,132.3,98,134.9,98.1z"></path> <path class="st6" d="M142.9,99.2c7.3,0,14.7-0.1,22,0c2.5-0.3,2.8,3,2.5,4.7c-1.1,7-6.2,13.7-9.9,19.7c-5.2,0-10.4,0.2-15.5,0 c-3.5-0.2-6.3-3.1-6.2-6.6c-0.1-4-0.2-8.1,0.1-12.1C136.2,101.4,139.4,99.1,142.9,99.2z"></path> <path class="st1" d="M179.4,99.4c7.9-0.4,15.8-0.1,23.7-0.1c3.2-0.2,6.5,2.5,6.7,5.7c0.2,4,0.1,8,0.1,12.1c0.2,3.3-2.5,6.3-5.7,6.6 c-2.6,0.2-5.3,0.1-8,0.1c-2.6,0-5.2,0.1-7.7-0.2c-1.7-1.7-2.8-3.9-4.1-5.9c-2.3-3.9-5.1-8.3-5.9-12.8 C178.2,103,177.8,100.9,179.4,99.4z"></path> <path class="st1" d="M172.9,103.5c5,8.8,10.1,16.5,10.2,27c2,0.8,3.9,1.5,5.6,2.8c1.2,1.1,2.6,1.7,2,3.5c-1.3,3.5-4.8,4.6-7.9,5.9 c-3.5,1.3-5.6,4.4-9.3,5.5l-1.2,0.1c0.4-8.7,0.1-17.5,0.2-26.3c0-5.4,0.6-10.5-1.1-15.8C171.8,105.3,172.4,104.4,172.9,103.5z"></path> <path class="st0" d="M171.3,106.2c1.7,5.3,1.1,10.4,1.1,15.8c-0.1,8.8,0.2,17.5-0.2,26.3c-4.1-1.2-6.3-4.8-10.4-6.1 c-2.9-1-7.5-3.4-6.7-7.1c2.1-2.4,4.7-3.5,7.6-4.7C162.8,121.2,166.9,113.9,171.3,106.2z"></path> <path class="st7" d="M230.9,150.1c-0.5,5.1-0.4,10.4-1.4,15.4c-1.1,4-4.7,7.5-7.1,10.8c-13.4,16.6-30,33-49.4,42.3 c0.1-5.6,0.1-11.3,0.1-16.9c5.5-2.3,10.6-5.9,15.5-9.3c13-9.4,25-20.4,35.1-32.9C226.1,156.5,228.2,153.1,230.9,150.1z"></path> <path class="st8" d="M115.5,151.1c0.7,0.8,1.3,1.6,2,2.4c14.4,20,32.6,36.9,54.8,47.9l0.6,0.3c0,5.6,0.1,11.3-0.1,16.9 c-20.5-12.6-38.8-27.9-53.3-47.3C115.1,166.1,116.2,157.7,115.5,151.1z"></path> <path class="st1" d="M13.4,241c1.1,0,2.3,0,3.4,0h0.6c2.8,8.8,6.7,17.2,9.6,26c3.1,6.9,5.1,14.1,7.5,21.3c2.2-6.4,3.8-12.9,6.7-19 c3.2-9.6,7.3-18.8,10.5-28.4c1.3,0.1,2.6,0.1,3.9,0.1c-0.6,1.6-1.1,3.3-1.8,4.9c-3.2,7.3-5.4,15-8.6,22.2c-2.7,8-6,15.7-8.9,23.6 c-1.3,0-2.5,0-3.8,0C26.4,274.8,19.8,257.9,13.4,241z"></path> <path class="st1" d="M63.7,241c6.1,0.1,12.2-0.2,18.3,0.1c5.4,0.4,10.3,3.5,12.3,8.6c3.4,6.7,0.6,15.8-5.7,19.7 c-5.8,3.4-14.4,1.9-21,2.2c-0.1,6.7,0.1,13.4-0.1,20.1c-1.2,0-2.5,0-3.7,0C63.6,274.9,63.7,257.9,63.7,241z"></path> <path class="st1" d="M104.7,241.1c1.4,0,2.8-0.1,4.1-0.1c9.4,15.3,19.6,30.2,28.9,45.6c-0.9-15.2-0.2-30.4-0.4-45.6 c1.3,0,2.6,0.1,3.9,0.1c0,16.9,0,33.8,0,50.6c-1.3,0-2.7,0-4,0c-6.6-10.3-13.3-20.8-19.9-31.1c-2.9-5-6.4-9.4-9-14.6 c0.7,15.2,0.2,30.5,0.3,45.7c-1.3,0-2.6,0-3.9-0.1C104.8,274.9,104.8,258,104.7,241.1z"></path> <path class="st1" d="M168.3,241.1c3.4-0.3,6.8-0.1,10.2-0.1c6.2,16.8,12.2,33.8,18.3,50.7c-3.5,0-7.1,0-10.6-0.1 c-1.2-3.8-2.5-7.6-3.7-11.4c-6,0-12,0-18,0c-1.1,3.9-2.7,7.6-4.1,11.5c-3.4,0-6.8,0-10.2,0c2.3-6.3,4.1-12.7,6.7-18.9 c1.9-4.6,3-9.4,5-13.9C164.4,253.2,165.9,247,168.3,241.1z"></path> <path class="st1" d="M202.2,241c7.3,0.1,14.6-0.2,21.9,0.1c5.7,0.3,10.7,3.2,13.7,8.1c2.2,4.6,2.4,10.7-0.2,15.2 c-2.1,3-5,5.4-8.5,6.7c3.9,6.9,7.9,13.7,11.8,20.7c-3.5-0.1-7.1,0.2-10.7-0.2c-1.2-1.4-2.1-3.3-3-4.9c-2.4-4.8-5.5-9.2-8-14 c-2.3,0-4.7,0-7,0c-0.1,6.3,0,12.6-0.1,19c-3.3,0.1-6.7,0.1-10,0.1C202.2,274.9,202.2,257.9,202.2,241z"></path> <path class="st1" d="M247.2,241c11.1,0,22.2,0,33.4,0c0,2.8,0,5.6,0,8.3c-7.8,0-15.6,0-23.5,0c0,4.1,0,8.1,0,12.2 c7.4,0,14.8,0,22.2,0c0,2.9,0,5.8,0,8.6c-7.4,0-14.8,0-22.1,0c0,4.4,0,8.8,0,13.2c8,0,16,0,24,0c0,2.8,0,5.7,0,8.5 c-11.2,0-22.5,0.1-33.8-0.1C247.1,274.8,247.2,257.9,247.2,241z"></path> <path class="st1" d="M302.3,241.1c3.4-0.3,6.8-0.1,10.2-0.1c0.6,1.9,1.2,3.8,2,5.7c2.9,6.9,4.8,14.2,7.8,21.1c2.6,8.1,5.8,16,8.6,24 c-3.5,0-7.1,0-10.6-0.1c-1.2-3.8-2.4-7.6-3.7-11.4c-6,0-11.9,0-17.9,0c-1.5,3.8-2.9,7.6-4.1,11.5c-3.5,0-7,0-10.5-0.1 c2.6-5.9,4.2-12.2,6.7-18.1c2.4-5.8,3.9-11.9,6.4-17.7C299,251,300.3,245.9,302.3,241.1z"></path> <path class="st9" d="M67.6,244.6c4.3-0.2,8.7-0.1,13,0c4.5,0,9.3,2.6,10.6,7.1c1.3,4.8,0.8,10.9-3.6,13.9c-5.8,4.4-13.3,2.5-20,2.9 C67.5,260.5,67.4,252.5,67.6,244.6z"></path> <path class="st9" d="M212.3,249.6c4.8,0.1,11.2-1.1,15.1,2.1c3.8,3.8,2,11.3-3.5,12.5c-3.9,0.5-7.9,0.1-11.8,0.2 C212.2,259.4,212,254.5,212.3,249.6z"></path> <path class="st9" d="M173.2,252.1c2.4,6.6,4.1,13.4,6.2,20.1c-4.1,0-8.2,0-12.3,0C169.8,265.6,171.4,258.9,173.2,252.1z"></path> <path class="st9" d="M307.2,252c2.4,6.6,4,13.5,6.2,20.1c-4.1,0-8.2,0-12.3,0C303.8,265.6,305.4,258.8,307.2,252z"></path> </svg> 