<?xml version="1.0" encoding="UTF-8"?> <svg xmlns="http://www.w3.org/2000/svg" id="Layer_1" data-name="Layer 1" viewBox="0 0 112 112"> <defs> <style>.cls-1{opacity:0;}.cls-2{fill:#fff;}.cls-3{fill:#56b366;}</style> </defs> <title>Proton V3</title> <g id="Ebene_2" data-name="Ebene 2"> <g id="Ebene_1-2" data-name="Ebene 1-2"> <g class="cls-1"> <rect class="cls-2" x="-12.49" y="31.72" width="145.98" height="43.64"></rect> </g> <path class="cls-3" d="M18.13,46.58a2,2,0,0,0-4,0v.06L5.26,49.49a2,2,0,1,0-1.63,3.16,2.17,2.17,0,0,0,.62-.1l5.8,7.31a2,2,0,1,0,3.18-.74L16.31,48.6A2,2,0,0,0,18.13,46.58Zm-6.26,12a2,2,0,0,0-.89.23L5.32,51.65a2,2,0,0,0,.28-.84l9-2.88a1.75,1.75,0,0,0,.32.29l-3,10.37Z"></path> <path class="cls-3" d="M24.06,47.08H28.9c2.47,0,4.18,1.4,4.18,3.72,0,2.47-1.79,3.8-4.29,3.8h-3v5.24h-1.7Zm1.71,6.08h2.94c1.74,0,2.63-.84,2.63-2.32a2.3,2.3,0,0,0-2.57-2.33h-3Z"></path> <path class="cls-3" d="M35,53.08V50.55h1.58c0,.26,0,1,0,1.89a3.27,3.27,0,0,1,3.12-2.11v1.6c-1.91,0-3.12,1.06-3.12,3.41v4.48H35Z"></path> <path class="cls-3" d="M49.23,55.16c0,2.69-1.54,4.89-4.38,4.89-2.68,0-4.27-2-4.27-4.85s1.58-4.87,4.38-4.87C47.52,50.33,49.23,52.25,49.23,55.16Zm-7,0c0,2.05,1,3.54,2.68,3.54s2.69-1.42,2.69-3.52-1-3.54-2.69-3.54-2.67,1.44-2.67,3.54Z"></path> <path class="cls-3" d="M50.14,50.53h1.61V47.8h1.59v2.73h2v1.3h-2v5.45c0,.89.23,1.38,1.07,1.38a4.45,4.45,0,0,0,.81-.08v1.21a4.16,4.16,0,0,1-1.4.16c-1.45,0-2.07-.75-2.07-2.29V51.85H50.14Z"></path> <path class="cls-3" d="M65,55.16c0,2.69-1.54,4.89-4.38,4.89-2.69,0-4.27-2-4.27-4.85s1.58-4.87,4.38-4.87C63.35,50.33,65,52.25,65,55.16Zm-7,0c0,2.05,1,3.54,2.68,3.54s2.69-1.42,2.69-3.52-.95-3.54-2.69-3.54S58,53.08,58,55.18Z"></path> <path class="cls-3" d="M67.13,52.9V50.55h1.56c0,.51.07,1,.07,1.52a2.92,2.92,0,0,1,2.91-1.74c1.79,0,3.12,1.07,3.12,3.54v6H73.17V54.07c0-1.42-.54-2.35-2-2.35-1.79,0-2.45,1.34-2.45,3.21v4.91H67.15Z"></path> <path class="cls-3" d="M80,59.84,75.38,47.08h1.79l2.24,6.36c.66,1.87,1.31,3.76,1.59,4.93h0c.28-1,1-3,1.67-4.87L85,47.08h1.73L82,59.84Z"></path> <path class="cls-3" d="M88.72,47.08h4.84c2.47,0,4.18,1.4,4.18,3.72,0,2.47-1.79,3.8-4.29,3.8h-3v5.24H88.72Zm1.71,6.08h2.94c1.74,0,2.63-.84,2.63-2.32a2.3,2.3,0,0,0-2.57-2.33h-3Z"></path> <path class="cls-3" d="M100.18,59.84V47.08h2.24c1.79,3,5.81,9.34,6.52,10.75h0c-.13-1.63-.11-3.64-.11-5.71v-5h1.6V59.84h-2.09c-1.68-2.77-5.83-9.59-6.62-11h0c.09,1.45.09,3.58.09,5.92v5.1Z"></path> </g> </g> </svg> 