<?xml version="1.0" encoding="UTF-8"?> <svg xmlns="http://www.w3.org/2000/svg" xmlns:xlink="http://www.w3.org/1999/xlink" id="Layer_1" data-name="Layer 1" viewBox="0 0 112 112"> <defs> <style>.cls-1{fill:none;}.cls-2{fill:#96ea00;}.cls-3{fill:#fff;}.cls-4{clip-path:url(#clip-path);}</style> <clipPath id="clip-path"> <path class="cls-1" d="M20.61,57.85a2.36,2.36,0,0,0-2.34-2.37h-.38l.05-.41a1.24,1.24,0,0,0,0-.27,2.75,2.75,0,0,0-4.18-2.35l-.23.14-.17-.2a4.8,4.8,0,0,0-8.64,2.09l0,.25H4.4a2.76,2.76,0,0,0,0,5.52H18.24a2.37,2.37,0,0,0,2.37-2.39Z"></path> </clipPath> </defs> <title>TorGuard V3 logo new</title> <path class="cls-2" d="M34.11,48.14H29V60.81H26.84V48.14H21.77V46.28H34.11Z"></path> <path class="cls-2" d="M31.93,55.31a5.67,5.67,0,0,1,.72-2.85,5,5,0,0,1,2-2,6.08,6.08,0,0,1,2.93-.69,5.61,5.61,0,0,1,4.1,1.53,5.39,5.39,0,0,1,1.57,4.06v.13a5.7,5.7,0,0,1-.69,2.83,4.85,4.85,0,0,1-2,2,6.11,6.11,0,0,1-3,.7,5.64,5.64,0,0,1-4.1-1.53,5.35,5.35,0,0,1-1.57-4Zm2.14.22a4.22,4.22,0,0,0,1,2.89,3.56,3.56,0,0,0,5,.09l.11-.11a4.59,4.59,0,0,0,.95-3.09,4.2,4.2,0,0,0-1-2.88,3.29,3.29,0,0,0-2.58-1.1A3.19,3.19,0,0,0,35,52.42,4.49,4.49,0,0,0,34.07,55.53Z"></path> <path class="cls-2" d="M51,51.67a7.41,7.41,0,0,0-1-.07,2.83,2.83,0,0,0-2.83,1.55v7.66H45V50H47l0,1.25a3.44,3.44,0,0,1,3-1.45A2.72,2.72,0,0,1,51,50Z"></path> <path d="M66.15,59a6,6,0,0,1-2.64,1.51,12.3,12.3,0,0,1-3.76.53,8.33,8.33,0,0,1-3.81-.82,5.9,5.9,0,0,1-2.53-2.39,7.53,7.53,0,0,1-.91-3.69v-1a8,8,0,0,1,.86-3.78,5.78,5.78,0,0,1,2.43-2.44,7.93,7.93,0,0,1,3.73-.84,7.74,7.74,0,0,1,4.65,1.23,5.05,5.05,0,0,1,2,3.6H62.8a2.81,2.81,0,0,0-1-1.83,3.61,3.61,0,0,0-2.17-.58A3.2,3.2,0,0,0,57,49.64,5.44,5.44,0,0,0,56,53.05V54a5.13,5.13,0,0,0,1,3.45A3.66,3.66,0,0,0,60,58.61a4.22,4.22,0,0,0,2.77-.72V55.38H59.58v-2.2h6.57Z"></path> <path d="M75.46,59.72A4.47,4.47,0,0,1,72.06,61a4.25,4.25,0,0,1-3-1,3.89,3.89,0,0,1-1.07-2.93V50h3.32v7c0,1.12.58,1.69,1.76,1.69a2.51,2.51,0,0,0,2.32-1V50h3.33v10.8H75.55Z"></path> <path d="M87.67,60.81a2.79,2.79,0,0,1-.33-1A4.33,4.33,0,0,1,84.21,61a4.83,4.83,0,0,1-3-.92A2.81,2.81,0,0,1,80,57.78a2.91,2.91,0,0,1,1.47-2.63,7.9,7.9,0,0,1,4.23-.93H87.2v-.63a1.56,1.56,0,0,0-.44-1.19A1.87,1.87,0,0,0,85.37,52a2.12,2.12,0,0,0-1.32.35,1.12,1.12,0,0,0-.48,1H80.25a2.69,2.69,0,0,1,.67-1.73,4.44,4.44,0,0,1,1.88-1.26,7.94,7.94,0,0,1,2.73-.45,6,6,0,0,1,3.65,1,3.33,3.33,0,0,1,1.35,2.82v4.69A4.44,4.44,0,0,0,91,60.65v.17Zm-2.74-2a3.13,3.13,0,0,0,1.35-.3,2,2,0,0,0,.92-.76V55.9H86q-2.49,0-2.64,1.5v.17a1.09,1.09,0,0,0,.44.88,1.89,1.89,0,0,0,1.17.36Z"></path> <path d="M99.35,52.72a9.39,9.39,0,0,0-1.19-.08,2.54,2.54,0,0,0-2.47,1.11v7.06H92.37V50h3.14l.09,1.29a3.17,3.17,0,0,1,2.77-1.49,4,4,0,0,1,1,.13Z"></path> <path d="M99.8,55.33a6,6,0,0,1,1.3-4,4.52,4.52,0,0,1,3.57-1.5,4.06,4.06,0,0,1,3,1.18V45.48H111V60.81h-3l-.16-1.14A4.15,4.15,0,0,1,104.65,61a4.45,4.45,0,0,1-3.52-1.5A6.11,6.11,0,0,1,99.8,55.33Zm3.32.22a3.8,3.8,0,0,0,.61,2.33,2.11,2.11,0,0,0,1.76.81,2.28,2.28,0,0,0,2.17-1.13V53.29a2.26,2.26,0,0,0-2.15-1.13C103.92,52.16,103.12,53.29,103.12,55.55Z"></path> <path class="cls-3" d="M4.41,60.74a3.26,3.26,0,0,1-.17-6.52H4.3v0a5.3,5.3,0,0,1,9.35-2.27l0,0,.05,0a3.24,3.24,0,0,1,4.36,1.42,3.09,3.09,0,0,1,.35,1.49V55h.07a2.88,2.88,0,0,1-.27,5.74Z"></path> <path d="M9.51,50a5.23,5.23,0,0,1,4.08,2l.08.09.1-.05a3.17,3.17,0,0,1,4.6,2.84v.24h.14a2.8,2.8,0,0,1-.27,5.59H4.41a3.19,3.19,0,0,1-.17-6.37h.11l0-.11A5.23,5.23,0,0,1,9.51,50m0-.15a5.41,5.41,0,0,0-5.28,4.33,3.33,3.33,0,0,0,.18,6.66H18.24a3,3,0,0,0,.3-5.89v-.1a3.34,3.34,0,0,0-3.34-3.33,3.21,3.21,0,0,0-1.49.36A5.38,5.38,0,0,0,9.51,49.82Z"></path> <path class="cls-1" d="M11.13,44.27a4.47,4.47,0,0,0-4.46,4.46v1.91a5.35,5.35,0,0,1,7,1.21,3.21,3.21,0,0,1,1.49-.36l.4,0V48.73A4.47,4.47,0,0,0,11.13,44.27Z"></path> <path d="M6.67,50.64V48.73a4.47,4.47,0,0,1,8.93-.22v3a3.29,3.29,0,0,1,2,1V48.73a6.42,6.42,0,0,0-12.83,0v4A5.4,5.4,0,0,1,6.67,50.64Zm-1.46-2.3,0,.23,0,.19a6,6,0,1,1,12,0l0-.19,0-.23A1.57,1.57,0,0,0,17,48a6.27,6.27,0,0,0-.68-1.84,6,6,0,0,0-.79-1.08l-.26-.26-.13-.13L15,44.61c-.1-.08-.19-.17-.29-.24l-.32-.23a6,6,0,0,0-1.5-.7c-.13,0-.29-.07-.42-.11l-.21,0-.21,0-.21,0-.11,0H11.6l-.47,0h-.45l-.44.06-.22,0-.21.05c-.14,0-.29.06-.42.11a5.8,5.8,0,0,0-1.49.7l-.33.25a3.36,3.36,0,0,0-.29.24l-.14.12L7,44.86l-.25.26A7,7,0,0,0,6,46.2,6.27,6.27,0,0,0,5.28,48a1.59,1.59,0,0,0-.06.3Z"></path> <path class="cls-3" d="M6.74,45.12,7,44.86l.13-.13.14-.12.3-.24.32-.23a6,6,0,0,1,1.49-.7c.14,0,.3-.07.42-.11l.22,0,.22,0a3.11,3.11,0,0,1,.44-.06h1l.11,0,.21,0,.21,0,.21,0a4.26,4.26,0,0,1,.42.11,6,6,0,0,1,1.5.7l.32.23a3.36,3.36,0,0,1,.29.24l.15.12.13.13.26.26A6.21,6.21,0,0,1,17,48c0,.11,0,.21,0,.31l0,.23,0,.19a6,6,0,1,0-12-.26v.26l0-.19,0-.23a1.67,1.67,0,0,1,0-.31A6.06,6.06,0,0,1,6,46.2,6.4,6.4,0,0,1,6.74,45.12Z"></path> <g class="cls-4"> <path d="M8.46,66.6a4.1,4.1,0,0,1-.31-.46l0,0a9,9,0,0,1-1.3-4.91c0-.42,0-.85.07-1.27a9,9,0,0,1,5.19-7.5.33.33,0,0,0-.24,0,9.05,9.05,0,0,0-5.58,8.8c0,6.85,5.54,8.53,5.59,8.55h.08a.31.31,0,0,0,.28-.21A8.44,8.44,0,0,1,8.46,66.6Z"></path> <path d="M10.48,68a5.09,5.09,0,0,1-.31-.45l0,0a8.88,8.88,0,0,1-1.3-4.9,10.86,10.86,0,0,1,.07-1.28,9,9,0,0,1,5.18-7.49.26.26,0,0,0-.24,0,9,9,0,0,0-5.59,8.79c0,6.86,5.54,8.53,5.6,8.55H14a.3.3,0,0,0,.27-.21A8.44,8.44,0,0,1,10.48,68Z"></path> <path d="M12.51,69.49c-.11-.15-.21-.3-.31-.46l0,0a8.88,8.88,0,0,1-1.3-4.9,10.81,10.81,0,0,1,.07-1.27,9,9,0,0,1,5.18-7.5.31.31,0,0,0-.25,0,9,9,0,0,0-5.58,8.79c0,6.86,5.54,8.54,5.6,8.55a.11.11,0,0,0,.08,0,.29.29,0,0,0,.27-.2A8.56,8.56,0,0,1,12.51,69.49Z"></path> <path class="cls-2" d="M8.13,66.6a4.1,4.1,0,0,1-.31-.46l0,0A8.92,8.92,0,0,1,6.5,61.2a10.81,10.81,0,0,1,.07-1.27,9.19,9.19,0,0,1,5.54-7.52.29.29,0,0,0-.24,0A9.17,9.17,0,0,0,5.92,61.2c0,6.87,5.54,8.53,5.6,8.55a.11.11,0,0,0,.08,0,.29.29,0,0,0,.27-.21A8.44,8.44,0,0,1,8.13,66.6Z"></path> <path class="cls-2" d="M10.15,68a5.09,5.09,0,0,1-.31-.45l0,0a8.9,8.9,0,0,1-1.3-4.9c0-.43,0-.86.07-1.28a9.18,9.18,0,0,1,5.55-7.52.26.26,0,0,0-.24,0,9.19,9.19,0,0,0-6,8.82c0,6.87,5.54,8.53,5.6,8.55h.08a.29.29,0,0,0,.27-.21A8.44,8.44,0,0,1,10.15,68Z"></path> <path class="cls-2" d="M12.17,69.49c-.1-.15-.21-.3-.31-.46l0,0a8.94,8.94,0,0,1-1.3-4.91,10.81,10.81,0,0,1,.07-1.27,9.19,9.19,0,0,1,5.55-7.51.29.29,0,0,0-.24,0A9.17,9.17,0,0,0,10,64.09c0,6.87,5.54,8.53,5.59,8.55a.11.11,0,0,0,.08,0,.29.29,0,0,0,.28-.21A8.41,8.41,0,0,1,12.17,69.49Z"></path> </g> </svg> 