<svg id="Layer_1" data-name="Layer 1" xmlns="http://www.w3.org/2000/svg" viewBox="0 0 100 100"><defs><style>.cls-1{fill:#db0f16;}.cls-2{fill:#fff;}.cls-3{fill:#1d1d1b;}</style></defs><title>171012_Avira</title><g id="Layer_2" data-name="Layer 2"><g id="Layer_1-2" data-name="Layer 1-2"><path class="cls-1" d="M66.93,50.62a.81.81,0,0,1-.81.81h-31a.81.81,0,0,1-.81-.81v-31a.81.81,0,0,1,.81-.81h31a.81.81,0,0,1,.81.81Z"/><path class="cls-2" d="M60.17,37.47l-.05-.06-1.8,1.72a1.26,1.26,0,0,1-1.82,1.73l-.16-.17L51.5,35.58l6.6-6.26A10.6,10.6,0,0,0,42.74,43.9l6.94-6.58,5.1,5.37a3.78,3.78,0,0,0,2.71,1,3.66,3.66,0,0,0,2.41-1,3.79,3.79,0,0,0,1.22-2.75A3.66,3.66,0,0,0,60.17,37.47ZM54,29.93,43.58,39.8C40.07,33.61,47.39,26.2,54,29.93Z"/><path class="cls-3" d="M34.51,80.84l-2.41-7.27H24.31l-2.44,7.27H20L27,60.3h2.57l6.94,20.54ZM29.2,65a28.25,28.25,0,0,1-.89-3.18h-.19c-.28,1.13-.55,2.13-.89,3.18l-2.37,6.9h6.65Z"/><path class="cls-3" d="M44.27,80.84H41.76l-5.17-15h2L41.92,76c.41,1.27.75,2.44,1.08,3.62H43c.36-1.19.66-2.32,1.08-3.62l3.35-10.16h2Z"/><path class="cls-3" d="M53,62.9V59.45h1.85v3.43Zm0,17.94v-15h1.83v15Z"/><path class="cls-3" d="M61.74,68.45V80.84H60v-15h1.77V67a9.62,9.62,0,0,1,5.64-1.6v1.63A11.83,11.83,0,0,0,61.74,68.45Z"/><path class="cls-3" d="M78.24,80.84V79.78a9.61,9.61,0,0,1-5,1.42c-2.93,0-4.47-1.33-4.47-4.31v-.41c0-3.81,2.46-4.59,6.85-4.59h2.54V70.62c0-2.93-.63-3.62-4-3.62a36.41,36.41,0,0,0-4.39.3V66a22.5,22.5,0,0,1,4.53-.52c4.78,0,5.67,1.63,5.67,5.17V80.84Zm-.08-7.56H75.62c-3.62,0-5.06.5-5.06,3.18V77c0,2.07,1.16,2.79,3,2.79a9.39,9.39,0,0,0,4.56-1.35Z"/></g></g></svg>