<svg id="Layer_1" data-name="Layer 1" xmlns="http://www.w3.org/2000/svg" viewBox="0 0 100 100">
  <defs>
    <style>
      .cls-1 {
        fill: #08ccf7;
      }

      .cls-2 {
        fill: #004552;
      }

      .cls-3 {
        fill: #035263;
      }
    </style>
  </defs>
  <title>Hideme</title>
  <g>
    <g id="Layer_2" data-name="Layer 2">
      <g id="dl_4_gfx" data-name="dl 4 gfx">
        <path class="cls-1" d="M53,63.05,43.54,53l-1,.49L42.28,53l.88-.41L21,29c-2.63-2.8-1.73-5.78,2-6.65L68.49,11.73c3.73-.88,5.85,1.4,4.75,5L59.76,61.47C58.64,65.14,55.62,65.85,53,63.05ZM42,56.3A.88.88,0,1,1,43.24,55l.06.06A.88.88,0,0,1,42,56.3ZM43,56a.48.48,0,0,0,0-.68l0,0a.49.49,0,0,0-.69,0h0a.47.47,0,0,0,0,.66l0,0A.48.48,0,0,0,43,56l0,0ZM20.89,22.55l-.18-1.4.32,0,.18,1.4Zm4.82-2.06a.43.43,0,1,1,.62,0,.44.44,0,0,1-.61,0ZM26.2,20h-.36a.24.24,0,0,0,0,.34h.35a.25.25,0,0,0,0-.35h0Z"/>
        <path class="cls-2" d="M61,58.87a1.69,1.69,0,0,1-.27-.94l.55.28.25-.5-.82-.41v-.43a1.18,1.18,0,0,1-.84-.36,1.19,1.19,0,0,1,0-1.68h0a1.15,1.15,0,0,1,.32-.23c-.15-.3-.31-.59-.47-.88l.38.3.35-.44-1.4-1.13c-.11-.2-.2-.41-.29-.62a.74.74,0,0,1-.92-.1.7.7,0,0,1,.5-1.25,3.33,3.33,0,0,0-.08-.45,5,5,0,0,1,0-1.08l-.7.25-.11-.33.37.21.46-.81h0V48.2L59,47l-.48-.28-.28.5a3.63,3.63,0,0,0-.37-.59,1.2,1.2,0,0,0-1.27-1.72l-.25-.36h.13V42.11h-.59V43a2,2,0,0,0-.22-.61c-.5.5-.25,2.5-1.69,3.67-.34.28-.32,1.25-.48,1.62s-1.3,1.32-1.61,1.83A8.56,8.56,0,0,1,50,52c-.74.55-1.8,1.94-2.7,2.8a1.2,1.2,0,1,0,.08,2.31q.4.75.87,1.46s.83.13,1,.18v.36c-.6.08-1.44.31-2-.06L47.16,59h0a.63.63,0,0,0-.89-.88l0,0a9.73,9.73,0,0,1-1.12-1.48l-.06,0-.46-.74,1.05-.46-.16-.36-1.11.48-.89-1.4.57-.36.59.92a.83.83,0,0,1,.12-.25l.13-.15a.39.39,0,0,0,.11.18.43.43,0,0,0,.62-.61h0a1.21,1.21,0,0,1,1.23-1.79.94.94,0,0,0,.28.7,1,1,0,1,0,.64-1.62l.06-.13-1.4-.93.32-.46,1.29.87s0-.06,0-.08a.58.58,0,0,0,.79-.84h0a.55.55,0,0,0-.37-.16c.1-.22.21-.45.32-.7l-.7.43-.4-.62,2-1.27.23-.31a.7.7,0,0,1,.2-.17l-.06,0a1.2,1.2,0,0,1,1.48-1.88v-.39l.22.49.39-.19-.79-1.7h0L50.65,42l.49-.26.43.8c.13-.44.27-.9.41-1.36a.85.85,0,0,1-.37-.23.92.92,0,0,1,.84-1.53A2.68,2.68,0,0,1,52.5,39a1.59,1.59,0,0,1-.15-.34,1.16,1.16,0,0,0,.7-.34,1.2,1.2,0,0,0,0-1.7h0a1.31,1.31,0,0,0-.39-.25l.24-.52a1.25,1.25,0,0,1-.31-.7l-.06.23a3.11,3.11,0,0,1-.47.89,1.17,1.17,0,0,0-.7.34,1.23,1.23,0,0,0-.27,1.3,2,2,0,0,0-.1.48c-.09.88.13,3.23-.92,3.25a1.17,1.17,0,0,0-.36-.85,1.16,1.16,0,0,0-1-.35,1.85,1.85,0,0,1,.28-.7l-.74.29-.21-.51,1.11-.45a.7.7,0,1,0,1.12-.81l-.08-.07a.85.85,0,0,0,.08-.17,9.47,9.47,0,0,1-.12-1.2c0-.3.07-.66.11-1l-.43.9-.5-.26L50,35.27l1.36.23.07-.4-1.23-.2.29-.56h0c0-.25,0-.48.06-.7a.9.9,0,0,1-.37-.22.92.92,0,0,1-.18-1,1.93,1.93,0,0,1-1.51-.53,2,2,0,0,1,2.26-3.13,1.22,1.22,0,0,1,.35-.95,1.31,1.31,0,0,1,.44-.28l.08.1a.7.7,0,1,0,.09-1.14L51,25.34l.46-.32.63.9c0-.06,0-.11.08-.16l0,0a.43.43,0,0,0,.61-.62.44.44,0,0,0-.37-.13,1.2,1.2,0,0,1,.07-1.62,1.21,1.21,0,0,1,1.16-.32,3.56,3.56,0,0,0,.11-.34,2.75,2.75,0,0,0,.13-1l-.9,1-.41-.37,1.15-1.25c0-.13-.12-.28-.18-.43a.73.73,0,0,0,.6-1.2l0,0a.7.7,0,0,0-1,0l0,0a.7.7,0,0,0-.19.32A1.54,1.54,0,1,1,54.14,17a4.71,4.71,0,0,1,.53-.2,6.16,6.16,0,0,1,3.84,1.08c0,.06-.29,1.31-.31,1.62,0,.56.58.26.55,1.33-.85,0-.24,1-.6,1.26s-1.47.08-1.93.18c-.15,0-.24.33-.24.53,0,1.33,1.65,2.73,2.06,4.72.19,1,.34,1.65.6,2.64a8.34,8.34,0,0,1-.13,3.12c1.26.63,3.94,1.33,4.27,1.58,1,.74.79,1.8-.55,2.18H62l-.18-.11a.84.84,0,0,0-1.29-1.06.7.7,0,0,0-.16.22,2,2,0,0,1-.34-.33l-.13-.12-1.31.08V35.4h.62c-.33-.09-.7-.18-1-.27,0,.22,0,.43-.06.61-.79,1.83,1.53,6.72,2.16,8.54A41.74,41.74,0,0,1,62,51.74c.18,2.39.06,5.08,2.23,6.08.46.22,1.63.08,2.1.55.06.27-.11.47-.18.7C65.81,59.4,61.24,59.15,61,58.87Zm-14.57-.58,0,0a.34.34,0,0,1,.48.48l0,0-.48-.47Zm11.79-1.55-1.4-.7.15-.32,1.4.7Zm-11.69-.38a.66.66,0,0,1,0-.93h0a.7.7,0,0,1,.32-.18,2.47,2.47,0,0,0,.28,1.3A.7.7,0,0,1,46.56,56.35Zm14-.94c0-.13-.09-.25-.14-.36a.67.67,0,1,0,.32,1.3,2.8,2.8,0,0,0-.14-.91ZM45.16,54.35a.23.23,0,0,1-.07-.17l.35-.21.06,0a.24.24,0,1,1-.34.34Zm1.55-1.08c.12-.18.23-.36.34-.54a.66.66,0,0,0-.88.92A1.4,1.4,0,0,0,46.71,53.27Zm.7-.78c-.11-.1-.15-.23-.11-.25l.23-.53c.39-.11.52-.06.62,0a.53.53,0,0,1-.67.81Zm11.2-1c-.08-.22-.15-.45-.22-.7a.4.4,0,0,0-.34.12.41.41,0,0,0,.57.57Zm1.4.08.6-.95-.22-.14-.59,1ZM48.24,50.24l0-.08.19-.46a.32.32,0,1,1-.14.54h0Zm11.45-.19a.83.83,0,1,0-1.14-.26A.83.83,0,0,0,59.69,50.05Zm-.83-.46A.45.45,0,0,1,59,49h0a.46.46,0,1,1-.14.63ZM40.23,48.49a1.54,1.54,0,1,1,2.18,0,1.54,1.54,0,0,1-2.18,0Zm17.18.21-.07-.13.14,0Zm-6.83,0,.21-.2-.87-.93-.2.2ZM57,48.64l-1.55-.4.09-.36,1.55.4ZM41.94,48a.85.85,0,1,0-1.24,0,.85.85,0,0,0,1.24,0Zm9.73-1.29a.57.57,0,0,0,0-.81h0a.66.66,0,0,0-.18-.13.2.2,0,0,1,0,0,.66.66,0,0,0-1.09-.25.66.66,0,0,0,0,.93h0a.7.7,0,0,0,.21.14l.09-.06a.7.7,0,0,0,.13.21.59.59,0,0,0,.83,0ZM51,46.55a.29.29,0,0,1-.09-.17.76.76,0,0,0,.28-.24.7.7,0,0,1,.09-.13.37.37,0,0,1,.17.08.33.33,0,0,1,0,.46A.32.32,0,0,1,51,46.55Zm5.43-.09a.61.61,0,0,1,0-.85c.53-.15.7-.08.83,0s.19.29,0,.83a.61.61,0,0,1-.86,0v0Zm.7-.2a.34.34,0,1,0-.49,0h0a.32.32,0,0,0,.45,0h0ZM43.34,45.15l-1.18-2,.47-.27,1.17,2Zm9.8-.13.6-1-.22-.13-.6,1Zm-7.32-.36a1.09,1.09,0,1,1,1.54,0h0a1.09,1.09,0,0,1-1.53,0l0,0ZM47,44.33a.6.6,0,1,0-.85,0h0a.6.6,0,0,0,.83,0Zm6-2a.44.44,0,1,0-.62,0h0A.44.44,0,0,0,53,42.35Zm-.48-.14a.23.23,0,0,1,0-.33h0a.25.25,0,0,1,.34,0,.23.23,0,0,1,0,.33h0a.25.25,0,0,1-.34,0Zm-3.37-1a1.25,1.25,0,0,1-.24-.24.65.65,0,0,1,.62.49,3.34,3.34,0,0,1-.39-.26Zm3.23-1.4a.5.5,0,0,0-.46.13.51.51,0,0,0,0,.7.53.53,0,0,0,.2.13c.09-.35.18-.67.25-1Zm1.84.4a.63.63,0,0,0-.89-.88h0a.64.64,0,0,0,0,.88.62.62,0,0,0,.88,0Zm-.7-.2a.34.34,0,1,1,.49,0h0a.34.34,0,0,1-.47,0Zm-3.93-1a.32.32,0,0,1-.08-.09l.23-.09.37-.42,0,0a.4.4,0,0,1,0,.56h0a.39.39,0,0,1-.55,0Zm-2.25-.5a1.2,1.2,0,1,1,1.7,0h0a1.2,1.2,0,0,1-1.69,0Zm1.32-.39a.67.67,0,1,0-.94,0h0a.7.7,0,0,0,1,0Zm3.8-1.32A.66.66,0,0,1,52.66,38a.65.65,0,0,1-.44.2A2.8,2.8,0,0,1,52.44,36.88Zm-12.79.63-1.22-.76.18-.27,1.23.76Zm21-1.18a.48.48,0,0,1,.11-.18.46.46,0,0,1,.7.61C61.19,36.61,60.92,36.48,60.66,36.33Zm-15.74.19V36.2l1.4-.09v.32Zm-11-.25a.45.45,0,0,1,0-.62.44.44,0,1,1,.62.62h0a.44.44,0,0,1-.62,0Zm20.89-.13a.44.44,0,0,0-.62-.62.43.43,0,0,0,0,.61h0a.43.43,0,0,0,.6,0h0Zm-20.41,0a.24.24,0,0,0,0-.34h0a.24.24,0,1,0-.34.34h0a.24.24,0,0,0,.34,0ZM54.3,36a.24.24,0,0,1,0-.34.23.23,0,0,1,.33,0h0a.24.24,0,0,1-.34.34Zm-1-1.4a.53.53,0,0,0-.14.55A2.7,2.7,0,0,0,53.3,34.65Zm1.4,0,.21-.37-1.62-.92a4.2,4.2,0,0,0-.22-.78c-.15.59-.22,1.25-.33,1.87a1.4,1.4,0,0,1,.2-.27,1.12,1.12,0,0,1,.42-.27h0ZM41.78,33.42a1.2,1.2,0,1,1,1.71,0A1.2,1.2,0,0,1,41.78,33.42Zm9.86,0a.7.7,0,0,0,0-1l0,0c-.14-.14-.33-.22-.86-.07v0a.53.53,0,0,0-.27.14.5.5,0,0,0-.13.46.76.76,0,0,0,1.2.65l.06-.06Zm-.8-.17a.41.41,0,0,1,0-.57.4.4,0,0,1,.56,0h0a.41.41,0,0,1,0,.57.39.39,0,0,1-.55,0Zm-7.74-.18a.66.66,0,0,0,0-.93h0a.66.66,0,1,0,0,.93Zm10.5-.7a.83.83,0,1,0-1.17,0h0a.82.82,0,0,0,1.13,0Zm-.91-.27a.46.46,0,1,1,.65,0,.46.46,0,0,1-.65,0l0,0Zm-2-.87a1.06,1.06,0,0,0,0-1.51h0a1.07,1.07,0,1,0,0,1.52Zm-16.43,0-1.61-1.4.32-.36,1.61,1.4ZM54.71,30.1,55,30l-.32-1.08L54.4,29Zm-8.23-.48a.72.72,0,0,1,1-1,.7.7,0,0,1,0,1l0,0a.7.7,0,0,1-1,0l0,0Zm.78-.23a.4.4,0,0,0-.56-.57.41.41,0,0,0,0,.57.4.4,0,0,0,.55,0ZM51.82,28a.64.64,0,0,0-.32.18.66.66,0,0,0,0,.93h0a.7.7,0,0,0,.32.18c0-.4,0-.85,0-1.3Zm3,0a1.17,1.17,0,1,0-1.44,0,1,1,0,0,0,1.44,0Zm-1.11-.32a.56.56,0,1,1,.79,0h0a.56.56,0,0,1-.79,0h0Zm-1.86-.25a.32.32,0,0,1-.07-.09v-.41l0-.06a.4.4,0,0,1,.56,0h0a.39.39,0,0,1,0,.55h0a.4.4,0,0,1-.56,0ZM26,27.09a.44.44,0,1,1,.7-.42l.78.11,0,.27-.74-.11a.42.42,0,0,1-.1.15.44.44,0,0,1-.62,0Zm.48-.14v0h-.23l0-.27h.18a.24.24,0,0,0-.34,0h0a.22.22,0,1,0,.33.3Zm20.81-.34-.12-.46,2-.54.13.45ZM38,26.18V25h.26v1.15Zm14.35-.5a.25.25,0,0,1-.07-.13,2.74,2.74,0,0,1,.14-.26.23.23,0,0,1,.26,0,.22.22,0,0,1,0,.32l0,0A.24.24,0,0,1,52.32,25.67ZM31.76,25.2a1.18,1.18,0,0,1-.34-.7H30.15V24h1.3a1.11,1.11,0,0,1,.3-.51,1.2,1.2,0,1,1,0,1.7h0Zm1.32-.35a.7.7,0,0,0,0-.94.65.65,0,0,0-.92,0h0A.45.45,0,0,0,32,24h.36v.51H32a.7.7,0,0,0,1.11.29Zm22-.14.09-.51-1.83-.32.12-.22a.7.7,0,0,0-.5.15h0a.65.65,0,0,0-.08.83l.21-.33ZM43.4,24.4a.79.79,0,1,1,1.12,0h0a.79.79,0,0,1-1.12,0h0Zm.86-.25a.43.43,0,0,0,0-.6h0a.43.43,0,0,0-.61,0h0a.44.44,0,0,0,0,.61.43.43,0,0,0,.6,0Zm6-1.82a1.2,1.2,0,1,1,1.71,0,1.22,1.22,0,0,1-1.72,0Zm1.32-.39a.7.7,0,0,0,0-.93.66.66,0,1,0,0,.93ZM55.72,21a.39.39,0,1,0-.55,0h0a.4.4,0,0,0,.55,0ZM36,21l-.13-.14.57-.54.13.14Zm19.3-.14a.22.22,0,0,1,0-.31h0a.22.22,0,0,1,.3.31h0a.22.22,0,0,1-.3,0Zm-1.93-.5c-.06-.14-.13-.28-.18-.42a.36.36,0,0,1,.11-.2.41.41,0,0,1,.66.48l-.09.09a.4.4,0,0,1-.5,0Zm-6.74-1-.08-.4,1.75-.38.08.41Zm6.74-1.83a.81.81,0,0,0-.57.24.85.85,0,0,0,0,1.2l.13.1a1.6,1.6,0,0,1,.45-1.55Zm2.18,1.17a.7.7,0,0,0,0-1l0,0a.7.7,0,1,0,0,1Zm-.8-.23a.43.43,0,1,1,.63-.06l-.07.06a.41.41,0,0,1-.57,0Z"/>
      </g>
    </g>
    <g>
      <g>
        <polygon class="cls-3" points="24.61 88.45 24.61 74.34 21.57 74.34 21.57 79.88 14.9 79.88 14.9 74.34 11.9 74.34 11.9 88.45 14.9 88.45 14.9 82.53 21.57 82.53 21.57 88.45 24.61 88.45"/>
        <rect class="cls-3" x="27.38" y="74.34" width="3" height="14.11"/>
        <path class="cls-3" d="M38.74,88.46a8.81,8.81,0,0,0,3-.5,6.79,6.79,0,0,0,2.37-1.42,6.31,6.31,0,0,0,1.54-2.22,7.85,7.85,0,0,0,0-5.79,6.35,6.35,0,0,0-1.54-2.23,6.85,6.85,0,0,0-2.37-1.43,8.89,8.89,0,0,0-3-.51H33.17V88.46Zm0-2.64H36.18V77h2.56a4.88,4.88,0,0,1,2.44.59,3.78,3.78,0,0,1,1.49,1.58,5.17,5.17,0,0,1,.21,4A4.25,4.25,0,0,1,42,84.51a4.11,4.11,0,0,1-1.39.95A5,5,0,0,1,38.74,85.81Z"/>
        <polygon class="cls-3" points="58.36 88.45 58.36 85.81 51.37 85.81 51.37 82.62 58.21 82.62 58.21 79.97 51.37 79.97 51.37 76.98 58.36 76.98 58.36 74.34 48.37 74.34 48.37 88.45 58.36 88.45"/>
      </g>
      <g>
        <path class="cls-3" d="M62.26,76.43s0,.21,0,.49.08.65.14,1.09.14.93.22,1.45.19,1,.3,1.55.24,1,.38,1.41a4.87,4.87,0,0,0,.45,1c.16.26.33.39.51.4h.23a1,1,0,0,0,.22-.19,3,3,0,0,0,.22-.25c.08-.1.19-.27.34-.51l.51-.81.57-.91.51-.82.33-.53,2.23,2.25.16,0,.25,0,.23,0a1.79,1.79,0,0,0,1-.29,3.7,3.7,0,0,0,.78-.7l.71-.84a3.6,3.6,0,0,1,.79-.7,1.92,1.92,0,0,1,1-.29,1.14,1.14,0,0,1,.87.34,2.4,2.4,0,0,1,.46.82c.11.33.23.66.36,1a2.1,2.1,0,0,0,.58.82,1.72,1.72,0,0,0,1.13.34c0-.36,0-.78-.05-1.25a10.88,10.88,0,0,0-.23-1.46,6,6,0,0,0-.5-1.39,2.89,2.89,0,0,0-.85-1,2.17,2.17,0,0,0-1.31-.41,2.62,2.62,0,0,0-1.09.24,4.81,4.81,0,0,0-.93.57l-.86.68a5.17,5.17,0,0,1-.88.57,2.19,2.19,0,0,1-1,.24.75.75,0,0,1-.55-.24,2.33,2.33,0,0,1-.38-.57c-.11-.23-.22-.45-.34-.68a1.94,1.94,0,0,0-.45-.57,1.08,1.08,0,0,0-.7-.24,2.22,2.22,0,0,0-1.06.29,4.16,4.16,0,0,0-.9.69c-.27.28-.53.55-.76.83a2.56,2.56,0,0,1-.31-.72c-.08-.29-.16-.6-.24-.94a6.93,6.93,0,0,0-.28-.94,2,2,0,0,0-.44-.72A1,1,0,0,0,63,75.3a.66.66,0,0,0-.49.18.84.84,0,0,0-.19.43A3.34,3.34,0,0,0,62.26,76.43Z"/>
        <path class="cls-3" d="M78.63,79.47a4.63,4.63,0,0,0,.43,1.93,5.69,5.69,0,0,0,2.8,2.79,4.68,4.68,0,0,0,1.93.43A4.36,4.36,0,0,0,86,84a2.72,2.72,0,0,0,.84-.78,1.9,1.9,0,0,0,.33-1.08v-.21L87,81.7l-.24-.23a2.78,2.78,0,0,1-1.17,1,3.49,3.49,0,0,1-1.52.34,3.4,3.4,0,0,1-1.54-.29,1.52,1.52,0,0,1-.75-.84,3.93,3.93,0,0,1-.19-1.38l1,0,1.35.06a12.74,12.74,0,0,0,1.48,0,5.75,5.75,0,0,0,1.36-.28,2.32,2.32,0,0,0,1-.64,1.65,1.65,0,0,0,.39-1.11A2.36,2.36,0,0,0,87.64,77a3.6,3.6,0,0,0-1.14-1A5.91,5.91,0,0,0,85,75.39a5.8,5.8,0,0,0-1.44-.2,5.92,5.92,0,0,0-1.82.29,5.25,5.25,0,0,0-1.59.84,4.15,4.15,0,0,0-1.13,1.34A3.88,3.88,0,0,0,78.63,79.47Zm2.28-1.58a1.15,1.15,0,0,1,.53-.74,1.54,1.54,0,0,1,.8-.18h.59l.68,0a5.09,5.09,0,0,1,.85.14,1.92,1.92,0,0,1,.72.34.81.81,0,0,1,.31.65.63.63,0,0,1-.21.51,1,1,0,0,1-.49.2,2.92,2.92,0,0,1-.59,0l-.5,0a10,10,0,0,1-1,0,2.8,2.8,0,0,1-.94-.25A1.84,1.84,0,0,1,80.91,77.89Z"/>
      </g>
    </g>
  </g>
</svg>
