<?xml version="1.0" encoding="UTF-8"?> <svg xmlns="http://www.w3.org/2000/svg" xmlns:xlink="http://www.w3.org/1999/xlink" id="Layer_1" data-name="Layer 1" width="100" height="100" viewBox="0 0 100 100"> <defs> <style> .cls-1 { fill: none; } .cls-11, .cls-2, .cls-4, .cls-8 { fill: #343434; } .cls-2 { opacity: 0.21; } .cls-11, .cls-2, .cls-8 { isolation: isolate; } .cls-3 { fill: #dbdbdb; } .cls-5 { fill: #1460a7; } .cls-6 { fill: #ffcc07; } .cls-7 { fill: #98a0a6; } .cls-8 { opacity: 0.25; } .cls-9 { fill: #1e1e1c; } .cls-10 { fill: #4e4d4d; } .cls-11 { opacity: 0.1; } .cls-12 { fill: #7a8084; } .cls-13 { fill: #fff; } .cls-14 { fill: #bbbdc4; } .cls-15 { fill: #e3e9ea; } .cls-16 { fill: #b2b8c3; } .cls-17 { fill: #d7a10b; } .cls-18 { fill: #4e9ad4; } .cls-19 { fill: #3d3e40; } .cls-20 { clip-path: url(#clip-path); } .cls-21 { clip-path: url(#clip-path-3); } .cls-22 { fill: #f0f1f1; } .cls-23 { fill: #cacbd5; } .cls-24 { fill: #cee0ea; } .cls-25 { fill: #888f96; } </style> <clipPath id="clip-path"> <circle class="cls-1" cx="49.98" cy="41.27" r="24.58"></circle> </clipPath> <clipPath id="clip-path-3"> <path class="cls-1" d="M45.58,59.73l.49,25.81S51.51,89.85,64.43,84l-.81-27.13,2.27-7.26S58.7,57.46,54,60.28c-2.46,0-5-2.11-5-2.11Z"></path> </clipPath> </defs> <title>hma</title> <g> <circle class="cls-2" cx="49.98" cy="41.27" r="24.58"></circle> <circle class="cls-3" cx="50.31" cy="41.56" r="22.15"></circle> <path class="cls-4" d="M62.94,55.32,70.1,40.26c-3.89-3.49-7.23-3.82-15.36-3.82"></path> <g> <path class="cls-5" d="M11.74,85.34V79.19H8.3v6.15H5V70.61H8.3v5.57h3.44V70.61H15V85.34Z"></path> <path class="cls-5" d="M17.24,85.34V70.61h3.34V85.34Z"></path> <path class="cls-5" d="M33.05,78a12.23,12.23,0,0,1-.36,3,6.31,6.31,0,0,1-1.1,2.3,5,5,0,0,1-1.91,1.49,6.6,6.6,0,0,1-2.72.51H22.78V70.61h4.15a6.26,6.26,0,0,1,2.72.52,5.08,5.08,0,0,1,1.91,1.49A6.62,6.62,0,0,1,32.66,75,11.23,11.23,0,0,1,33.05,78Zm-3.37,0a6.28,6.28,0,0,0-.75-3.37,2.32,2.32,0,0,0-2-1.14h-.81v8.91H27a2.33,2.33,0,0,0,2-1.13A5.76,5.76,0,0,0,29.68,78Z"></path> <path class="cls-5" d="M34.63,85.34V70.61h7.13v3H37.84v2.88h3.63v2.75H37.84v3.18H42v3Z"></path> <path class="cls-6" d="M51.15,82.33l.06-6h-.06l-1.46,6H48.3l-1.43-6h0l.07,6H45.13V73.59h2.49L49,79.22h.07l1.36-5.63h2.62v8.74Z"></path> <path class="cls-6" d="M57.59,79.19v3.14H55.65V79.19l-2.2-5.6h2.14l1,3.63h0l1.06-3.63h2.11Z"></path> <path class="cls-5" d="M67.7,85.34l-.62-2.68h-3.3l-.62,2.68H59.83l3.56-14.73h4.18l3.56,14.73ZM65.5,73.82h-.1l-1.26,6.25h2.52Z"></path> <path class="cls-5" d="M78.9,74.14a2.82,2.82,0,0,0-.87-.68,2.32,2.32,0,0,0-1-.23,1.55,1.55,0,0,0-1,.36,1.39,1.39,0,0,0-.45,1.16A1.36,1.36,0,0,0,76,75.82a6,6,0,0,0,1.36.85c.32.16.68.35,1.07.58a5.31,5.31,0,0,1,1,.84,5.65,5.65,0,0,1,.78,1.2,4.24,4.24,0,0,1,.29,1.65,5.44,5.44,0,0,1-.39,2.11,4.24,4.24,0,0,1-1,1.49,4.64,4.64,0,0,1-1.49.9,5,5,0,0,1-1.72.29,6.13,6.13,0,0,1-2.43-.48,5.63,5.63,0,0,1-1.75-1.17l1.72-2.49a4,4,0,0,0,1.1.81,3.05,3.05,0,0,0,1.27.29,1.4,1.4,0,0,0,1-.39,1.37,1.37,0,0,0,.42-1.1A1.49,1.49,0,0,0,76.73,80a6.7,6.7,0,0,0-1.45-.9c-.39-.2-.78-.42-1.14-.65a4.19,4.19,0,0,1-.94-.84,4.36,4.36,0,0,1-.64-1.17,4.48,4.48,0,0,1-.23-1.59,4.69,4.69,0,0,1,.42-2.1,4.57,4.57,0,0,1,1.07-1.46,4,4,0,0,1,1.46-.84,4.7,4.7,0,0,1,1.62-.26,5.75,5.75,0,0,1,2.17.39,4.25,4.25,0,0,1,1.58,1.07Z"></path> <path class="cls-5" d="M88.07,74.14a2.94,2.94,0,0,0-.87-.68,2.39,2.39,0,0,0-1-.23,1.6,1.6,0,0,0-1,.36,1.39,1.39,0,0,0-.45,1.16,1.36,1.36,0,0,0,.45,1.07,6.49,6.49,0,0,0,1.36.85c.33.16.69.35,1.07.58a5.07,5.07,0,0,1,1,.84,5.26,5.26,0,0,1,.77,1.2,4.05,4.05,0,0,1,.3,1.65,5.44,5.44,0,0,1-.39,2.11,4.26,4.26,0,0,1-1,1.49,4.53,4.53,0,0,1-1.49.9,5,5,0,0,1-1.71.29,6.06,6.06,0,0,1-2.43-.48,5.52,5.52,0,0,1-1.75-1.17l1.72-2.49a4,4,0,0,0,1.1.81,3,3,0,0,0,1.26.29,1.36,1.36,0,0,0,1-.39,1.34,1.34,0,0,0,.43-1.1A1.52,1.52,0,0,0,85.9,80a6.56,6.56,0,0,0-1.46-.9,12.34,12.34,0,0,1-1.13-.65,4,4,0,0,1-.94-.84,4.12,4.12,0,0,1-.65-1.17,4.74,4.74,0,0,1-.22-1.59A4.62,4.62,0,0,1,83,71.32a4.1,4.1,0,0,1,1.46-.84,4.7,4.7,0,0,1,1.62-.26,5.75,5.75,0,0,1,2.17.39,4.21,4.21,0,0,1,1.59,1.07Z"></path> <path class="cls-5" d="M95,83.66A1.9,1.9,0,0,1,94.51,85,1.72,1.72,0,0,1,92,85a2.05,2.05,0,0,1,0-2.66,1.52,1.52,0,0,1,1.26-.55,1.65,1.65,0,0,1,1.26.55A1.9,1.9,0,0,1,95,83.66Zm-3.37-3.33V70.61h3.24v9.72Z"></path> </g> <path class="cls-7" d="M63.94,53.74l-5.83-30.9L44.25,25.92l-3.69,3.82-.71,7.16L38,41,44,53.9l3.3.45,3.37,10.17C57.43,62.93,60.64,59.7,63.94,53.74Z"></path> <path class="cls-8" d="M43.93,31.75a6,6,0,0,1,4.79-3.95c2-.3,5-.65,5.47-2.89.42-1.94-7.61,1.53-8.06,1.75S43.38,29.74,43.93,31.75Z"></path> <polygon class="cls-9" points="54.84 32.17 54.39 33.88 55.46 33.46 55.88 31.94 54.84 32.17"></polygon> <rect class="cls-9" x="40.11" y="32.26" width="6.57" height="1.62"></rect> <path class="cls-10" d="M47.39,31.75,52.61,31s.61-1.26-.39-1.26S47.39,31.75,47.39,31.75Z"></path> <path class="cls-10" d="M49.6,34.08l-.88,2.14a.15.15,0,0,0,.26.16l2.23-2.14a.15.15,0,0,0-.09-.26H49.79C49.66,34,49.6,34.05,49.6,34.08Z"></path> <path class="cls-9" d="M60.74,40.72a9.29,9.29,0,0,0-1.69-3.79,11,11,0,0,0,.88-5.25l.55,2.2"></path> <g> <path class="cls-10" d="M40.3,29.64l-.1.1-.13,1.16,2.47.59A8.3,8.3,0,0,0,40.3,29.64Z"></path> <polygon class="cls-11" points="39.62 35.66 39.49 36.9 37.68 41.01 39.2 43.18 43.28 36.67 39.62 35.66"></polygon> </g> <polygon class="cls-7" points="42.18 33.88 38.71 41.37 45.45 43.11 45.45 33.88 42.18 33.88"></polygon> <polyline class="cls-9" points="54.36 32.27 60.41 30.77 60.74 31.52 53.71 34.14"></polyline> <polygon class="cls-9" points="60.28 31.68 59.76 28.44 60.67 31.29 60.57 33.79 60.28 31.68"></polygon> <path class="cls-12" d="M51.18,27.34a8.72,8.72,0,0,0,3-1.52l1.36-2.4-1.62.36-1,.32Z"></path> <path class="cls-10" d="M39.56,34.08l-.88,2.14a.15.15,0,0,0,.26.16l2.23-2.14a.15.15,0,0,0-.09-.26H39.75A.26.26,0,0,0,39.56,34.08Z"></path> <polygon class="cls-13" points="54.36 32.27 60.19 30.84 60.44 30.9 54.29 32.69 54.36 32.27"></polygon> <polygon class="cls-14" points="42.18 33.88 37.52 43.86 39.98 43.76 45.68 33.88 42.18 33.88"></polygon> <path class="cls-9" d="M40.62,37.22h0l3.63-7.61a6.57,6.57,0,0,0-.94-.16,8.36,8.36,0,0,0-1,0,6,6,0,0,0-3.5,1.36c-.94.81-2,1.43-2,2.53a6.91,6.91,0,0,0,1.39,3.43,3.9,3.9,0,0,0,2.3.75Z"></path> <path class="cls-8" d="M41.3,35.76c-1.36,0-2.55-.71-3.72,0,.87,1.69,1.65,1.46,2.91,1.72Z"></path> <path class="cls-13" d="M37.52,32.26H54.39l0,.23-.07.23H36.93a3.12,3.12,0,0,1,.36-.42"></path> <path class="cls-9" d="M48.69,37.93c-1.82-.35-3.56-2.82-3.56-2.82s-.3-3,.68-3.82a6,6,0,0,1,4.56-1.36c2.43.23,4.28,1.82,4.37,3.76.07,1.1,0,3.08-1.29,4C52.54,38.32,49.17,38,48.69,37.93Z"></path> <path class="cls-8" d="M40.92,36.67a6.88,6.88,0,0,1,3,.23c2.27.51,2.53,1.16,5.57,1s8.23-2.66,11.3-6.12L60,29.51,42.89,32.3Z"></path> <path class="cls-9" d="M60.74,40.26s-.36-3.75.16-4.24a4,4,0,0,1,3-.65,21.94,21.94,0,0,0-2-1.87c-.48-.33,1.66.35,1.91.55a7.65,7.65,0,0,0-2.49-2c-.87-.2,1.49.32,1.94.45s-2.3-1.75-2.75-1.81a1.25,1.25,0,0,0-.61,0L60.35,36Z"></path> <g> <path class="cls-15" d="M37.94,8.2c-3.86,2.27.29,20.31,4.34,21.12l1.55-7.26-3-6.21Z"></path> <path class="cls-16" d="M39.69,26.5c-1.75-18.33.55-12.11.55-12.11,5.31,9,.38,5.21,3.95,9.42C45.06,24.88,39.81,28,39.69,26.5Z"></path> </g> <path class="cls-9" d="M63.75,25.27a9.2,9.2,0,0,0-5.64-1.39L59,27.67l5,0Z"></path> <path class="cls-4" d="M37.48,28.18a12.23,12.23,0,0,0-4,1.59c-1.17.94-2.17,2.56.94,3.47,1.68.48,16.12,3.88,27-1.49,2.52-1.23,2.94-3.14,2.85-4.05s-1.62-.88-3.24-1.3-2.5-.71-2.5-.71Z"></path> <path class="cls-4" d="M60.9,29s-1.59-7.8-1.88-8.93-.49-2.4-1.68-3A5.89,5.89,0,0,0,53,16.33a37,37,0,0,0-5.67,1.17,13.81,13.81,0,0,0-1.65-.78c-.75-.29-1.1-.36-1.43-.16a4.39,4.39,0,0,0-.87,1.58c-.26.65-2.59,6.58-3,7.68a30.65,30.65,0,0,0-.88,4Z"></path> <path class="cls-4" d="M59,20.06c-.29-1.14-.49-2.4-1.68-3A5.89,5.89,0,0,0,53,16.33c-2.59.26,5.8.55,1.84,4.44L54,26.53,60.9,29S59.31,21.19,59,20.06Z"></path> <path class="cls-4" d="M57.76,32.75A18.69,18.69,0,0,0,61.64,31c2.24-1.46,2.72-2.43,2.63-3.33-.07-.62.22-1.56-.55-2.4C64.33,28.31,58.37,32.39,57.76,32.75Z"></path> <g> <path class="cls-15" d="M59.76,4.87c4.6,2.2,4.41,21.18-3.59,22.41Z"></path> <path class="cls-14" d="M56.88,27.18a131.17,131.17,0,0,0,1.65-14.54s-4,7.67-3.69,13.92c.07,1.14,2,.62,2,.62Z"></path> </g> <path class="cls-6" d="M40.24,26.5a74.49,74.49,0,0,0,8.61.32c4.47-.13,8.71-.45,11.14-1.52A11.93,11.93,0,0,1,60.9,29a22.62,22.62,0,0,1-7.48,1.82,38.65,38.65,0,0,1-10.63-.1,16.34,16.34,0,0,1-3.69-.87C38.84,29.74,40.24,26.5,40.24,26.5Z"></path> <path class="cls-17" d="M60.35,24.82c-2.43,1.1-7.06,1.87-11.53,2-.49,0,5.67-.29,5.21-.29L51.18,31l2.24-.19A22.62,22.62,0,0,0,60.9,29C60.74,26.89,60.35,24.82,60.35,24.82Z"></path> <path class="cls-18" d="M51.51,29.19h.13S51.6,29.16,51.51,29.19Z"></path> <path class="cls-19" d="M33.14,30a2,2,0,0,0-.48.87,1.14,1.14,0,0,0,.16.88,3.62,3.62,0,0,0,1.59,1.07,18,18,0,0,0,3.88.94c1.33.19,2.69.29,4,.35s2.69.07,4,0,2.68-.1,4-.23,2.69-.29,4-.52a36.34,36.34,0,0,0,7.81-2.14,25.94,25.94,0,0,1-7.68,2.89,36.8,36.8,0,0,1-4,.68c-1.36.16-2.75.25-4.11.29a39.22,39.22,0,0,1-8.23-.62,14.33,14.33,0,0,1-3.95-1.26,9,9,0,0,1-.9-.55,2.41,2.41,0,0,1-.72-.81,1.16,1.16,0,0,1-.06-1.07A1.53,1.53,0,0,1,33.14,30Z"></path> <g> <g class="cls-20"> <g> <polygon class="cls-9" points="65.92 49.59 79.36 50.95 63.88 64.97 60.74 59.83 65.08 52.15 63.68 52.31 65.92 49.59"></polygon> <polyline class="cls-4" points="49.92 68.96 50.08 60.54 47.36 54.61 28.12 58.85 32.85 62.64"></polyline> <path class="cls-13" d="M45.58,59.73l.49,25.81S51.51,89.85,64.43,84l-.81-27.13,1.84-4.64V51.08l.46-1.52S58.73,57.43,54,60.25c-2.46,0-5-2.11-5-2.11Z"></path> <polygon class="cls-9" points="45.58 59.73 45.68 66.46 45.94 77.47 37.19 56.88 45.68 54.13 47.23 54.35 49.01 58.14 45.58 59.73"></polygon> </g> </g> <g class="cls-20"> <g> <g class="cls-21"> <g> <polygon class="cls-4" points="55.36 61.09 52.32 61.12 51.15 63.74 52.67 66.37 55.07 66.37 56.56 63.71 55.36 61.09"></polygon> <polygon class="cls-4" points="56.04 94.58 53.97 95.94 51.9 94.54 51.8 69.22 55.94 69.25 56.04 94.58"></polygon> <polygon class="cls-4" points="55.94 69.25 55.07 66.37 52.67 66.37 51.8 69.22 55.94 69.25"></polygon> </g> </g> <g class="cls-20"> <polygon class="cls-8" points="47.23 54.35 55.07 50.01 58.7 43.11 59.12 52.86 52.32 67.82 42.02 68.25 39.3 61.8 38.36 59.63 47.65 55.23 47.23 54.35"></polygon> </g> <g class="cls-20"> <polygon class="cls-9" points="65.92 49.59 69.93 57.49 63.88 64.75 63.65 56.98 63.62 51.99 65.92 49.59"></polygon> </g> </g> <g> <g> <path class="cls-16" d="M40.69,55.84c3,0,5.83,0,7.06-5.86.29-1.43.91-2,.84-3a12.74,12.74,0,0,1-1.65,1.72s-1.75,2.07-1.81,2.17-.94.61-.94.61l-3.95-.13-3.92-.58-2.11.06.58,1.88.43.94C36,55.39,38.23,55.81,40.69,55.84Z"></path> <path class="cls-22" d="M46.94,48.68s.55,2.37-2.56,3.53a10,10,0,0,1-6.31,0,11.35,11.35,0,0,1-1-.91c0-.1.07-1.13.1-1.26a5.07,5.07,0,0,1,1.13-.46l2.14,0,3.85-.3Z"></path> <path class="cls-13" d="M45.94,49.69c-2.72,2.14-7.68.45-7.68.45a8.19,8.19,0,0,0-1.3-.55l-.32.13c0,.07,1.65,2.36,1.65,2.36a15.55,15.55,0,0,0,4.21.26c4-.64,4.18-2.94,4.18-3.33A5.65,5.65,0,0,1,45.94,49.69Z"></path> <path class="cls-13" d="M38.45,49.79s-.93-1.14-1.1-1.14-3.69-.68-3.82-.26.36,1.46.36,1.46l-.49,2.4s-.13.29.36.35l1.23.13h0s.39.07.45-.29h.13a.37.37,0,0,0,.39.39h0l1.75.19s.61.1.71-.32Z"></path> <path class="cls-23" d="M45.94,49.69c-2.4,1.88-6.51.81-7.45.52v-.42s-.94-1.14-1.1-1.14-3.7-.68-3.83-.26.36,1.46.36,1.46l-.13.58c.49-.22,2.3-.84,5,.42A17.7,17.7,0,0,0,45,51.5,3.08,3.08,0,0,0,46.65,49,4.66,4.66,0,0,1,45.94,49.69Z"></path> <path class="cls-24" d="M38.26,50.14s5,1.69,7.68-.45a5.76,5.76,0,0,0,1.71-2.14,9.83,9.83,0,0,0-.81-3.14h0a1.29,1.29,0,0,1,.2-1.17h0a1.93,1.93,0,0,0-1.62-3,2.42,2.42,0,0,0-1.36.29h0l0,0s-.06.06-.09.06a1.33,1.33,0,0,1-.94.06h0a12.77,12.77,0,0,0-5.7-.19,3.21,3.21,0,0,1-1.59-.29l-.39-.2h0a2,2,0,0,0-.61-.12,2.06,2.06,0,0,0-2.34,1.74,2,2,0,0,0,1,1.85.7.7,0,0,1,.22,1h0a1.66,1.66,0,0,1-.13.23l-1.26,2.56c-1.33,2.91,1.72,2.65,1.72,2.65S35.54,48.65,38.26,50.14Z"></path> <path class="cls-22" d="M38.26,50.14s5,1.69,7.68-.45a7.75,7.75,0,0,0,2.68-2.53c-.06-1.84-1.39-1.88-1.75-2.72h0a1.3,1.3,0,0,1,.2-1.16h0a1.94,1.94,0,0,0-1.62-3,2.34,2.34,0,0,0-1.36.3h0l0,0s-.07.06-.1.06a1.36,1.36,0,0,1-.94.07h0a12.85,12.85,0,0,0-5.7-.2,3.23,3.23,0,0,1-1.59-.29L35.35,40h0a1.75,1.75,0,0,0-.61-.13,2,2,0,0,0-2.33,1.75,2,2,0,0,0,1,1.84.71.71,0,0,1,.23,1h0l-.13.23L32.2,47.26c-1.32,2.91,1.72,2.65,1.72,2.65S35.54,48.65,38.26,50.14Z"></path> <path class="cls-22" d="M47.1,41.24a2.13,2.13,0,0,0-1.68-1,2.34,2.34,0,0,0-1.36.29h0l0,0a2.08,2.08,0,0,1-.42.26.46.46,0,0,1-.64-.13h0a12.77,12.77,0,0,0-5.7-.19,3.33,3.33,0,0,1-1.59-.29l-.39-.2h0a2.07,2.07,0,0,0-.62-.13h-.29a26.74,26.74,0,0,0-1.94,2.53,2.06,2.06,0,0,0,.91,1.07.7.7,0,0,1,.22,1h0a1.66,1.66,0,0,1-.13.23l-1.26,2.55a2.86,2.86,0,0,0-.32,1.2,12.45,12.45,0,0,0,1.81,1.46h.23s1.65-1.2,4.37.29a16.06,16.06,0,0,0,2.14.49c-1-6.22,1.78-7.94,1.78-7.94l.61.1c.94-3.08,4.34-1.55,4.34-1.55Z"></path> <path class="cls-22" d="M40.82,41.11s7.71,5.76,3.27,9l-5.6-.33s-4-1.71-4-2.23,1.19-5.22,1.71-5.9S40.82,41.11,40.82,41.11Z"></path> <path class="cls-16" d="M46.84,44.41h0a1.48,1.48,0,0,1,.23-1.2h0a2,2,0,0,0,.32-.87,1.94,1.94,0,0,0-.26-1.14S42.79,40.75,44,43a20.43,20.43,0,0,0,3.72,2.37C47.52,45,47,44.7,46.84,44.41Z"></path> <ellipse class="cls-25" cx="44.91" cy="42.48" rx="1.04" ry="1.17" transform="translate(-1.67 83.13) rotate(-84.51)"></ellipse> <path class="cls-22" d="M36.35,48.07s-.42-6.74,3.72-7.81a13.81,13.81,0,0,0-2.81.23s-2.08.29-3.7,3.92a1.66,1.66,0,0,1-.13.23l-1.26,2.55c-1.33,2.92,1.72,2.66,1.72,2.66s1.65-1.2,4.37.29c0,0,5,1.69,7.68-.45C45.94,49.69,39.65,51,36.35,48.07Z"></path> <path class="cls-22" d="M37.61,41.69a6.36,6.36,0,0,1,4.57,1s-3.37-1.2-4.89-.09Z"></path> <path class="cls-13" d="M43.51,40.72a1.7,1.7,0,0,1-.55,0h0a12.77,12.77,0,0,0-5.7-.19h-.2c-.29.42-.58.84-.81,1.13-.65.88-1.2,3.76.49,1.53s6.77-2.4,6.77-2.4Z"></path> </g> <polygon class="cls-16" points="37.22 55.19 39.78 57.4 40.2 55.71 42.21 58.21 42.73 55.52 43.9 57.4 45.13 53.96 40.72 54.45 37.22 55.19"></polygon> </g> <polygon class="cls-9" points="63.62 51.99 70.09 40.26 65.43 50.63 63.62 51.99"></polygon> </g> </g> </g> </svg> 