<?xml version="1.0" encoding="UTF-8"?> <!-- Generator: Adobe Illustrator 15.1.0, SVG Export Plug-In . SVG Version: 6.00 Build 0) --> <svg xmlns="http://www.w3.org/2000/svg" xmlns:xlink="http://www.w3.org/1999/xlink" id="Layer_1" x="0px" y="0px" width="482.402px" height="482.402px" viewBox="0 0 482.402 482.402" xml:space="preserve"> <g> <defs> <rect id="SVGID_1_" width="482.402" height="482.402"></rect> </defs> <clipPath id="SVGID_2_"> <use xlink:href="#SVGID_1_" overflow="visible"></use> </clipPath> <path clip-path="url(#SVGID_2_)" fill="#FFFFFF" d="M241.201,469.402c-60.956,0-118.261-23.736-161.362-66.838 C36.737,359.462,13,302.155,13,241.201c0-60.955,23.737-118.261,66.839-161.362C122.94,36.737,180.246,13,241.201,13 c60.955,0,118.261,23.737,161.361,66.839c43.103,43.101,66.839,100.407,66.839,161.362c0,60.954-23.736,118.261-66.839,161.363 C359.462,445.666,302.156,469.402,241.201,469.402"></path> <path clip-path="url(#SVGID_2_)" fill="#1A2E45" d="M241.201,26c118.852,0,215.2,96.349,215.2,215.201 s-96.349,215.201-215.2,215.201C122.349,456.402,26,360.053,26,241.201S122.349,26,241.201,26 M241.201,0 c-32.551,0-64.142,6.381-93.896,18.965c-28.724,12.15-54.517,29.538-76.66,51.681c-22.142,22.144-39.531,47.936-51.68,76.661 C6.381,177.06,0,208.65,0,241.201c0,32.55,6.381,64.141,18.966,93.894c12.149,28.725,29.538,54.518,51.68,76.66 c22.143,22.144,47.936,39.532,76.66,51.681c29.754,12.585,61.344,18.966,93.896,18.966c32.551,0,64.141-6.381,93.895-18.966 c28.724-12.148,54.518-29.537,76.66-51.681c22.142-22.143,39.531-47.936,51.68-76.66c12.585-29.753,18.966-61.344,18.966-93.894 c0-32.551-6.381-64.141-18.966-93.894c-12.148-28.725-29.538-54.517-51.68-76.661c-22.143-22.143-47.937-39.531-76.66-51.681 C305.342,6.381,273.752,0,241.201,0"></path> <path clip-path="url(#SVGID_2_)" fill="#1A2E45" d="M240.324,395.795c-84.758,0-153.713-68.955-153.713-153.713 c0-84.757,68.955-153.712,153.713-153.712c84.757,0,153.712,68.955,153.712,153.712 C394.036,326.84,325.081,395.795,240.324,395.795"></path> <path clip-path="url(#SVGID_2_)" fill="#FBD224" d="M240.324,90.871c83.512,0,151.212,67.7,151.212,151.212 c0,83.513-67.7,151.213-151.212,151.213c-83.513,0-151.213-67.7-151.213-151.213C89.111,158.57,156.811,90.871,240.324,90.871 M240.324,85.871c-41.727,0-80.955,16.249-110.459,45.753c-29.505,29.505-45.754,68.734-45.754,110.459 c0,41.726,16.249,80.955,45.754,110.459c29.504,29.505,68.732,45.754,110.459,45.754c41.726,0,80.955-16.249,110.459-45.754 c29.504-29.504,45.753-68.733,45.753-110.459c0-41.725-16.249-80.954-45.753-110.459C321.278,102.12,282.05,85.871,240.324,85.871"></path> <path clip-path="url(#SVGID_2_)" fill="#FBD224" d="M241.201,27.076c118.258,0,214.125,95.867,214.125,214.125 c0,118.257-95.867,214.125-214.125,214.125c-118.258,0-214.125-95.868-214.125-214.125 C27.076,122.943,122.943,27.076,241.201,27.076 M241.201,20.076c-29.85,0-58.809,5.848-86.074,17.38 c-26.332,11.138-49.979,27.08-70.284,47.386c-20.306,20.305-36.249,43.953-47.386,70.285 c-11.533,27.266-17.381,56.225-17.381,86.074c0,29.848,5.848,58.808,17.381,86.074c11.137,26.332,27.08,49.979,47.386,70.284 c20.305,20.307,43.952,36.249,70.284,47.388c27.266,11.531,56.225,17.38,86.074,17.38c29.849,0,58.808-5.849,86.073-17.38 c26.332-11.139,49.979-27.081,70.284-47.388c20.307-20.305,36.249-43.952,47.386-70.284c11.533-27.266,17.382-56.226,17.382-86.074 c0-29.849-5.849-58.808-17.382-86.074c-11.137-26.332-27.079-49.98-47.386-70.285c-20.305-20.306-43.952-36.248-70.284-47.386 C300.009,25.924,271.05,20.076,241.201,20.076"></path> </g> <g> <defs> <path id="SVGID_3_" d="M124.281,186.809c-1.239-0.547-2.604-0.867-4.035-0.867c-5.513,0-9.979,4.466-9.979,9.963 c0,5.016,3.729,9.177,8.583,9.852l-8.583,17.357l11.475-16.038c0.032,0.078-0.723,23.092-0.723,23.092l3.228-17.389 c9.579,19.383,32.963,46.204,54.402,60.477c2.315,1.544,4.129,3.181,5.529,4.902c2.7,1.043,5.495,1.655,8.275,2.119 c1.464,0.257,2.959,0.371,4.421,0.5c1.462,0.095,2.941,0.145,4.403,0.112c1.461-0.033,2.91-0.099,4.355-0.241 c1.462-0.128,2.893-0.354,4.322-0.596c1.432-0.258,2.846-0.53,4.244-0.898c1.396-0.372,2.796-0.757,4.163-1.239 c1.365-0.417,2.731-0.933,4.063-1.463c1.352-0.546,2.669-1.123,3.972-1.751c1.302-0.66,2.604-1.27,3.874-1.976 c1.303-0.643,2.538-1.398,3.824-2.106c1.302-0.659,2.491-1.51,3.779-2.218c1.267-0.724,2.472-1.573,3.758-2.297 c1.238-0.804,2.475-1.607,3.761-2.379c1.238-0.819,2.525-1.606,3.842-2.362l1.188-0.707l0.627,0.418l8.648,5.719l-8.729-2.264 c-0.821,0.98-1.688,1.943-2.588,2.876c-1.093,1.11-2.252,2.17-3.406,3.199c-1.205,1.011-2.428,1.976-3.682,2.925 c-1.284,0.898-2.571,1.816-3.921,2.619c-2.667,1.671-5.495,3.101-8.437,4.291c-1.462,0.595-2.957,1.141-4.451,1.638 c-1.511,0.5-3.022,0.966-4.581,1.334c-1.526,0.388-3.103,0.659-4.66,0.917c-1.576,0.241-3.151,0.403-4.725,0.546 c-3.166,0.162-6.349,0.08-9.465-0.321c-1.576-0.209-3.119-0.514-4.645-0.867c-1.511-0.368-3.021-0.805-4.485-1.351 c-2.571-0.916-5.062-2.104-7.312-3.631c-0.016,0.03-8.292,1.155-4.949,7.375c3.342,6.189,8.39,5.642,6.011,12.938 c-1.672,3.889-4.049,7.73-6.686,11.331c-5.45,7.458-14.078,13.966-13.229,17.888c39.157,48.189,127.275,41.487,160.745-1.497 c-0.513-6.219-10.27-9.191-17.115-24.363c1.879,0.579,4.74,1.447,4.74,1.334c0-0.11-8.165-13.274-8.438-14.593l5.224,0.356 c0,0-6.991-8.616-7.121-9.42l7.022-0.898c0,0-8.84-10.173-8.983-10.977l8.983,1.429l-9.834-11.858h4.629l-5.528-8.036 c-0.949-0.306-1.881-0.596-2.813-0.884c-1.204-0.386-2.41-0.755-3.602-1.125c-13.449-4.163-26.032-8.068-38.246-15.702 c-17.1-10.702-32.433-23.688-43.937-33.878l-23.112-11.217c-22.13-1.655-42.974-1.109-55.621,1.398l8.131-13.933l-12.439,14.96 c-0.884-0.191-1.093-0.754-1.093-0.754l0.851-18.416L124.281,186.809z"></path> </defs> <clipPath id="SVGID_4_"> <use xlink:href="#SVGID_3_" overflow="visible"></use> </clipPath> <rect x="105.267" y="165.161" clip-path="url(#SVGID_4_)" fill="#CF9239" width="226.235" height="201.585"></rect> </g> <g> <defs> <path id="SVGID_5_" d="M110.267,195.905c0,4.837,3.468,8.88,8.068,9.767c0.073-0.015,0.141-0.033,0.205-0.055c3-1,9-9,8-14 c-0.356-1.782-1.141-3.436-2.303-4.828c-1.228-0.535-2.576-0.847-3.991-0.847C114.733,185.942,110.267,190.408,110.267,195.905"></path> </defs> <clipPath id="SVGID_6_"> <use xlink:href="#SVGID_5_" overflow="visible"></use> </clipPath> <rect x="105.267" y="180.942" clip-path="url(#SVGID_6_)" fill="#FECC86" width="26.384" height="29.73"></rect> </g> <g> <defs> <path id="SVGID_7_" d="M246.02,135.638c-4.758,1.898-9.019,4.662-12.779,8.036c-1.188-0.449-2.44-0.69-3.76-0.69 c-6.507,0-13.289,5.511-16.859,13.724c-2.568,5.915-3.004,12.311-1.22,17.213c-9.354,2.023-30.31-0.418-35.823-0.418 c0.452,0.226,0.902,0.432,1.35,0.659l38.378,18.24l0.338,0.322c11.361,10.06,26.55,22.966,43.375,33.507 c10.562,6.589,48.278,18.416,50.128,18.852c-4.5-11.218,7.663-26.083,11.057-36.398c4.081-12.473,5.545-26.311,0.769-38.829 c-8.01-20.934-34.678-37.183-58.55-37.182C256.695,132.673,251.128,133.608,246.02,135.638"></path> </defs> <clipPath id="SVGID_8_"> <use xlink:href="#SVGID_7_" overflow="visible"></use> </clipPath> <rect x="170.579" y="127.672" clip-path="url(#SVGID_8_)" fill="#FBD224" width="158.382" height="122.411"></rect> </g> <g> <defs> <path id="SVGID_9_" d="M215.105,157.35c-2.457,5.674-2.859,11.78-1.06,16.346c1.077,2.731,2.878,4.709,5.19,5.705 c1.063,0.482,2.268,0.722,3.537,0.722c5.802,0,12.118-5.24,15.363-12.744c1.992-4.549,2.653-9.353,1.864-13.517 c-0.77-4.176-2.891-7.198-5.962-8.532c-1.125-0.482-2.33-0.725-3.552-0.725C224.701,144.605,218.383,149.845,215.105,157.35"></path> </defs> <clipPath id="SVGID_10_"> <use xlink:href="#SVGID_9_" overflow="visible"></use> </clipPath> <path clip-path="url(#SVGID_10_)" fill="#FFFFFF" d="M222.772,178.624c-1.075,0-2.057-0.198-2.917-0.589 c-1.969-0.848-3.486-2.536-4.414-4.89c-1.653-4.194-1.265-9.876,1.041-15.199c3.044-6.969,8.803-11.841,14.003-11.841 c1.03,0,2.026,0.204,2.961,0.604c2.597,1.129,4.403,3.767,5.077,7.425c0.736,3.883,0.109,8.37-1.763,12.642 C233.744,173.755,227.993,178.624,222.772,178.624"></path> <path clip-path="url(#SVGID_10_)" fill="#1A2E45" d="M230.485,147.605c0.826,0,1.623,0.163,2.356,0.477 c2.132,0.926,3.626,3.171,4.21,6.338c0.679,3.581,0.088,7.755-1.67,11.767c-2.74,6.337-8.042,10.937-12.609,10.937 c-0.847,0-1.641-0.158-2.297-0.456l-0.026-0.011l-0.027-0.011c-1.567-0.676-2.807-2.077-3.585-4.051 c-1.511-3.833-1.129-9.087,1.017-14.045C220.625,152.209,225.937,147.605,230.485,147.605 M230.485,144.605 c-5.784,0-12.102,5.239-15.38,12.745c-2.457,5.674-2.859,11.779-1.058,16.345c1.076,2.732,2.875,4.709,5.188,5.705 c1.062,0.482,2.268,0.724,3.537,0.724c5.802,0,12.118-5.241,15.362-12.746c1.994-4.548,2.654-9.352,1.865-13.516 c-0.77-4.177-2.891-7.198-5.962-8.532C232.912,144.848,231.707,144.605,230.485,144.605"></path> </g> <g> <path fill="#1A2E45" d="M69.958,236.651c-0.04,0.229-0.219,0.356-0.448,0.317l-25.227-4.354c-0.23-0.04-0.356-0.22-0.316-0.449 l1.741-10.09c0.977-5.657,4.966-8.472,9.935-7.614c4.893,0.844,7.739,4.878,6.77,10.497l-0.799,4.625 c-0.026,0.152,0.037,0.242,0.189,0.269l8.678,1.498c0.229,0.039,0.355,0.219,0.315,0.448L69.958,236.651z M54.673,220.079 c-2.103-0.363-3.761,0.807-4.17,3.177l-0.738,4.281c-0.026,0.152,0.037,0.242,0.189,0.269l6.536,1.128 c0.153,0.026,0.242-0.037,0.269-0.189l0.739-4.281C57.907,222.093,56.775,220.442,54.673,220.079z"></path> </g> <g> <path fill="#1A2E45" d="M75.746,199.415c-0.075,0.341-0.214,0.429-0.504,0.485l-10.409,2.352l-0.76,3.447 c-0.033,0.151,0.026,0.244,0.177,0.277l9.205,2.029c0.227,0.05,0.345,0.235,0.295,0.462l-1.061,4.811 c-0.051,0.228-0.235,0.346-0.462,0.295l-25-5.512c-0.228-0.05-0.345-0.235-0.295-0.462l2.263-10.265 c1.161-5.265,5.225-8.023,9.922-6.988c3.295,0.727,5.524,3.045,6.148,6.162l11.27-2.837c0.253-0.063,0.455,0.1,0.396,0.365 L75.746,199.415z M57.89,195.915c-1.932-0.426-3.483,0.662-3.95,2.783l-1.003,4.545c-0.033,0.151,0.026,0.244,0.178,0.277 l5.946,1.312c0.152,0.033,0.244-0.026,0.277-0.177l1.002-4.545C60.808,197.988,59.859,196.349,57.89,195.915z"></path> </g> <g> <path fill="#1A2E45" d="M53.461,182.657c-0.221-0.072-0.32-0.268-0.248-0.49l1.532-4.681c0.072-0.222,0.269-0.321,0.489-0.249 l24.331,7.962c0.221,0.072,0.32,0.268,0.248,0.49l-1.532,4.681c-0.072,0.222-0.269,0.321-0.489,0.249L53.461,182.657z"></path> </g> <g> <path fill="#1A2E45" d="M83.888,174.943c-0.108,0.249-0.313,0.329-0.557,0.307l-26.776-2.569c-0.28-0.038-0.36-0.242-0.251-0.491 l2.021-4.619c0.108-0.249,0.278-0.344,0.558-0.307l17.964,2.101l0.046-0.106l-13.797-11.625c-0.217-0.179-0.262-0.369-0.153-0.618 l2.006-4.584c0.093-0.213,0.297-0.292,0.516-0.113l20.06,17.921c0.183,0.164,0.262,0.369,0.169,0.582L83.888,174.943z"></path> </g> <g> <path fill="#1A2E45" d="M71.016,142.781c-0.159-0.186-0.213-0.399-0.073-0.632l2.511-4.193c0.14-0.233,0.353-0.286,0.592-0.233 l26.547,5.499c0.239,0.053,0.332,0.199,0.193,0.432l-2.591,4.326c-0.14,0.233-0.319,0.307-0.592,0.233l-4.737-1.074l-4.742,7.92 l3.202,3.636c0.192,0.206,0.213,0.398,0.073,0.632l-2.611,4.359c-0.139,0.233-0.313,0.22-0.471,0.034L71.016,142.781z M87.908,145.979l-9.454-2.181l-0.06,0.1l6.385,7.305L87.908,145.979z"></path> </g> <g> <path fill="#1A2E45" d="M90.922,135.05c-3.201-2.518-4.173-3.479-5.153-4.991c-2.521-3.759-2.143-7.754,0.711-11.383 c2.757-3.506,6.479-4.724,10.286-3.605c0.225,0.029,0.329,0.209,0.246,0.44l-1.12,4.498c-0.053,0.255-0.232,0.36-0.488,0.308 c-1.797-0.476-3.57-0.292-4.937,1.446c-1.271,1.616-1.233,3.324-0.159,4.908c0.57,0.843,1.23,1.51,4.188,3.836 c2.957,2.326,3.761,2.81,4.715,3.166c1.793,0.669,3.461,0.304,4.732-1.312c1.367-1.738,1.127-3.505,0.242-5.139 c-0.111-0.236-0.053-0.436,0.184-0.547l4.107-2.148c0.204-0.135,0.405-0.076,0.485,0.135c1.985,3.437,1.679,7.34-1.079,10.846 c-2.854,3.628-6.646,4.938-10.895,3.374C95.286,138.286,94.124,137.568,90.922,135.05z"></path> </g> <g> <path fill="#1A2E45" d="M119.448,121.671c-0.164,0.163-0.385,0.162-0.547-0.003l-7.121-7.197l-16.426-5.52 c-0.191-0.083-0.273-0.276-0.08-0.467l3.585-3.546c0.193-0.191,0.413-0.244,0.687-0.133l10.156,3.483l0.082-0.082l-3.373-10.193 c-0.107-0.275-0.051-0.494,0.142-0.685l3.475-3.437c0.192-0.191,0.412-0.135,0.466,0.085l5.341,16.485l7.12,7.197 c0.163,0.165,0.162,0.384-0.003,0.548L119.448,121.671z"></path> </g> <g> <path fill="#1A2E45" d="M121.26,85.376c-0.141-0.187-0.109-0.403,0.078-0.542l3.944-2.95c0.187-0.139,0.403-0.109,0.544,0.078 l15.332,20.501c0.139,0.186,0.107,0.403-0.08,0.542l-3.944,2.95c-0.187,0.14-0.403,0.108-0.542-0.078L121.26,85.376z"></path> </g> <g> <path fill="#1A2E45" d="M142.128,98.02c-0.214-0.051-0.422-0.243-0.376-0.543l0.763-4.415c0.031-0.247,0.229-0.368,0.477-0.336 c2.217,0.285,4.924,0.181,7.309-1.271c2.353-1.432,3.012-3.333,2.043-4.923c-0.807-1.325-2.105-1.669-5.012-0.4l-1.293,0.561 c-4.955,2.154-8.816,1.554-11.238-2.421c-2.521-4.141-1.081-8.787,3.789-11.752c2.981-1.815,6.31-2.615,9.085-2.308 c0.279,0.011,0.394,0.124,0.368,0.457l-0.185,4.246c-0.032,0.246-0.177,0.38-0.403,0.381c-2.408-0.077-4.428,0.335-6.283,1.464 c-1.988,1.21-2.389,2.863-1.521,4.288c0.786,1.292,2.218,1.555,5.023,0.347l1.294-0.561c5.021-2.195,8.764-1.567,11.245,2.508 c2.48,4.075,1.303,8.925-4.528,12.476C149.172,97.955,144.911,98.641,142.128,98.02z"></path> </g> <g> <path fill="#1A2E45" d="M169.438,58.128c-0.01-0.246,0.081-0.445,0.336-0.541l4.575-1.716c0.255-0.095,0.454-0.005,0.608,0.186 l17.345,20.836c0.153,0.19,0.136,0.363-0.118,0.458l-4.721,1.771c-0.255,0.095-0.441,0.041-0.608-0.186l-3.038-3.791l-8.644,3.242 l0.241,4.84c0.023,0.281-0.081,0.444-0.336,0.54l-4.757,1.784c-0.255,0.096-0.382-0.022-0.391-0.268L169.438,58.128z M180.66,71.152l-6.038-7.595l-0.109,0.041l0.446,9.692L180.66,71.152z"></path> </g> <g> <path fill="#1A2E45" d="M201.446,64.985l-2.675-16.069c-0.038-0.23,0.089-0.408,0.318-0.446l4.859-0.809 c0.229-0.038,0.407,0.088,0.446,0.319l2.701,16.222c0.516,3.1,2.531,4.573,5.17,4.133c2.603-0.433,4.031-2.479,3.516-5.579 l-2.701-16.222c-0.039-0.23,0.089-0.408,0.318-0.446l4.859-0.809c0.229-0.039,0.408,0.088,0.446,0.318l2.676,16.07 c1.077,6.466-2.47,10.674-8.285,11.642C207.241,74.283,202.523,71.451,201.446,64.985z"></path> </g> <g> <path fill="#1A2E45" d="M226.338,44.983c-0.006-0.233,0.146-0.392,0.379-0.397l4.653-0.109c0.271-0.006,0.507,0.105,0.668,0.373 l9.694,16.378l0.193-0.004l-0.387-16.596c-0.006-0.233,0.146-0.392,0.379-0.397l4.381-0.103c0.232-0.005,0.393,0.146,0.396,0.379 l0.598,25.593c0.006,0.232-0.145,0.392-0.377,0.397l-4.615,0.108c-0.311,0.007-0.506-0.104-0.668-0.373l-9.732-16.339l-0.194,0.005 l0.387,16.558c0.006,0.232-0.146,0.391-0.379,0.396l-4.381,0.103c-0.233,0.005-0.393-0.146-0.397-0.379L226.338,44.983z"></path> </g> <g> <path fill="#1A2E45" d="M253.707,45.026c0.019-0.232,0.186-0.374,0.417-0.356l4.911,0.38c0.231,0.018,0.375,0.184,0.356,0.416 L257.42,70.99c-0.019,0.231-0.186,0.374-0.417,0.356l-4.911-0.38c-0.231-0.018-0.375-0.185-0.356-0.416L253.707,45.026z"></path> </g> <g> <path fill="#1A2E45" d="M268.475,72.795c-0.268-0.046-0.393-0.226-0.43-0.468l-3.868-26.62c-0.03-0.281,0.149-0.407,0.417-0.361 l4.968,0.865c0.268,0.047,0.4,0.189,0.431,0.47l2.229,17.948l0.113,0.02l8.014-16.164c0.122-0.254,0.295-0.343,0.563-0.296 l4.93,0.858c0.229,0.04,0.355,0.22,0.232,0.474l-12.641,23.745c-0.115,0.216-0.295,0.342-0.523,0.302L268.475,72.795z"></path> </g> <g> <path fill="#1A2E45" d="M291.313,50.899c0.068-0.222,0.264-0.324,0.484-0.255l16.156,5c0.223,0.069,0.324,0.263,0.256,0.485 l-1.229,3.965c-0.068,0.222-0.262,0.325-0.484,0.256l-10.855-3.36c-0.148-0.046-0.246,0.005-0.293,0.152l-1.549,5.003 c-0.045,0.147,0.007,0.245,0.155,0.291l9.04,2.798c0.223,0.069,0.325,0.264,0.256,0.486l-1.215,3.927 c-0.069,0.223-0.264,0.325-0.486,0.256l-9.04-2.798c-0.148-0.046-0.246,0.005-0.292,0.153l-1.617,5.225 c-0.046,0.147,0.006,0.245,0.154,0.291l10.855,3.36c0.224,0.068,0.325,0.263,0.256,0.485l-1.227,3.965 c-0.068,0.222-0.262,0.325-0.485,0.256l-16.155-5.001c-0.222-0.068-0.324-0.263-0.256-0.484L291.313,50.899z"></path> </g> <g> <path fill="#1A2E45" d="M316.876,88.238c-0.317-0.146-0.375-0.3-0.367-0.595l-0.087-10.672l-3.206-1.475 c-0.142-0.064-0.244-0.027-0.31,0.113l-3.938,8.564c-0.097,0.211-0.302,0.287-0.515,0.189l-4.475-2.059 c-0.211-0.097-0.287-0.303-0.19-0.514l10.698-23.258c0.097-0.212,0.303-0.287,0.514-0.19l9.551,4.393 c4.897,2.253,6.729,6.81,4.72,11.18c-1.41,3.065-4.149,4.751-7.327,4.698l0.377,11.616c0.009,0.261-0.194,0.423-0.44,0.31 L316.876,88.238z M324.09,71.533c0.826-1.797,0.093-3.544-1.88-4.452l-4.229-1.944c-0.142-0.065-0.245-0.026-0.31,0.114 l-2.545,5.532c-0.064,0.142-0.026,0.244,0.115,0.31l4.229,1.944C321.443,73.944,323.247,73.366,324.09,71.533z"></path> </g> <g> <path fill="#1A2E45" d="M325.326,88.814c-0.048-0.215,0.033-0.484,0.32-0.578l4.297-1.271c0.234-0.082,0.432,0.043,0.512,0.278 c0.727,2.114,2.02,4.494,4.379,5.989c2.326,1.475,4.321,1.223,5.318-0.35c0.83-1.311,0.563-2.628-1.862-4.67l-1.075-0.911 c-4.127-3.487-5.301-7.216-2.809-11.147c2.596-4.096,7.397-4.863,12.215-1.812c2.947,1.868,5.139,4.497,6.094,7.122 c0.113,0.256,0.063,0.408-0.246,0.533l-3.889,1.715c-0.234,0.08-0.419,0.01-0.521-0.192c-0.996-2.193-2.262-3.821-4.096-4.983 c-1.966-1.246-3.625-0.875-4.518,0.534c-0.811,1.278-0.412,2.679,1.916,4.659l1.074,0.91c4.193,3.529,5.289,7.162,2.734,11.192 c-2.553,4.03-7.424,5.122-13.191,1.468C328.506,95.1,326.004,91.585,325.326,88.814z"></path> </g> <g> <path fill="#1A2E45" d="M365.383,88.744c0.209-0.128,0.428-0.147,0.635,0.028l3.742,3.143c0.209,0.174,0.229,0.393,0.139,0.621 l-9.633,25.341c-0.09,0.228-0.249,0.297-0.457,0.122l-3.861-3.242c-0.209-0.176-0.252-0.363-0.137-0.621l1.81-4.508l-7.069-5.938 l-4.097,2.588c-0.234,0.157-0.429,0.146-0.636-0.028l-3.891-3.268c-0.209-0.175-0.168-0.343,0.041-0.472L365.383,88.744z M359.551,104.917l3.648-8.99l-0.088-0.074L354.887,101L359.551,104.917z"></path> </g> <g> <path fill="#1A2E45" d="M380.568,102.307c0.172-0.157,0.391-0.147,0.548,0.023l3.33,3.63c0.157,0.171,0.147,0.391-0.023,0.548 l-15.234,13.977c-0.114,0.105-0.118,0.215-0.014,0.329l7.866,8.574c0.158,0.172,0.148,0.391-0.023,0.548l-3.173,2.91 c-0.171,0.158-0.39,0.148-0.548-0.023l-11.616-12.661c-0.157-0.171-0.147-0.391,0.024-0.548L380.568,102.307z"></path> </g> <g> <path fill="#1A2E45" d="M388.203,154.511c-0.188-0.295-0.15-0.455,0.018-0.699l5.746-8.991l-1.885-2.985 c-0.082-0.131-0.189-0.155-0.32-0.072l-7.972,5.029c-0.196,0.125-0.41,0.077-0.534-0.121l-2.629-4.165 c-0.125-0.196-0.076-0.411,0.121-0.534l21.648-13.663c0.197-0.124,0.412-0.075,0.535,0.121l5.61,8.89 c2.878,4.56,1.928,9.378-2.14,11.945c-2.854,1.801-6.069,1.72-8.704-0.058l-6.018,9.943c-0.134,0.222-0.394,0.249-0.538,0.019 L388.203,154.511z M403.359,144.443c1.673-1.057,2.01-2.92,0.852-4.758l-2.484-3.936c-0.083-0.131-0.19-0.156-0.322-0.072 l-5.148,3.25c-0.132,0.082-0.156,0.189-0.073,0.32l2.484,3.937C399.826,145.021,401.654,145.519,403.359,144.443z"></path> </g> <g> <path fill="#1A2E45" d="M415.806,150.842c0.208-0.104,0.417-0.035,0.521,0.173l2.205,4.404c0.104,0.208,0.034,0.416-0.174,0.521 l-22.893,11.458c-0.208,0.104-0.416,0.035-0.521-0.173l-2.204-4.405c-0.104-0.208-0.035-0.416,0.173-0.521L415.806,150.842z"></path> </g> <g> <path fill="#1A2E45" d="M409.271,165.986c3.66-1.396,5.093-1.777,7.003-1.884c4.471-0.252,7.764,2.394,9.436,6.779 c1.756,4.602,0.621,8.48-1.908,10.774c-0.176,0.191-0.407,0.239-0.6,0.063l-3.109-3.257c-0.17-0.225-0.166-0.434-0.012-0.576 c1.293-1.613,1.692-3.178,0.918-5.207c-0.802-2.102-2.35-3.006-4.261-2.899c-0.98,0.042-2.182,0.376-5.406,1.606 c-3.226,1.23-4.381,1.795-5.14,2.417c-1.496,1.193-1.999,2.921-1.184,5.06c0.705,1.848,2.221,3.098,4.045,2.982 c0.685-0.054,1.486-0.235,2.538-0.637c0.146-0.055,0.19-0.156,0.135-0.301l-1.272-3.334c-0.082-0.217,0.007-0.418,0.225-0.5 l3.479-1.328c0.218-0.083,0.418,0.008,0.501,0.225l3.235,8.479c0.083,0.219-0.007,0.419-0.225,0.502l-2.029,0.774 c-2.174,0.829-4.272,1.422-5.779,1.498c-4.42,0.275-7.932-2.288-9.59-6.637c-1.674-4.385-0.979-8.551,2.522-11.342 C404.289,168.052,405.61,167.381,409.271,165.986z"></path> </g> <g> <path fill="#1A2E45" d="M430.691,187.623c0.227-0.052,0.412,0.065,0.463,0.292l1.089,4.804c0.052,0.228-0.065,0.412-0.293,0.464 l-9.646,2.185c-0.151,0.035-0.21,0.128-0.175,0.279l1.902,8.397c0.033,0.152,0.127,0.211,0.277,0.177l9.646-2.185 c0.228-0.052,0.413,0.064,0.465,0.292l1.088,4.804c0.052,0.227-0.065,0.412-0.293,0.464l-24.967,5.655 c-0.227,0.052-0.413-0.065-0.465-0.292l-1.088-4.804c-0.051-0.228,0.066-0.413,0.293-0.464l9.911-2.245 c0.151-0.034,0.21-0.128,0.176-0.279l-1.902-8.397c-0.034-0.151-0.127-0.211-0.278-0.177l-9.912,2.245 c-0.227,0.052-0.412-0.064-0.463-0.292l-1.089-4.804c-0.052-0.227,0.065-0.412,0.292-0.464L430.691,187.623z"></path> </g> <g> <path fill="#1A2E45" d="M410.916,223.307c-0.021-0.232,0.121-0.401,0.352-0.422l20.592-1.85c0.154-0.014,0.225-0.097,0.211-0.252 l-0.598-6.645c-0.021-0.231,0.121-0.4,0.353-0.422l4.288-0.385c0.232-0.021,0.4,0.12,0.421,0.353l1.745,19.432 c0.021,0.232-0.119,0.4-0.352,0.421l-4.288,0.385c-0.231,0.021-0.4-0.119-0.421-0.351l-0.598-6.646 c-0.014-0.154-0.098-0.225-0.252-0.211l-20.592,1.85c-0.23,0.021-0.399-0.12-0.42-0.352L410.916,223.307z"></path> </g> <g> <path fill="#1A2E45" d="M120.751,362.99c0.176-0.211,0.434-0.234,0.645-0.059l4.183,3.493c0.281,0.235,0.369,0.487,0.269,0.821 l-5.343,18.686l0.141,0.118l17.328-8.678c0.311-0.157,0.575-0.117,0.855,0.118l4.112,3.434c0.211,0.176,0.234,0.435,0.058,0.645 l-19.371,23.199c-0.176,0.211-0.434,0.234-0.645,0.058l-3.972-3.316c-0.21-0.177-0.234-0.435-0.058-0.646l11.241-13.462 l-0.141-0.117l-12.852,6.391c-0.405,0.198-0.733,0.162-1.049-0.103l-2.425-2.024c-0.316-0.265-0.41-0.581-0.287-1.014l3.995-13.786 l-0.141-0.117l-11.241,13.461c-0.176,0.211-0.434,0.234-0.645,0.059l-3.972-3.316c-0.211-0.176-0.234-0.435-0.058-0.646 L120.751,362.99z"></path> </g> <g> <path fill="#1A2E45" d="M136.788,400.446l9.534-16.703c0.136-0.238,0.387-0.308,0.625-0.171l5.051,2.883 c0.239,0.136,0.307,0.387,0.17,0.625l-9.625,16.862c-1.838,3.222-1.093,6.072,1.651,7.639c2.705,1.543,5.539,0.735,7.377-2.485 l9.625-16.863c0.136-0.238,0.386-0.307,0.625-0.171l5.051,2.883c0.238,0.136,0.307,0.386,0.17,0.624l-9.534,16.703 c-3.836,6.723-10.219,7.93-16.265,4.479C135.159,413.278,132.952,407.167,136.788,400.446z"></path> </g> <g> <path fill="#1A2E45" d="M170.946,397.114c0.098-0.256,0.335-0.361,0.591-0.263l5.428,2.087c0.257,0.099,0.362,0.336,0.264,0.592 l-8.761,22.78c-0.066,0.172-0.014,0.289,0.157,0.355l12.822,4.931c0.256,0.099,0.361,0.336,0.263,0.593l-1.825,4.744 c-0.098,0.256-0.335,0.361-0.591,0.263l-18.934-7.282c-0.256-0.099-0.361-0.336-0.263-0.592L170.946,397.114z"></path> </g> <g> <path fill="#1A2E45" d="M193.189,405.38c0.062-0.268,0.282-0.405,0.549-0.343l5.666,1.311c0.267,0.062,0.404,0.282,0.343,0.55 l-5.501,23.779c-0.042,0.179,0.027,0.288,0.206,0.329l13.384,3.097c0.268,0.062,0.405,0.281,0.343,0.549l-1.146,4.953 c-0.062,0.267-0.281,0.404-0.549,0.342l-19.764-4.572c-0.268-0.062-0.405-0.281-0.343-0.549L193.189,405.38z"></path> </g> <g> <path fill="#1A2E45" d="M218.064,441.245c-0.318-0.032-0.482-0.233-0.546-0.517l-6.803-31.019c-0.06-0.327,0.141-0.491,0.46-0.459 l5.922,0.599c0.319,0.032,0.488,0.188,0.546,0.515l4.141,20.947l0.137,0.014l8.069-19.712c0.124-0.309,0.319-0.427,0.638-0.395 l5.877,0.594c0.273,0.028,0.438,0.229,0.313,0.538l-12.877,29.028c-0.119,0.264-0.319,0.428-0.593,0.4L218.064,441.245z"></path> </g> <g> <path fill="#1A2E45" d="M245.313,411.896c0.079-0.277,0.255-0.469,0.575-0.482l5.764-0.25c0.32-0.014,0.512,0.162,0.616,0.434 l11.824,29.74c0.103,0.27,0.02,0.457-0.301,0.471l-5.947,0.256c-0.32,0.014-0.509-0.115-0.614-0.432l-2.02-5.367l-10.889,0.471 l-1.503,5.52c-0.077,0.324-0.255,0.469-0.574,0.482l-5.994,0.258c-0.319,0.015-0.419-0.164-0.339-0.442L245.313,411.896z M253.134,430.626l-3.992-10.736l-0.139,0.006l-3.052,11.041L253.134,430.626z"></path> </g> <g> <path fill="#1A2E45" d="M264.656,410.653c-0.056-0.269,0.086-0.485,0.356-0.541l11.346-2.341c5.337-1.101,9.531,0.42,11.954,4.689 c0.89,1.592,1.511,3.241,2.537,8.219c1.026,4.979,1.109,6.738,0.923,8.553c-0.536,4.881-3.787,7.935-9.123,9.035l-11.347,2.341 c-0.27,0.056-0.485-0.087-0.541-0.356L264.656,410.653z M276.504,433.41l3.453-0.712c3.05-0.629,4.704-1.905,4.957-4.528 c0.129-0.962,0.068-2.165-0.746-6.112c-0.813-3.946-1.234-5.075-1.732-5.907c-1.271-2.31-3.296-2.827-6.345-2.198l-3.454,0.712 c-0.179,0.037-0.25,0.146-0.213,0.324l3.756,18.209C276.217,433.376,276.325,433.447,276.504,433.41z"></path> </g> <g> <path fill="#1A2E45" d="M298.399,428.134c-0.085-0.262,0.033-0.492,0.294-0.577l5.184-1.68c0.263-0.085,0.493,0.033,0.578,0.294 l1.693,5.229c0.084,0.261-0.033,0.491-0.295,0.576l-5.184,1.68c-0.262,0.085-0.492-0.033-0.576-0.294L298.399,428.134z"></path> </g> <g> <path fill="#1A2E45" d="M301.256,401.456c-0.114-0.25-0.024-0.493,0.226-0.607l4.996-2.288c0.291-0.134,0.598-0.122,0.898,0.092 l18.152,13.243l0.208-0.095l-8.16-17.819c-0.115-0.249-0.024-0.493,0.226-0.607l4.704-2.155c0.25-0.113,0.492-0.022,0.606,0.227 l12.585,27.479c0.114,0.249,0.024,0.492-0.225,0.606l-4.955,2.27c-0.334,0.152-0.599,0.122-0.898-0.093l-18.176-13.182 l-0.208,0.096l8.142,17.777c0.114,0.249,0.025,0.492-0.226,0.607l-4.704,2.154c-0.25,0.114-0.492,0.023-0.606-0.227 L301.256,401.456z"></path> </g> <g> <path fill="#1A2E45" d="M326.757,389.259c-0.152-0.229-0.101-0.482,0.129-0.635l16.66-11.002c0.229-0.15,0.483-0.099,0.635,0.131 l2.7,4.088c0.151,0.229,0.099,0.482-0.13,0.635l-11.196,7.393c-0.152,0.102-0.179,0.229-0.077,0.381l3.406,5.158 c0.102,0.154,0.229,0.18,0.381,0.078l9.322-6.156c0.23-0.152,0.483-0.1,0.635,0.129l2.675,4.051 c0.151,0.229,0.101,0.483-0.13,0.635l-9.322,6.158c-0.152,0.1-0.18,0.227-0.078,0.379l3.559,5.389 c0.1,0.152,0.228,0.179,0.38,0.078l11.196-7.394c0.229-0.151,0.482-0.101,0.635,0.13l2.699,4.088c0.151,0.229,0.1,0.483-0.13,0.635 l-16.659,11.002c-0.23,0.151-0.484,0.099-0.635-0.131L326.757,389.259z"></path> </g> <g> <path fill="#1A2E45" d="M372.438,393.958c-0.206,0.182-0.465,0.165-0.646-0.04l-16.176-18.277c-0.121-0.137-0.25-0.145-0.389-0.023 l-5.897,5.221c-0.205,0.182-0.464,0.166-0.646-0.039l-3.368-3.807c-0.182-0.206-0.166-0.465,0.039-0.646l17.248-15.266 c0.206-0.182,0.465-0.166,0.646,0.039l3.369,3.807c0.182,0.205,0.166,0.465-0.039,0.646l-5.898,5.22 c-0.137,0.122-0.145,0.251-0.024,0.388l16.176,18.277c0.183,0.206,0.167,0.465-0.038,0.646L372.438,393.958z"></path> </g> <g> <defs> <rect id="SVGID_11_" width="482.402" height="482.402"></rect> </defs> <clipPath id="SVGID_12_"> <use xlink:href="#SVGID_11_" overflow="visible"></use> </clipPath> <rect x="67.096" y="303.617" transform="matrix(0.9299 0.3679 -0.3679 0.9299 120.405 -3.5893)" clip-path="url(#SVGID_12_)" fill="#1A2E45" width="5.041" height="20.75"></rect> <rect x="67.099" y="303.618" transform="matrix(0.368 -0.9298 0.9298 0.368 -247.9586 263.1653)" clip-path="url(#SVGID_12_)" fill="#1A2E45" width="5.035" height="20.748"></rect> <rect x="409.234" y="303.617" transform="matrix(-0.9298 0.368 -0.368 -0.9298 910.2212 454.4187)" clip-path="url(#SVGID_12_)" fill="#1A2E45" width="5.103" height="20.75"></rect> <rect x="409.27" y="303.616" transform="matrix(-0.3679 -0.9299 0.9299 -0.3679 271.2975 812.4105)" clip-path="url(#SVGID_12_)" fill="#1A2E45" width="5.03" height="20.751"></rect> </g> </svg> 