<?xml version="1.0" encoding="UTF-8"?> <svg xmlns="http://www.w3.org/2000/svg" xmlns:xlink="http://www.w3.org/1999/xlink" width="112px" height="112px" viewBox="0 0 112 112" version="1.1"><!-- Generator: Sketch 57.1 (83088) - https://sketch.com --><title>Atom / Logo / Provider / PIA</title><desc>Created with Sketch.</desc><defs><rect id="path-1" x="0" y="0" width="112" height="112" rx="3"></rect><linearGradient x1="50%" y1="99.881295%" x2="50%" y2="8.74460432%" id="linearGradient-3"><stop stop-color="#4BB749" offset="0%"></stop><stop stop-color="#79B481" offset="100%"></stop></linearGradient><radialGradient cx="51.1418983%" cy="55.2282158%" fx="51.1418983%" fy="55.2282158%" r="46.8916175%" gradientTransform="translate(0.511419,0.552282),scale(0.118914,1.000000),translate(-0.511419,-0.552282)" id="radialGradient-4"><stop stop-color="#000000" offset="0%"></stop><stop stop-color="#030303" offset="19.01%"></stop><stop stop-color="#0C0C0C" offset="32.36%"></stop><stop stop-color="#1C1C1C" offset="43.97%"></stop><stop stop-color="#323232" offset="54.61%"></stop><stop stop-color="#4E4E4E" offset="64.56%"></stop><stop stop-color="#717171" offset="74.02%"></stop><stop stop-color="#9A9A9A" offset="83.09%"></stop><stop stop-color="#C9C9C9" offset="91.61%"></stop><stop stop-color="#FEFEFE" offset="99.85%"></stop><stop stop-color="#FFFFFF" offset="100%"></stop></radialGradient><linearGradient x1="-48.6516854%" y1="-66.5329176%" x2="56.5617978%" y2="57.7449137%" id="linearGradient-5"><stop stop-color="#23FF16" offset="0%"></stop><stop stop-color="#189A33" offset="100%"></stop></linearGradient><linearGradient x1="174.299229%" y1="-115.995781%" x2="24.2992292%" y2="84.3839662%" id="linearGradient-6"><stop stop-color="#23FF16" offset="0%"></stop><stop stop-color="#189A33" offset="100%"></stop></linearGradient></defs><g id="Atom-/-Logo-/-Provider-/-PIA" stroke="none" stroke-width="1" fill="none" fill-rule="evenodd"><mask id="mask-2" fill="white"><use xlink:href="#path-1"></use></mask><g id="Mask" fill-rule="nonzero"></g><g id="pia-mascot" mask="url(#mask-2)" fill-rule="nonzero"><g transform="translate(32.000000, 12.000000)"><path d="M43.9637634,19.5600943 L43.9637634,19.5616654 L41.7709983,19.5616654 L41.7709983,17.6025137 C41.7709983,7.88059702 33.8424623,0 24.060686,0 C14.2804816,0 6.35194567,7.88059702 6.35194567,17.6025137 L6.35194567,19.5616654 L4.16232421,19.5616654 C1.86267152,19.5616654 0,21.4124116 0,23.6983504 L0,39.8586017 C0.0047156241,40.9347997 0.0691624868,41.7172035 0.490424907,42.2875098 C0.927406073,42.8593873 1.66147156,43.0636292 2.75706822,43.060487 L6.27963942,43.060487 L6.81722057,51.5695209 C6.81722057,51.589945 6.8156487,51.6229379 6.8156487,51.6653575 C6.81722057,51.8915947 6.84237058,52.4084839 7.12845176,52.904949 C7.40981734,53.4061273 8.00084223,53.8538884 8.95654204,53.846033 L17.9083685,53.846033 L22.5564019,48.9175177 L26.030245,48.9175177 L30.5242348,54 L30.6499848,54 C30.6499848,54 32.2768751,54 34.0798153,54 C35.8796119,54 37.8554584,54 38.5517989,54 L38.5533708,54 C39.2449956,53.9968578 39.8784612,54.0141399 40.4270454,53.6653575 C40.9740578,53.3087195 41.3025796,52.6315789 41.461339,51.451689 C41.6924046,49.7360565 41.7458483,45.0416339 41.8511638,43.0620582 L45.3705914,43.0620582 C46.4536131,43.0589159 47.1609566,42.9552239 47.6199441,42.461901 C48.0632127,41.9591516 48.1213721,41.2427337 48.1276596,40.1681068 L48.1276596,23.6983504 C48.1245159,21.4124116 46.2618443,19.5616654 43.9637634,19.5600943 Z" id="Shape" fill="#349334"></path><path d="M47.6154486,40.2010825 C47.6217394,41.2603487 47.5132233,41.8528462 47.2521558,42.1263066 C47.008388,42.4107683 46.475244,42.5490701 45.4136742,42.5459269 L41.3639821,42.5459269 L41.3498278,42.8068144 C41.2523206,44.673889 41.1862674,49.6684706 40.9519357,51.4176742 C40.7993842,52.5460913 40.5052901,53.0238613 40.1640151,53.2438869 C39.8211674,53.4749138 39.2943142,53.4922015 38.5928918,53.4893617 L38.5913191,53.4893617 C37.3111445,53.4893617 31.7233557,53.4893617 30.8111921,53.4893617 L26.3148543,48.4033232 L22.3500877,48.4033232 L17.698053,53.3350404 L8.98059928,53.3350404 C8.18638782,53.3271824 7.84825818,53.0222897 7.63279883,52.6702487 C7.42520296,52.3134929 7.39217634,51.8765849 7.39374904,51.7037076 C7.39374904,51.6502728 7.39532174,51.6282702 7.39532174,51.6282702 L7.39689443,51.6062676 L6.82128771,42.5443553 L2.77945906,42.5443553 C1.72732545,42.5427837 1.22249004,42.3494754 0.955131726,41.991148 C0.672046451,41.6296774 0.571393908,40.9491696 0.574468085,39.8930465 L0.574468085,23.7290215 C0.577684692,21.7472193 2.19127076,20.1457471 4.18544925,20.1426038 L6.93294912,20.1426038 L6.93294912,17.6311685 C6.94867608,8.21092875 14.6155689,0.590184201 24.0957803,0.574468085 C33.5744189,0.590184201 41.2428845,8.21092875 41.2601842,17.6311685 L41.2601842,20.1426038 L44.0092568,20.1426038 C46.0018626,20.1457471 47.6138758,21.7472193 47.6170212,23.7290215 L47.6170212,40.2010825 L47.6154486,40.2010825 Z" id="Shape" fill="#4BB749"></path><rect id="Rectangle-path" fill="#118011" x="7.40425532" y="42.0638298" width="33.319149" height="1.10425532"></rect><polygon id="Shape" fill="#118011" points="6.89361702 42.4468085 6.89361702 21.5744681 7.4569149 21.5744681 7.4569149 42.4468085"></polygon><polygon id="Shape" fill="#118011" points="40.787234 42.4468085 40.787234 21.5744681 41.350532 21.5744681 41.350532 42.4468085"></polygon><ellipse id="Oval" fill="url(#linearGradient-3)" cx="23.8085107" cy="26.0425532" rx="11.9361702" ry="2.17021277"></ellipse><path d="M34.9148936,20.4893618 L34.9148936,17.3064248 C34.9148936,11.3090191 30.0434426,6.44680851 24.0327006,6.44680851 C18.0219586,6.44680851 13.1489362,11.3090191 13.1489362,17.3064248 L13.1489362,20.4893618 L34.9148936,20.4893618 Z" id="Shape" fill="#FFFFFF"></path><rect id="Rectangle-path" fill="url(#radialGradient-4)" x="19.4680851" y="17.1702127" width="9.70212766" height="1.15372341"></rect><circle id="Oval" fill="#000000" cx="20.4574468" cy="12.3510638" r="2.0106383"></circle><circle id="Oval" fill="#000000" cx="27.606383" cy="12.3510638" r="2.0106383"></circle><rect id="Rectangle-path" fill="#FFFFFF" x="20.1702128" y="32.6170213" width="7.27659574" height="5.42553192"></rect><path d="M21.2935789,32.0425532 C21.6216472,30.8966057 22.6388162,30.0653241 23.8412104,30.0637587 C25.0436046,30.0653241 26.0607735,30.8966057 26.3904116,32.0425532 L27.2553192,32.0425532 C26.9068446,30.4426101 25.5192252,29.2340425 23.8396407,29.2340425 C22.1600561,29.235608 20.7740065,30.4426101 20.425532,32.0425532 L21.2935789,32.0425532 Z" id="Shape" fill="#FFFFFF"></path><path d="M45.918989,43.5826823 C46.114644,43.5811073 46.2945203,43.5763826 46.4680851,43.5685081 L46.4680851,42.9574468 C46.1509348,43.0062687 45.7864487,43.0235927 45.3620037,43.0251675 L41.8291701,43.0251675 C41.7755228,44.0126301 41.7360762,45.6694253 41.680851,47.2978724 L42.2567708,47.2978724 C42.3041067,45.8568385 42.3403975,44.456752 42.3877334,43.5826823 L45.918989,43.5826823 Z" id="Shape" fill="#118011"></path><path d="M46.4680851,43.8974805 L46.4680851,43.5957447 C46.2961033,43.6035617 46.1162323,43.6098153 45.9190055,43.6098153 L42.3862778,43.6098153 C42.3389433,44.4775012 42.3026536,45.867362 42.2553191,47.2978724 L43.0742051,47.2978724 C44.9502271,47.2994346 46.4680851,45.7766849 46.4680851,43.8974805 Z" id="Shape" fill="url(#linearGradient-5)"></path><path d="M6.30690761,43.0622308 L2.77983095,43.0622308 C2.2336928,43.0637921 1.78041388,43.0138325 1.40425532,42.893617 L1.40425532,43.5977358 C1.62617313,43.6242768 1.86855144,43.6352055 2.13453804,43.6352055 L5.66318857,43.6336444 L5.89612358,47.2978724 L6.57446809,47.2978724 L6.30690761,43.0622308 Z" id="Shape" fill="#118011"></path><path d="M2.1306714,43.6332346 C1.86609312,43.6332346 1.62499813,43.6223 1.40425532,43.5957447 L1.40425532,43.9003502 C1.40425532,45.7764072 2.91031624,47.2978724 4.76862634,47.2978724 L5.87234043,47.2978724 L5.64063874,43.6316725 L2.1306714,43.6332346 Z" id="Shape" fill="url(#linearGradient-6)"></path></g></g><g id="Group" mask="url(#mask-2)" fill="#000000" fill-rule="nonzero"><g transform="translate(3.000000, 72.000000)" id="Combined-Shape"><path d="M21.4046957,19.1192986 C22.3872387,19.1192986 23.166736,19.4545716 23.7421972,20.1256129 C24.3186489,20.7961588 24.6063795,21.7128358 24.6063795,22.8746533 L24.6063795,23.3758295 L18.831463,23.3758295 L18.831463,23.5476755 C18.831463,24.4653429 19.094432,25.2294881 19.620865,25.840606 C20.1468029,26.4512288 20.8089299,26.7567878 21.6067509,26.7567878 C22.0856416,26.7567878 22.5080756,26.6696267 22.8745483,26.4948093 C23.2415163,26.3204872 23.5743131,26.0411756 23.8734341,25.6568745 L24.4345335,26.0832704 C23.7763683,27.0365947 22.8210631,27.5125139 21.5696084,27.5125139 C20.881234,27.5125139 20.2592209,27.3431441 19.7030738,27.0039092 C19.1469267,26.6646744 18.714588,26.1922217 18.4050671,25.5865513 C18.0955462,24.9803857 17.9410334,24.3009255 17.9410334,23.5481707 L17.9410334,23.226269 C17.9410334,22.4482574 18.0920796,21.7475022 18.3936767,21.1240033 C18.6952739,20.5005045 19.1152318,20.0107187 19.6540457,19.6541507 C20.1928596,19.2975826 20.7762445,19.1192986 21.4046957,19.1192986 Z M50.1450696,17.1963074 L50.1450696,19.2683639 L51.8209393,19.2683639 L51.8209393,20.0013093 L50.1450696,20.0013093 L50.1450696,25.4008388 C50.1450696,25.8500155 50.2262879,26.1847932 50.3882292,26.4046769 C50.5501705,26.6240652 50.8205679,26.7340071 51.1999167,26.7340071 C51.3494772,26.7340071 51.591151,26.7092454 51.9254336,26.6592268 L51.9630713,27.3862294 C51.7283307,27.4704191 51.4094004,27.5120187 51.00529,27.5120187 C50.3916958,27.5120187 49.9454905,27.3337347 49.6661789,26.9771666 C49.3868673,26.6205986 49.2472115,26.0956512 49.2472115,25.4023245 L49.2472115,20.0018045 L47.7585399,20.0018045 L47.7585399,19.2688591 L49.2472115,19.2688591 L49.2472115,17.1963074 L50.1450696,17.1963074 Z M89.4388668,19.1192986 C90.341182,19.1192986 91.0657084,19.3426489 91.6119508,19.7888542 C92.157698,20.2350594 92.4310669,20.8174539 92.4310669,21.5355423 L91.5332087,21.5355423 C91.5332087,21.0616039 91.3346202,20.6678934 90.9384335,20.3534202 C90.5417515,20.0394422 90.0415658,19.881958 89.4383715,19.881958 C88.8500343,19.881958 88.3770864,20.0126996 88.0210136,20.2746781 C87.6644456,20.5361613 87.4861616,20.8768819 87.4861616,21.2958493 C87.4861616,21.6999598 87.6347316,22.0129473 87.9313764,22.2348118 C88.2280212,22.4566764 88.7693113,22.6602173 89.5542562,22.8444441 C90.3401915,23.0291662 90.9285288,23.2257738 91.3197632,23.4352575 C91.7114928,23.6447412 92.0016995,23.896815 92.1913739,24.1909837 C92.3810483,24.4851523 92.4756379,24.8417203 92.4756379,25.2606878 C92.4756379,25.9441098 92.2002881,26.4903522 91.6490934,26.8989198 C91.0983938,27.3079825 90.3788197,27.5125139 89.4908663,27.5125139 C88.5484372,27.5125139 87.7837968,27.2842113 87.1979357,26.8281014 C86.6115794,26.3714962 86.3188965,25.7945493 86.3188965,25.0962703 L87.2167546,25.0962703 C87.2514209,25.619732 87.472295,26.027309 87.8788816,26.3194967 C88.2854682,26.6111892 88.8227965,26.7567878 89.4908663,26.7567878 C90.1143651,26.7567878 90.6180175,26.6196081 91.0018233,26.3452489 C91.3856292,26.0713848 91.5777797,25.7247214 91.5777797,25.305754 C91.5777797,24.8620249 91.3994957,24.5054569 91.0429277,24.2360499 C90.6863597,23.9666429 90.1490314,23.7561688 89.430943,23.6036369 C88.7128546,23.4516002 88.1557171,23.2772781 87.7590352,23.0801752 C87.3628485,22.8830723 87.0681846,22.6428841 86.8765293,22.3586202 C86.684874,22.0743562 86.5887987,21.730169 86.5887987,21.3260586 C86.5887987,20.6877027 86.8552342,20.1602792 87.3890958,19.7437879 C87.9224622,19.3272966 88.6058842,19.1192986 89.4388668,19.1192986 Z M97.4259907,19.1192986 C98.3283059,19.1192986 99.0528324,19.3426489 99.5990748,19.7888542 C100.144822,20.2350594 100.418191,20.8174539 100.418191,21.5355423 L99.5203327,21.5355423 C99.5203327,21.0616039 99.3217441,20.6678934 98.9255574,20.3534202 C98.5288754,20.0394422 98.0286897,19.881958 97.4254955,19.881958 C96.8371582,19.881958 96.3642104,20.0126996 96.0081376,20.2746781 C95.6515695,20.5361613 95.4732855,20.8768819 95.4732855,21.2958493 C95.4732855,21.6999598 95.6218555,22.0129473 95.9185003,22.2348118 C96.2151451,22.4566764 96.7564352,22.6602173 97.5413801,22.8444441 C98.3273155,23.0291662 98.9156527,23.2257738 99.3068871,23.4352575 C99.6986167,23.6447412 99.9888234,23.896815 100.178498,24.1909837 C100.368172,24.4851523 100.462762,24.8417203 100.462762,25.2606878 C100.462762,25.9441098 100.187412,26.4903522 99.6362173,26.8989198 C99.0855178,27.3079825 98.3659437,27.5125139 97.4779902,27.5125139 C96.5355611,27.5125139 95.771416,27.2842113 95.1850597,26.8281014 C94.5987034,26.3714962 94.3060204,25.7945493 94.3060204,25.0962703 L95.2038785,25.0962703 C95.2385449,25.619732 95.459419,26.027309 95.8660056,26.3194967 C96.2725922,26.6111892 96.8099204,26.7567878 97.4779902,26.7567878 C98.101489,26.7567878 98.6051414,26.6196081 98.9889473,26.3452489 C99.3727531,26.0713848 99.5649037,25.7247214 99.5649037,25.305754 C99.5649037,24.8620249 99.3866197,24.5054569 99.0300516,24.2360499 C98.6734836,23.9666429 98.1361554,23.7561688 97.418067,23.6036369 C96.6999786,23.4516002 96.142841,23.2772781 95.7461591,23.0801752 C95.3499724,22.8830723 95.0553085,22.6428841 94.8636532,22.3586202 C94.6719979,22.0743562 94.5759226,21.730169 94.5759226,21.3260586 C94.5759226,20.6877027 94.8423582,20.1602792 95.3762198,19.7437879 C95.9095861,19.3272966 96.5930082,19.1192986 97.4259907,19.1192986 Z M56.785654,19.1192986 C57.6879692,19.1192986 58.4001148,19.345125 58.9215955,19.7962827 C59.442581,20.2474403 59.7105023,20.8768819 59.7258545,21.6851028 L59.7258545,25.5152377 C59.7258545,26.2982017 59.8080633,26.8840628 59.9724807,27.2733162 L59.9724807,27.3629534 L59.0151946,27.3629534 C58.9255574,27.1084035 58.8681103,26.7320261 58.8433486,26.2333261 C58.5293707,26.6423889 58.1292221,26.9578525 57.6424077,27.1797171 C57.1565838,27.4015817 56.6410458,27.5125139 56.0977748,27.5125139 C55.3197632,27.5125139 54.6903215,27.2956017 54.2089547,26.8617773 C53.7275878,26.4279528 53.4869044,25.8792342 53.4869044,25.2161168 C53.4869044,24.4282004 53.8147489,23.8047016 54.4704379,23.3461155 C55.1261269,22.8875294 56.0403277,22.6577411 57.2120499,22.6577411 L58.8354249,22.6577411 L58.8354249,21.7375975 C58.8354249,21.1591649 58.6571409,20.7040454 58.3005729,20.3722391 C57.9440048,20.0404327 57.4240098,19.8750248 56.741083,19.8750248 C56.1175841,19.8750248 55.6015509,20.0349851 55.1924882,20.3539154 C54.7834254,20.673341 54.578894,21.0571468 54.578894,21.5058283 L53.6810359,21.4983998 C53.6810359,20.8550916 53.9801569,20.2974588 54.578894,19.8264919 C55.1771359,19.3550297 55.9130527,19.1192986 56.785654,19.1192986 Z M73.4482762,19.1192986 C74.3357344,19.1192986 75.0676894,19.3837532 75.644141,19.9121673 C76.2200974,20.4410765 76.5276374,21.1363842 76.5677513,21.9990807 L75.7075309,21.9990807 C75.667417,21.3656772 75.4396096,20.8545964 75.0231184,20.4653429 C74.6066271,20.0765847 74.0816797,19.881958 73.4487714,19.881958 C72.6410458,19.881958 72.0135851,20.1736505 71.5673798,20.7570354 C71.1211746,21.3404203 70.8978243,22.1585459 70.8978243,23.2109168 L70.8978243,23.4728953 C70.8978243,24.5054569 71.1211746,25.3107063 71.5673798,25.8891389 C72.0135851,26.4675715 72.6430267,26.7567878 73.4562,26.7567878 C74.0796988,26.7567878 74.60217,26.5809799 75.0231184,26.2293642 C75.444562,25.8777485 75.6728646,25.4226291 75.7075309,24.8640058 L76.5677513,24.8640058 C76.5424944,25.3577535 76.3879816,25.8079206 76.1037176,26.2145072 C75.8194536,26.6210938 75.4415906,26.9390337 74.9706236,27.1683267 C74.4991614,27.3976198 73.9945186,27.5125139 73.4557047,27.5125139 C72.3934291,27.5125139 71.5515324,27.1435651 70.931005,26.4051721 C70.3099823,25.6672744 69.999471,24.6748267 69.999471,23.427829 L69.999471,23.1589173 C69.999471,22.3610963 70.1391268,21.6553888 70.4184384,21.0417946 C70.69775,20.4282004 71.0978986,19.9547573 71.6193793,19.6204748 C72.1403649,19.2866875 72.7499972,19.1192986 73.4482762,19.1192986 Z M14.6744741,17.1963074 L14.6744741,19.2683639 L16.3503438,19.2683639 L16.3503438,20.0013093 L14.6744741,20.0013093 L14.6744741,25.4008388 C14.6744741,25.8500155 14.7556923,26.1847932 14.9176337,26.4046769 C15.079575,26.6240652 15.3499724,26.7340071 15.7293212,26.7340071 C15.8788816,26.7340071 16.1205555,26.7092454 16.4548381,26.6592268 L16.4924758,27.3862294 C16.2577352,27.4704191 15.9388049,27.5120187 15.5346944,27.5120187 C14.9211003,27.5120187 14.474895,27.3337347 14.1955834,26.9771666 C13.9162718,26.6205986 13.7766159,26.0956512 13.7766159,25.4023245 L13.7766159,20.0018045 L12.2879444,20.0018045 L12.2879444,19.2688591 L13.7766159,19.2688591 L13.7766159,17.1963074 L14.6744741,17.1963074 Z M81.5552466,19.1192986 C82.5377896,19.1192986 83.317287,19.4545716 83.8927482,20.1256129 C84.4691998,20.7961588 84.7569304,21.7128358 84.7569304,22.8746533 L84.7569304,23.3758295 L78.982014,23.3758295 L78.982014,23.5476755 C78.982014,24.4653429 79.2449829,25.2294881 79.771416,25.840606 C80.2973538,26.4512288 80.9594809,26.7567878 81.7573018,26.7567878 C82.2361925,26.7567878 82.6586266,26.6696267 83.0250993,26.4948093 C83.3920672,26.3204872 83.7248641,26.0411756 84.023985,25.6568745 L84.5850844,26.0832704 C83.9269193,27.0365947 82.9721093,27.5125139 81.7201593,27.5125139 C81.0317849,27.5125139 80.4097718,27.3431441 79.8536247,27.0039092 C79.2974777,26.6646744 78.8651389,26.1922217 78.5556181,25.5865513 C78.2460972,24.9803857 78.0915844,24.3009255 78.0915844,23.5481707 L78.0915844,23.226269 C78.0915844,22.4482574 78.2426306,21.7475022 78.5442277,21.1240033 C78.8458248,20.5005045 79.2657827,20.0107187 79.8045966,19.6541507 C80.3434105,19.2975826 80.9267955,19.1192986 81.5552466,19.1192986 Z M43.5787702,19.1192986 C44.5613132,19.1192986 45.3408106,19.4545716 45.9162718,20.1256129 C46.4927234,20.7961588 46.780454,21.7128358 46.780454,22.8746533 L46.780454,23.3758295 L41.0055376,23.3758295 L41.0055376,23.5476755 C41.0055376,24.4653429 41.2685065,25.2294881 41.7949396,25.840606 C42.3208774,26.4512288 42.9830045,26.7567878 43.7808254,26.7567878 C44.2597161,26.7567878 44.6821502,26.6696267 45.0486229,26.4948093 C45.4155908,26.3204872 45.7483876,26.0411756 46.0475086,25.6568745 L46.608608,26.0832704 C45.9504429,27.0365947 44.9951377,27.5125139 43.7436829,27.5125139 C43.0553085,27.5125139 42.4332954,27.3431441 41.8771483,27.0039092 C41.3210012,26.6646744 40.8886625,26.1922217 40.5791416,25.5865513 C40.2696208,24.9803857 40.115108,24.3009255 40.115108,23.5481707 L40.115108,23.226269 C40.115108,22.4482574 40.2661541,21.7475022 40.5677513,21.1240033 C40.8693484,20.5005045 41.2893063,20.0107187 41.8281202,19.6541507 C42.3669341,19.2975826 42.9503191,19.1192986 43.5787702,19.1192986 Z M65.3264488,19.1192986 C66.213907,19.1192986 66.945862,19.3837532 67.5223136,19.9121673 C68.09827,20.4410765 68.40581,21.1363842 68.4459239,21.9990807 L67.5857035,21.9990807 C67.5455896,21.3656772 67.3177822,20.8545964 66.9012909,20.4653429 C66.4847997,20.0765847 65.9598523,19.881958 65.326944,19.881958 C64.5192184,19.881958 63.8917577,20.1736505 63.4455524,20.7570354 C62.9993472,21.3404203 62.7759969,22.1585459 62.7759969,23.2109168 L62.7759969,23.4728953 C62.7759969,24.5054569 62.9993472,25.3107063 63.4455524,25.8891389 C63.8917577,26.4675715 64.5211993,26.7567878 65.3343725,26.7567878 C65.9578714,26.7567878 66.4803426,26.5809799 66.9012909,26.2293642 C67.3227346,25.8777485 67.5510371,25.4226291 67.5857035,24.8640058 L68.4459239,24.8640058 C68.420667,25.3577535 68.2661541,25.8079206 67.9818902,26.2145072 C67.6976262,26.6210938 67.3197632,26.9390337 66.8487962,27.1683267 C66.377334,27.3976198 65.8726912,27.5125139 65.3338773,27.5125139 C64.2716017,27.5125139 63.429705,27.1435651 62.8091775,26.4051721 C62.1881549,25.6672744 61.8776436,24.6748267 61.8776436,23.427829 L61.8776436,23.1589173 C61.8776436,22.3610963 62.0172994,21.6553888 62.296611,21.0417946 C62.5759226,20.4282004 62.9760712,19.9547573 63.4975519,19.6204748 C64.0185375,19.2866875 64.6281697,19.1192986 65.3264488,19.1192986 Z M8.16066943,19.1197939 C9.02831831,19.1197939 9.67410264,19.3644391 10.0980224,19.8527393 C10.5219422,20.3415346 10.7363782,21.0749752 10.7413306,22.0520707 L10.7413306,27.3634487 L9.85090095,27.3634487 L9.85090095,22.0446422 C9.84594862,21.3216015 9.69242627,20.7832828 9.39082914,20.4286957 C9.08923202,20.0746038 8.60637947,19.8978055 7.94326198,19.8978055 C7.38959106,19.8978055 6.89980525,20.0711372 6.47340931,20.4178005 C6.04701337,20.7644639 5.73154971,21.2324595 5.52701832,21.8207967 L5.52701832,27.3639439 L4.63658871,27.3639439 L4.63658871,19.2688591 L5.49037105,19.2688591 L5.52008506,20.6530364 C5.82415835,20.1543364 6.20301189,19.7739972 6.65714089,19.5125139 C7.11077467,19.2505355 7.61195085,19.1197939 8.16066943,19.1197939 Z M35.4866568,19.1197939 C36.3543057,19.1197939 37.00009,19.3644391 37.4240098,19.8527393 C37.8479296,20.3415346 38.0623656,21.0749752 38.0673179,22.0520707 L38.0673179,27.3634487 L37.1768883,27.3634487 L37.1768883,22.0446422 C37.171936,21.3216015 37.0184136,20.7832828 36.7168165,20.4286957 C36.4152194,20.0746038 35.9323668,19.8978055 35.2692494,19.8978055 C34.7155784,19.8978055 34.2257926,20.0711372 33.7993967,20.4178005 C33.3730007,20.7644639 33.0575371,21.2324595 32.8530057,21.8207967 L32.8530057,27.3639439 L31.9625761,27.3639439 L31.9625761,19.2688591 L32.8163584,19.2688591 L32.8460724,20.6530364 C33.1501457,20.1543364 33.5289993,19.7739972 33.9831283,19.5125139 C34.436762,19.2505355 34.9379382,19.1197939 35.4866568,19.1197939 Z M29.7503686,19.1192986 C29.999471,19.1192986 30.1965739,19.151984 30.341182,19.2163644 L30.319887,20.0315185 C30.1302126,19.9968522 29.9281574,19.9790238 29.7137213,19.9790238 C29.1550981,19.9790238 28.6826454,20.1350223 28.2958681,20.4465241 C27.9095861,20.7585211 27.6337411,21.2111644 27.4693236,21.804454 L27.4693236,27.3624582 L26.578894,27.3624582 L26.578894,19.2688591 L27.4539714,19.2688591 L27.4688284,20.5554754 C27.9427667,19.5976941 28.70295,19.1192986 29.7503686,19.1192986 Z M1.976195,19.2688591 L1.976195,27.3629534 L1.07833688,27.3629534 L1.07833688,19.2688591 L1.976195,19.2688591 Z M58.8354249,23.3461155 L57.2343354,23.3461155 C56.3414296,23.3560202 55.6431506,23.5194472 55.1394982,23.8363966 C54.6358459,24.1528507 54.3837721,24.5881608 54.3837721,25.1418317 C54.3837721,25.5959608 54.5521514,25.9723381 54.8884149,26.2714591 C55.226164,26.5700848 55.6639504,26.7196453 56.202269,26.7196453 C56.800511,26.7196453 57.3358582,26.5750371 57.8068252,26.2858208 C58.2782874,25.9966046 58.6209889,25.6103225 58.8354249,25.1264795 L58.8354249,23.3461155 Z M81.5557419,19.881958 C80.8827197,19.881958 80.3151822,20.1285843 79.8536247,20.6223319 C79.3925625,21.1160796 79.1117651,21.7791971 79.0122232,22.6121796 L83.866996,22.6121796 L83.866996,22.5151139 C83.8417391,21.7371023 83.6198746,21.1036988 83.2014024,20.6149034 C82.7824349,20.1266033 82.2337164,19.881958 81.5557419,19.881958 Z M21.4046957,19.881958 C20.7316735,19.881958 20.1641361,20.1285843 19.7025786,20.6223319 C19.2415163,21.1160796 18.960719,21.7791971 18.861177,22.6121796 L23.7159499,22.6121796 L23.7159499,22.5151139 C23.690693,21.7371023 23.4693236,21.1036988 23.0503562,20.6149034 C22.631884,20.1266033 22.0831654,19.881958 21.4046957,19.881958 Z M43.5787702,19.881958 C42.9057481,19.881958 42.3382106,20.1285843 41.8766531,20.6223319 C41.4155908,21.1160796 41.1347935,21.7791971 41.0352516,22.6121796 L45.8900244,22.6121796 L45.8900244,22.5151139 C45.8647675,21.7371023 45.6433982,21.1036988 45.2244307,20.6149034 C44.8059585,20.1266033 44.2572399,19.881958 43.5787702,19.881958 Z M104.715826,14.475 C106.100003,14.475 107.226164,15.6006655 107.226164,16.985338 C107.226164,18.3700105 106.100003,19.495676 104.715826,19.495676 C103.331649,19.495676 102.205488,18.3695153 102.205488,16.985338 C102.205488,15.6011607 103.331649,14.475 104.715826,14.475 Z M104.715826,14.846425 C103.536675,14.846425 102.577408,15.8056921 102.577408,16.985338 C102.577408,18.1649839 103.536675,19.124251 104.715826,19.124251 C105.894977,19.124251 106.854739,18.1649839 106.854739,16.985338 C106.854739,15.8056921 105.894977,14.846425 104.715826,14.846425 Z M104.747521,15.763102 C105.014452,15.763102 105.220964,15.824511 105.364582,15.9458431 C105.508199,16.0676705 105.580504,16.2449641 105.580504,16.4772286 C105.580504,16.6253033 105.54039,16.754064 105.461152,16.8640058 C105.380924,16.9739476 105.269497,17.0561564 105.127365,17.110632 L105.684998,18.118432 L105.684998,18.1377461 L105.348734,18.1377461 L104.833692,17.1769933 L104.276059,17.1769933 L104.276059,18.1377461 L103.96109,18.1377461 L103.96109,15.763102 L104.747521,15.763102 Z M1.53444682,16.3286585 C1.72412121,16.3286585 1.87516739,16.3870961 1.98709013,16.5034759 C2.09950811,16.6198558 2.15546948,16.762483 2.15546948,16.9308623 C2.15546948,17.0997369 2.09950811,17.2408784 1.98709013,17.3547821 C1.87516739,17.4686858 1.72412121,17.5256376 1.53444682,17.5256376 C1.34477244,17.5256376 1.19521196,17.4686858 1.08576538,17.3547821 C0.976318806,17.2408784 0.921347901,17.0997369 0.921347901,16.9308623 C0.921347901,16.762483 0.976318806,16.6198558 1.08576538,16.5034759 C1.19521196,16.3870961 1.34477244,16.3286585 1.53444682,16.3286585 Z M104.755445,16.0191377 L104.276059,16.0191377 L104.276059,16.9209577 L104.757426,16.9209577 C104.912929,16.9209577 105.036737,16.8808438 105.128355,16.8001207 C105.219974,16.7193977 105.26603,16.611932 105.26603,16.4767333 C105.26603,16.329649 105.22245,16.217231 105.134793,16.1384889 C105.047137,16.0597468 104.921348,16.0201281 104.755445,16.0191377 Z M34.1292559,3.05955181 C35.1266559,3.05955181 35.9021914,3.42899591 36.4558623,4.16689365 C37.0095332,4.90528662 37.2863687,5.92249598 37.2863687,7.21901696 L37.2863687,7.33093971 C37.2863687,8.57793735 37.0030952,9.57632784 36.4370435,10.3266064 C35.8709917,11.0773802 35.1068466,11.4527671 34.1441129,11.4527671 C33.3259874,11.4527671 32.665346,11.1685032 32.1616937,10.5999752 L32.1616937,14.4152532 L30,14.4152532 L30,3.20911229 L32.0047047,3.20911229 L32.079485,4.00198093 C32.6029466,3.37352978 33.2863687,3.05955181 34.1292559,3.05955181 Z M67.8571252,1.21926458 L67.8571252,3.20911229 L69.2413025,3.20911229 L69.2413025,4.79484957 L67.8571252,4.79484957 L67.8571252,8.83446824 C67.8571252,9.1335892 67.914077,9.34802526 68.0289712,9.4777764 C68.1433701,9.60752755 68.3627584,9.67240312 68.6871363,9.67240312 C68.926334,9.67240312 69.1382939,9.65506995 69.323016,9.61990838 L69.323016,11.2581404 C68.8990962,11.3878915 68.4627956,11.4527671 68.0141142,11.4527671 C66.4977095,11.4527671 65.7251455,10.6871363 65.6949362,9.15636994 L65.6949362,4.79534481 L64.5128142,4.79534481 L64.5128142,3.20960753 L65.6949362,3.20960753 L65.6949362,1.21926458 L67.8571252,1.21926458 Z M74.1614461,3.05955181 C75.2687879,3.05955181 76.1399034,3.40869135 76.7762783,4.10697041 C77.4116627,4.80524947 77.7300978,5.795221 77.7300978,7.07688498 L77.7300978,7.95939086 L72.5757088,7.95939086 C72.6455367,8.48830011 72.8565061,8.91221988 73.2076266,9.23115018 C73.5592423,9.55057571 74.0044571,9.71004086 74.543271,9.71004086 C75.3762536,9.71004086 76.0269902,9.40844373 76.4959762,8.80475424 L77.5582518,9.99430482 C77.233874,10.4533862 76.7950972,10.8109447 76.2414263,11.0679708 C75.6872601,11.3245017 75.0741612,11.4527671 74.4006438,11.4527671 C73.2135694,11.4527671 72.2473691,11.0887706 71.5015476,10.3607775 C70.7562214,9.63278445 70.3833106,8.66262226 70.3833106,7.45078618 L70.3833106,7.24130246 C70.3833106,6.42862449 70.5402996,5.70162189 70.8547728,5.0607899 C71.1687508,4.41995791 71.6139656,3.92621023 72.189922,3.57954686 C72.7663737,3.2328835 73.4230531,3.05955181 74.1614461,3.05955181 Z M60.1235607,3.05905658 C61.1209608,3.05905658 61.9128389,3.30964467 62.4987,3.81082085 C63.0850563,4.31199703 63.3777393,5.01621889 63.3777393,5.92398168 L63.3777393,9.43221493 C63.3826916,10.2003219 63.4901572,10.7812307 63.699641,11.1754364 L63.699641,11.3027114 L61.5156618,11.3027114 C61.4156246,11.1085799 61.3438158,10.866906 61.2987495,10.5776897 C60.7752879,11.1610747 60.094342,11.4527671 59.2564071,11.4527671 C58.4635384,11.4527671 57.8063637,11.2234741 57.2853782,10.7643927 C56.7638975,10.3058066 56.5034047,9.72737403 56.5034047,9.02909496 C56.5034047,8.17135075 56.8213446,7.51318559 57.4572242,7.05410425 C58.0931039,6.59551814 59.0117618,6.36325368 60.2141884,6.35830135 L61.2091123,6.35830135 L61.2091123,5.89426767 C61.2091123,5.52036647 61.113037,5.22124551 60.9213817,4.99640956 C60.7292312,4.77206884 60.4261483,4.65965086 60.0121332,4.65965086 C59.6481367,4.65965086 59.362387,4.74681194 59.1558747,4.92162932 C58.9488672,5.0964467 58.8453634,5.33564442 58.8453634,5.63971772 L56.6826792,5.63971772 C56.6826792,5.17122694 56.8272874,4.7374025 57.1165037,4.3382444 C57.4057199,3.93958153 57.8147827,3.62659403 58.3431967,3.39928191 C58.8716107,3.17246502 59.4653956,3.05905658 60.1235607,3.05905658 Z M50.4917667,3.20911229 L51.9948,8.66262226 L53.4983286,3.20911229 L55.7575833,3.20911229 L53.0273616,11.3032066 L50.9627337,11.3032066 L48.2325121,3.20911229 L50.4917667,3.20911229 Z M46.95481,3.20911229 L46.95481,11.3032066 L44.7851925,11.3032066 L44.7851925,3.20911229 L46.95481,3.20911229 Z M42.7601832,3.05955181 C42.999381,3.05955181 43.2242169,3.09223722 43.4332054,3.15661756 L43.4034914,5.23610251 C43.1093228,5.19648384 42.8498205,5.17617927 42.6254798,5.17617927 C41.8073542,5.17617927 41.2715117,5.45301473 41.0169617,6.00668565 L41.0169617,11.3032066 L38.855268,11.3032066 L38.855268,3.20911229 L40.8976105,3.20911229 L40.9575337,4.17432215 C41.3913582,3.43147208 41.9920763,3.05955181 42.7601832,3.05955181 Z M61.2081218,7.62263217 L60.4003962,7.62263217 C59.3183113,7.62263217 58.7418596,7.99653337 58.6725269,8.744831 L58.6650984,8.87210598 C58.6650984,9.14151294 58.759688,9.36337749 58.9493624,9.53769964 C59.1390368,9.71251702 59.3985391,9.7996781 59.727374,9.7996781 C60.0463043,9.7996781 60.3409682,9.72836449 60.6098799,9.58672775 C60.8792869,9.44459577 61.0783707,9.25393091 61.2081218,9.01423796 L61.2081218,7.62263217 Z M33.560728,4.80227807 C32.8822583,4.80227807 32.4162437,5.0622756 32.1616937,5.58276588 L32.1616937,8.90677232 C32.4261483,9.4421196 32.8971153,9.70954562 33.575585,9.70954562 C34.6081466,9.70954562 35.1241798,8.86170608 35.1241798,7.16602699 C35.1241798,6.41079609 34.990962,5.8279064 34.7240312,5.41785316 C34.4571004,5.00779993 34.0693327,4.80227807 33.560728,4.80227807 Z M74.1540176,4.80227807 C73.7251455,4.80227807 73.3769964,4.94738145 73.1105609,5.23808345 C72.8436301,5.52878544 72.6727745,5.94428624 72.5979943,6.48557633 L75.6050514,6.48557633 L75.6050514,6.31273988 C75.5951467,5.83186827 75.4653956,5.459948 75.2162932,5.19697908 C74.9666956,4.93401015 74.6126037,4.80227807 74.1540176,4.80227807 Z M45.8702489,-3.46389584e-13 C46.2391977,-3.46389584e-13 46.5333663,0.104494243 46.7527547,0.313977962 C46.9721431,0.523461681 47.0820849,0.790392472 47.0820849,1.1142751 C47.0820849,1.4436053 46.9711527,1.71251702 46.7492881,1.92200074 C46.5274235,2.13148446 46.2342454,2.2359787 45.8702489,2.2359787 C45.5062523,2.2359787 45.2130742,2.13148446 44.9912096,1.92200074 C44.7693451,1.71301226 44.6584128,1.4436053 44.6584128,1.1142751 C44.6584128,0.790392472 44.7668689,0.523461681 44.9837811,0.313977962 C45.2006933,0.104494243 45.4958524,-3.46389584e-13 45.8702489,-3.46389584e-13 Z"></path></g></g></g></svg> 