<?xml version="1.0" encoding="UTF-8"?> <svg xmlns="http://www.w3.org/2000/svg" id="Layer_1" data-name="Layer 1" viewBox="0 0 112 112"> <defs> <style>.cls-1{fill:#1a3867}</style> </defs> <path class="cls-1" d="M29.83 57.1a1 1 0 0 1-1-1v-7.35a1 1 0 0 1 1.07-1h3.38a3 3 0 1 1 0 6h-2.45v2.44a1 1 0 0 1-1 1zm4.55-6.41A1.3 1.3 0 0 0 33 49.41h-2.17V52H33a1.28 1.28 0 0 0 1.38-1.31zm6-.54a1.14 1.14 0 0 0-.45.11 2.7 2.7 0 0 0-1.13.93v-.12a.91.91 0 0 0-.93-.89.9.9 0 0 0-.9.9v5.13a.91.91 0 0 0 1.81 0v-3.65a2.32 2.32 0 0 1 1.48-.74.89.89 0 0 0 .86-.88.74.74 0 0 0-.74-.79zm2-1a1.06 1.06 0 1 0 0-2.12 1.06 1.06 0 1 0 0 2.12zm0 7.93a.91.91 0 0 0 .92-.89v-5.12a.91.91 0 0 0-.9-.89.89.89 0 0 0-.91.89v5.14a.89.89 0 0 0 .89.89zm7.28-6.92a.89.89 0 0 0-.84.54L47.15 55l-1.66-4.28a.89.89 0 0 0-1.71.32.79.79 0 0 0 .07.32l2 4.9a1.39 1.39 0 0 0 2.55 0l2-4.88a.94.94 0 0 0 .07-.34.88.88 0 0 0-.84-.86zm4.34-.05c1.57 0 3 .61 3 2.55v3.52a.92.92 0 0 1-1.83.13 2.86 2.86 0 0 1-2.16.86 2.27 2.27 0 0 1-2.4-2.23A2.16 2.16 0 0 1 53 52.8a2.83 2.83 0 0 1 2.18.82v-.94c0-.68-.6-1.12-1.51-1.12a2.85 2.85 0 0 0-1.53.44.72.72 0 0 1-.36.1.68.68 0 0 1-.35-1.27 4.65 4.65 0 0 1 2.57-.72zM53.72 56a1.83 1.83 0 0 0 1.46-.58v-.84a1.83 1.83 0 0 0-1.46-.58c-.71 0-1.3.37-1.3 1s.58 1 1.3 1zm7.49-.4a.73.73 0 0 1 .7.77.72.72 0 0 1-.54.69 2.74 2.74 0 0 1-.94.14 1.71 1.71 0 0 1-2-1.84v-3.54H58a.78.78 0 1 1 0-1.55h.44v-1a.92.92 0 0 1 1.83 0v1H61a.78.78 0 1 1 0 1.55h-.7v3c0 .42.21.74.61.74.09.04.22.01.3.01zm.62-1.94a3.45 3.45 0 0 1 3.56-3.52 3.29 3.29 0 0 1 3.45 3.26c0 .58-.38.83-1.08.83h-4a1.86 1.86 0 0 0 2 1.57 3 3 0 0 0 1.4-.38.67.67 0 0 1 .34-.09.73.73 0 0 1 .72.7.73.73 0 0 1-.39.62 4.73 4.73 0 0 1-2.27.55 3.45 3.45 0 0 1-3.73-3.57zm3.56-2.12a1.65 1.65 0 0 0-1.7 1.5h3.4a1.58 1.58 0 0 0-1.7-1.53zm8.69 5.59a1 1 0 0 1-1-1v-6.68h-2a.87.87 0 1 1 0-1.74h6a.87.87 0 1 1 0 1.74h-2v6.66a1 1 0 0 1-1 1zM83 50.18a.91.91 0 0 1 .92.89v5.14a.91.91 0 0 1-.9.91.92.92 0 0 1-.93-.91 3.27 3.27 0 0 1-2.41 1 2 2 0 0 1-2.22-2.12v-4a.89.89 0 0 1 .91-.89.91.91 0 0 1 .9.89v3.29c0 .93.5 1.24 1.27 1.24a2 2 0 0 0 1.56-.77v-3.78a.89.89 0 0 1 .9-.89zm6.26-.07a3.26 3.26 0 0 0-2.39 1 .92.92 0 0 0-1.83 0v5.14a.91.91 0 0 0 1.81 0v-3.77a2 2 0 0 1 1.57-.8 1.11 1.11 0 0 1 1.27 1.26v3.27a.91.91 0 0 0 .9.89.9.9 0 0 0 .91-.89v-4a2 2 0 0 0-2.22-2.1zm7.59 0a3.26 3.26 0 0 0-2.39 1 .92.92 0 0 0-.93-.91.9.9 0 0 0-.9.9v5.14a.91.91 0 0 0 1.81 0v-3.76a2 2 0 0 1 1.57-.8 1.11 1.11 0 0 1 1.27 1.26v3.27a.91.91 0 0 0 1.81 0v-4a2 2 0 0 0-2.24-2.14zm2.93 3.52a3.46 3.46 0 0 1 3.56-3.52 3.29 3.29 0 0 1 3.45 3.26c0 .58-.38.83-1.08.83h-4a1.86 1.86 0 0 0 2 1.57 2.94 2.94 0 0 0 1.39-.38.68.68 0 0 1 .35-.09.72.72 0 0 1 .71.7.71.71 0 0 1-.39.61 4.59 4.59 0 0 1-2.26.56 3.45 3.45 0 0 1-3.71-3.54zm3.56-2.12a1.64 1.64 0 0 0-1.69 1.5h3.39a1.58 1.58 0 0 0-1.68-1.5zm5 5.59a.91.91 0 0 0 .9-.89V48.5a.91.91 0 0 0-.9-.89.9.9 0 0 0-.91.89v7.71a.9.9 0 0 0 .94.89z"></path> <path d="M2.48 51.22a8.4 8.4 0 0 0 .23 2.66 9.93 9.93 0 0 0 .87 2.56c.06.11.06.17.11.28s.12.17.18.29l.7 1.07a9.39 9.39 0 0 0 1.68 1.76c.17.12.29.29.46.4l1 .68c0-.51.41-2.78.52-3.52.18-1.7.29-.62-.52-1.93a6.8 6.8 0 0 1-.87-1.87 5.9 5.9 0 0 1 .58-4.54l.41-.68a9.2 9.2 0 0 1 1.56-1.48 4.2 4.2 0 0 1 .93-.56 6 6 0 0 1 3.25-.63 7.63 7.63 0 0 1 2.2.51 6.09 6.09 0 0 1 1.23.68 5.65 5.65 0 0 1 1.21 1.1 7.17 7.17 0 0 1 .64.91 6 6 0 0 1 .76 3.74 6.46 6.46 0 0 1-.93 2.67l-.58.79c-.29.29-.18.17-.06 1.08l.52 3.69a11.8 11.8 0 0 0 2-1.47 10.61 10.61 0 0 0 3-10.62A11 11 0 0 0 22.8 47l-.7-1.19c-.11-.17-.17-.23-.29-.4A12.46 12.46 0 0 0 20.59 44a12.58 12.58 0 0 0-2.26-1.65c-.12 0-.29-.17-.41-.22a11.63 11.63 0 0 0-1.39-.57 11 11 0 0 0-3.37-.56 10.7 10.7 0 0 0-3.31.57 5.32 5.32 0 0 0-.93.4 6 6 0 0 0-.87.45 6.88 6.88 0 0 0-1.57 1.08 12.38 12.38 0 0 0-1 .91 12.93 12.93 0 0 0-1.92 2.66l-.41.85a10.08 10.08 0 0 0-.69 3.24z" fill="#ed7f22"></path> <path class="cls-1" d="M9.79 51.56a3.7 3.7 0 0 0 .21 1.59 2.83 2.83 0 0 0 .46.79 3.33 3.33 0 0 0 1.45 1l-1.33 7h5.11l-1.34-7.09c.17-.12.52-.23.87-.46a3.23 3.23 0 0 0 1.28-3.29 2.72 2.72 0 0 0-.23-.57 3.39 3.39 0 0 0-3-1.93 3.19 3.19 0 0 0-3.19 1.71 2.68 2.68 0 0 0-.41 1.24z"></path> </svg> 