<svg id="Layer_1" data-name="Layer 1" xmlns="http://www.w3.org/2000/svg" viewBox="0 0 100 100"><defs><style>.cls-1{fill:#44b6fa;}.cls-2{opacity:0.95;}</style></defs><title>171012_SaferVPN</title><g id="Layer_2" data-name="Layer 2"><g id="Layer_1-2" data-name="Layer 1-2"><path class="cls-1" d="M10.26,59.7l-.62,1.38A6.66,6.66,0,0,0,6.09,60c-1.66,0-2.74.62-2.74,1.71,0,3.31,7.24,1.58,7.22,6.23,0,2.14-1.9,3.52-4.65,3.52a7.35,7.35,0,0,1-4.93-2l.66-1.32A6.41,6.41,0,0,0,5.95,70c1.86,0,3-.75,3-2,0-3.37-7.22-1.58-7.22-6.18,0-2,1.78-3.31,4.45-3.31A7.63,7.63,0,0,1,10.26,59.7Z"/><path class="cls-1" d="M14.57,68.15,13.15,71.4H11.57l5.77-12.83h1.53L24.62,71.4H23l-1.44-3.25Zm3.49-7.91-2.87,6.51H21Z"/><path class="cls-1" d="M28.11,60v4.51h6V65.9h-6v5.5H26.64V58.57h8.18V60Z"/><path class="cls-1" d="M38.46,60V64.2H45v1.41H38.46V70H46v1.38H37V58.57h8.73V60Z"/><path class="cls-1" d="M54.72,67.32c-.28,0-.57,0-.86,0H50.43v4.05H49V58.57h4.89c3.22,0,5.07,1.58,5.07,4.31A4,4,0,0,1,56,67l3,4.36H57.38Zm-.86-1.38c2.34,0,3.66-1,3.66-3S56.19,60,53.85,60H50.43v6Z"/><path class="cls-1" d="M65.36,71.4,60.3,58.57h3.12l3.51,9.68,3.53-9.68h3L68.36,71.4Z"/><path class="cls-1" d="M80.34,58.57c3.27,0,5.15,1.61,5.15,4.46s-1.87,4.71-5.15,4.71H77.79V71.4h-2.9V58.57Zm-2.56,6.75h2.41c1.62,0,2.54-.73,2.54-2.21S81.81,61,80.19,61H77.79Z"/><path class="cls-1" d="M96.35,71.4l-6.23-8.22v8.23H87.34V58.57H90l6.25,8.25V58.57H99V71.4Z"/><g class="cls-2"><path class="cls-1" d="M52.2,24.54a12.48,12.48,0,0,0-11.3,7.08v-.09l-4.62,0v2.16l3.86,0a12.31,12.31,0,0,0-.39,1.9l-8,0v2.16l7.91,0A12.34,12.34,0,0,0,40,39.6l-5.72,0v2.16l6.42,0A12.45,12.45,0,1,0,52.2,24.54Zm-.1,22.13A9.7,9.7,0,1,1,61.88,37,9.7,9.7,0,0,1,52.1,46.66Z"/><path class="cls-1" d="M52.27,32.39a2.36,2.36,0,0,0-1.21,4.42l0,4.5h2.38l0-4.5a2.36,2.36,0,0,0-1.17-4.42Z"/></g></g></g></svg>