<?xml version="1.0" encoding="UTF-8"?> <svg xmlns="http://www.w3.org/2000/svg" xmlns:xlink="http://www.w3.org/1999/xlink" width="96px" height="60px" viewBox="0 0 96 60"><!-- Generator: Sketch 49.3 (51167) - http://www.bohemiancoding.com/sketch --><title>logo</title><desc>Created with Sketch.</desc><defs></defs><g id="Page" stroke="none" stroke-width="1" fill="none" fill-rule="evenodd"><g id="01_01_XXL_Press-Resources" transform="translate(-768.000000, -2768.000000)" fill="#FF3344"><g id="4---Logo-assets" transform="translate(0.000000, 2538.000000)"><g id="Assets" transform="translate(400.000000, 132.000000)"><g id="Block" transform="translate(288.000000, 0.000000)"><path d="M128,136.230088 L140.94382,100.123894 L167.910112,100.124871 L169.648522,100.124871 C169.648522,100.124871 173.6934,100.324051 175.581107,98.0009771 C176.706765,97.9203458 175.345468,102.847284 174.069915,106.467579 C172.873067,109.864489 171.397475,111.805189 168.030545,111.806287 L163.715938,111.80531 L152.808989,111.80531 L136.629213,158 L119.370787,158 L103.191011,111.80531 L92.284062,111.80531 L87.9694552,111.806287 C84.6025245,111.805189 83.1269326,109.864489 81.9300855,106.467579 C80.654532,102.847284 79.2932351,97.9203458 80.4188934,98.0009771 C82.3065997,100.324051 86.3514777,100.124871 86.3514777,100.124871 L88.0898876,100.124871 L115.05618,100.123894 L128,136.230088 L128,136.230088 Z M92.8233878,118.177968 C92.8233878,118.177968 88.7785098,118.377148 86.8908035,116.054074 C85.7651452,115.973443 87.1264421,120.900381 88.4019956,124.520677 C89.5988427,127.917587 91.0744347,129.858286 94.4413653,129.859384 L106.426966,129.858407 L102.382022,118.176991 L92.8233878,118.177968 Z M99.2952979,136.231066 C99.2952979,136.231066 95.2504199,136.430245 93.3627136,134.107172 C92.2370553,134.026541 93.5983522,138.953478 94.8739057,142.573774 C96.0707528,145.970684 97.5463448,147.911383 100.913275,147.912481 L112.898876,147.911504 L108.853933,136.230088 L99.2952979,136.231066 Z M163.176612,118.177968 C163.176612,118.177968 167.22149,118.377148 169.109196,116.054074 C170.234855,115.973443 168.873558,120.900381 167.598004,124.520677 C166.401157,127.917587 164.925565,129.858286 161.558635,129.859384 L149.573034,129.858407 L153.617978,118.176991 L163.176612,118.177968 Z M156.704702,136.231066 C156.704702,136.231066 160.74958,136.430245 162.637286,134.107172 C163.762945,134.026541 162.401648,138.953478 161.126094,142.573774 C159.929247,145.970684 158.453655,147.911383 155.086725,147.912481 L143.101124,147.911504 L147.146067,136.230088 L156.704702,136.231066 Z" id="logo"></path></g></g></g></g></g></svg> 