<?xml version="1.0" encoding="UTF-8"?> <svg xmlns="http://www.w3.org/2000/svg" id="Vrstva_1" data-name="Vrstva 1" viewBox="0 0 112 112"> <defs> <style>.cls-1{fill:#2d3c7d;}</style> </defs> <title>Astrill V3</title> <path class="cls-1" d="M56.55,45.4h1.68l4.42,12.1c.27.83.61,2,.61,2h.05s.32-1.22.61-2l4.42-12.1H70l-5.91,16H62.43Z"></path> <path class="cls-1" d="M71.38,45.4H76.9a4.64,4.64,0,0,1,4.93,4.81A4.68,4.68,0,0,1,76.9,55.1H73v6.27H71.4v-16Zm5.3,8.29a3.24,3.24,0,0,0,3.52-3.48,3.19,3.19,0,0,0-3.5-3.4H72.94v6.88Z"></path> <path class="cls-1" d="M83.29,45.4h1.53L93,56.87c.53.8,1.31,2.17,1.31,2.17h0s-.15-1.32-.15-2.17V45.4h1.56v16H94.21L86.06,49.87c-.53-.8-1.31-2.16-1.31-2.16h0s.15,1.31.15,2.16V61.35H83.29Z"></path> <path class="cls-1" d="M7.64,45.25h3.09l5.64,16.12h-3L12,57.24H6.35L5,61.37H2Zm3.65,9.58-1.44-4.3c-.27-.9-.63-2.51-.63-2.51H9.17s-.36,1.58-.63,2.51l-1.46,4.3Z"></path> <path class="cls-1" d="M18.14,58a5,5,0,0,0,3.28,1.26c1,0,1.61-.44,1.61-1.17,0-1.82-5.74-1.36-5.74-5.15,0-2.26,2-3.48,4.43-3.48a6,6,0,0,1,3.91,1.32l-1.07,2a4.93,4.93,0,0,0-2.92-1c-1,0-1.6.38-1.6,1.11,0,1.85,5.73,1.32,5.73,5.11,0,2-1.72,3.57-4.37,3.57a6.61,6.61,0,0,1-4.55-1.7Z"></path> <path class="cls-1" d="M27.14,46.61H30v3.31h2.62V52.2H30v4.53a2.07,2.07,0,0,0,2.28,2.18,2.37,2.37,0,0,0,.51,0v2.52a5.75,5.75,0,0,1-.87.08c-1.6,0-4.81-.49-4.81-4.35V46.61Z"></path> <path class="cls-1" d="M34.45,49.77h2.77v2c0,.43,0,.8,0,.8h0a4.05,4.05,0,0,1,3.68-3,3.17,3.17,0,0,1,.53,0V52.5a4.21,4.21,0,0,0-.7,0c-2.36,0-3.41,2-3.41,4.23v4.67H34.43V49.77Z"></path> <path class="cls-1" d="M43.11,45.25H46V47.8H43.11Zm0,4.52H46V61.35H43.11Z"></path> <path class="cls-1" d="M47.82,61.35V45.28h2.87V61.35Z"></path> <path class="cls-1" d="M52.37,61.35V45.28h2.87V61.35Z"></path> <path class="cls-1" d="M103.76,54.76a6.65,6.65,0,1,1,7.51-5.67A6.65,6.65,0,0,1,103.76,54.76Zm1.7-12.23A5.69,5.69,0,1,0,110.3,49,5.68,5.68,0,0,0,105.46,42.53Z"></path> <path class="cls-1" d="M104.68,55a6,6,0,0,1-.94-.07,6.85,6.85,0,0,1,.94-13.64,6,6,0,0,1,.95.08A6.85,6.85,0,0,1,104.68,55Zm0-13.32a6.46,6.46,0,0,0-.87,12.86,5.47,5.47,0,0,0,.9.08,6.46,6.46,0,0,0,.87-12.86A5.38,5.38,0,0,0,104.68,41.7Zm0,12.35h0a7.67,7.67,0,0,1-.82,0A5.77,5.77,0,0,1,100,51.72a6,6,0,0,1-1.14-4.35,5.88,5.88,0,0,1,5.81-5.06c.27,0,.53,0,.83,0a5.81,5.81,0,0,1,3.86,2.28,5.86,5.86,0,0,1-4.67,9.41Zm0-11.37a5.49,5.49,0,0,0-.77,10.93,6.3,6.3,0,0,0,.75,0,5.5,5.5,0,0,0,.78-10.94C105.19,42.7,104.93,42.68,104.68,42.68Z"></path> <polygon class="cls-1" points="106.85 45.93 110.79 47.08 107.45 49.51 107.6 53.62 104.25 51.21 100.38 52.62 101.62 48.68 99.12 45.42 103.23 45.42 105.56 42.02 106.85 45.93"></polygon> </svg> 