<?xml version="1.0" encoding="UTF-8"?> <svg xmlns="http://www.w3.org/2000/svg" id="Layer_1" data-name="Layer 1" viewBox="0 0 317.48 317.48"> <defs> <style>.cls-1{fill:#f57f29;}.cls-1,.cls-2,.cls-3{fill-rule:evenodd;}.cls-2{fill:#fff;}.cls-3,.cls-4{fill:#283055;}</style> </defs> <title>Avast logo</title> <path class="cls-1" d="M95.63,167.92c-3.18-3-5.29-3.41-7.86-5.3-7.9-5.78-9.8-17.89-3.74-25.78a24.62,24.62,0,0,1,6.31-5.46,17.51,17.51,0,0,0,6-6.63,15.8,15.8,0,0,0-1.89-16.26,15.49,15.49,0,0,0-22.84-1.93c-2.49,2.22-3.13,4.51-6,7.3A20.35,20.35,0,0,1,49.35,120a19.65,19.65,0,0,1-8.92-2.73c-3.38-1.91-4.71-4.2-7.32-4.8a7.75,7.75,0,0,0-7.52,2.22c-2.47,2.83-2.14,5.46-1.07,8.85a37.71,37.71,0,0,1,2,9.68,29.61,29.61,0,0,1-1.16,9.86c-1.73,5.83-6,11.31-10.06,14.92-3.36,3-5.73,3.44-7.89,5.52a11,11,0,0,0,5.6,18.86c4,.75,7.87-1.09,9.07-1.47,8.36-2.64,18.87-2.31,26.46-.1A47.76,47.76,0,0,1,65.35,190c2.44,2,4.29,4.63,6.85,6.46,6.59,4.7,18,5.61,25.24-3.77,4.93-6.35,6.11-17.31-1.81-24.76"></path> <path class="cls-2" d="M64.34,133.67A3.26,3.26,0,0,0,61,137v2.61c-2.54-3.41-6-5.68-10.63-5.68a12.56,12.56,0,0,0-9.77,4.61,17.31,17.31,0,0,0,0,22.23,12.52,12.52,0,0,0,9.77,4.63A12.94,12.94,0,0,0,61,159.71v2.8a3.35,3.35,0,0,0,6.69-.1V137a3.35,3.35,0,0,0-3.3-3.34M52.15,159.26c-5.11,0-8.8-4.66-8.8-9.68,0-5.31,3.8-9.67,8.8-9.67,5.4,0,8.8,4.84,8.8,9.67,0,5.1-3.62,9.68-8.8,9.68"></path> <path class="cls-3" d="M195,127.75a4.67,4.67,0,0,0-6,2.64L177.71,160l-11.27-29.58a4.67,4.67,0,0,0-6-2.64,4.45,4.45,0,0,0-2.64,5.92s9.39,24.67,12.44,32.64c1.75,4.58,5.18,5.56,7.48,5.56s5.74-1,7.49-5.56c3.05-8,12.45-32.64,12.45-32.64a4.47,4.47,0,0,0-2.65-5.92"></path> <path class="cls-3" d="M147.18,127.41a4.52,4.52,0,0,0-4.71,4.64v3.6c-3.51-4.72-8.25-7.86-14.72-7.86a17.38,17.38,0,0,0-13.53,6.38,24,24,0,0,0,0,30.8,17.33,17.33,0,0,0,13.53,6.42c6.94,0,11.74-3.78,14.72-7.9v3.88a4.64,4.64,0,0,0,9.27-.13V132.05a4.64,4.64,0,0,0-4.56-4.64m-17,35.6c-7.09,0-12.19-6.46-12.19-13.42,0-7.35,5.25-13.39,12.19-13.39,7.48,0,12.19,6.7,12.19,13.39,0,7.07-5,13.42-12.19,13.42"></path> <path class="cls-3" d="M238.34,127.41a4.52,4.52,0,0,0-4.71,4.64v3.6c-3.51-4.72-8.25-7.86-14.73-7.86a17.36,17.36,0,0,0-13.52,6.38,24,24,0,0,0,0,30.8,17.31,17.31,0,0,0,13.52,6.42c6.94,0,11.75-3.78,14.73-7.9v3.88a4.64,4.64,0,0,0,9.27-.13V132.05a4.65,4.65,0,0,0-4.56-4.64m-17,35.6c-7.09,0-12.19-6.46-12.19-13.42,0-7.35,5.25-13.39,12.19-13.39,7.48,0,12.18,6.7,12.18,13.39,0,7.07-5,13.42-12.18,13.42"></path> <path class="cls-4" d="M250.71,166.75a3.77,3.77,0,0,1-1.87-3.41,3.94,3.94,0,0,1,4-4,4.35,4.35,0,0,1,2.12.57,22.59,22.59,0,0,0,12.35,4.15c4.23,0,6.67-1.79,6.67-4.64v-.16c0-3.33-4.56-4.3-9.59-5.85C258,151.63,251,148.87,251,140.66v-.16c0-8.13,6.75-13.09,15.28-13.09a29.57,29.57,0,0,1,13.5,3.49,4.19,4.19,0,0,1,2.35,3.74,4,4,0,0,1-4.06,4,3.92,3.92,0,0,1-1.95-.49A23.4,23.4,0,0,0,266,135.21c-3.82,0-6,1.79-6,4.23v.16c0,3.17,4.63,4.31,9.67,5.93,6.26,2,13.33,5,13.33,12.69v.16c0,9-7,13.49-15.93,13.49A29.36,29.36,0,0,1,250.71,166.75Z"></path> <path class="cls-4" d="M291.89,159.36v-22.3H290a4.22,4.22,0,0,1,0-8.43h1.88V122a4.65,4.65,0,1,1,9.29,0v6.62h7.33a4.22,4.22,0,1,1,0,8.43h-7.33v20.76c0,3.81,2.22,5.35,5.54,5.35a23.75,23.75,0,0,0,2.44-.24,4.13,4.13,0,0,1,4.13,4,4.22,4.22,0,0,1-2.59,3.81,19.78,19.78,0,0,1-6.73,1.13C296.75,171.92,291.89,168.76,291.89,159.36Z"></path> </svg> 