<?xml version="1.0" encoding="UTF-8"?> <!-- Generator: Adobe Illustrator 24.2.0, SVG Export Plug-In . SVG Version: 6.00 Build 0) --> <svg xmlns="http://www.w3.org/2000/svg" xmlns:xlink="http://www.w3.org/1999/xlink" version="1.1" id="Layer_1" x="0px" y="0px" viewBox="0 0 1024 1024" style="enable-background:new 0 0 1024 1024;" xml:space="preserve"> <style type="text/css"> .st0{fill:#168B9F;} .st1{fill:#378594;} .st2{fill:#FFFFFF;} .st3{fill:#0D0D0D;} </style> <path class="st0" d="M570,163.3c14.4,0.6,28.7,1.4,43,2.6c11.7,1.1,23.8,2.6,35,6c8.5,2.6,16.6,6.6,22.8,13.2 c6.6,7,10.3,16.2,12.7,25.3c3.6,14.4,4.7,29.8,5.7,44.5c0.8,16,1.3,32,1.7,48c0.5,11.3,0.5,22.7,1,34c0.5,10.3,0.7,20.7,0.8,31 c0.2,19.6-0.1,38.6-3.9,58c-2.7,13.8-7.5,27.1-14.5,39.2c-7.9,13.7-18.7,26-30.4,36.6c-19.7,17.8-43,32.8-65.8,46.2 c-30.3,17.5-62.2,33.2-93.9,48.1c-24,11.2-48.7,22.2-74.2,29.7c-13,3.7-27.4,6.8-40.9,5.6c-9.2-0.9-17.9-4.3-24-11.4 c-7.3-8.3-10.2-20.3-11.5-31c-2.1-17.6-0.6-36.3,1.2-53.8c3.6-32.3,9.8-64.8,16-96.7c9.7-48.9,20.4-97.6,30.6-146.3 c2.5-11.5,5.2-23,8.5-34.3c5.1-17.4,11.6-35.3,21.7-50.4c8.9-13.4,21.3-24.3,35.9-31.1c19.7-9.3,43-12.4,64.5-13.6 C531.3,161.9,550.7,162.2,570,163.3z"></path> <path class="st1" d="M591,249.7c2.8,0,5.5,0.3,8.2,0.7c-8.3,1.1-17.1,0.7-25.5,0.2C579.5,249.3,585.1,249.8,591,249.7z"></path> <path class="st2" d="M583,251.1c5,0.1,10.1-0.4,15.1,0.4c4.5,0.9,7.5,5,7.7,9.5c0.2,6.7,0,13.3,0.1,20c-0.1,3.4,0.4,7.5-1.4,10.5 c-1.7,3.1-4.9,5-8.5,5.2c-6.4,0.3-12.7-0.3-19,0.6c-14.8,1.8-28.2,11.4-35.2,24.5c-3.7,6.8-5.6,14.5-5.5,22.3c0,23.7,0,47.3,0,71 c-0.4,27.2-13.4,53.6-34.7,70.6c-16.4,13.2-37.5,20.7-58.6,20.3c-4.6-0.1-9.3,0.3-13.8-0.2c-4.4-0.7-7.6-4.3-8.2-8.6 c-0.6-5.6-0.1-11.4-0.3-17c0.1-4.3-0.5-9.2,0.9-13.2c1.4-4,5.2-6.4,9.4-6.5c9-0.3,17.3,0.8,26.2-2.1c17.8-5.3,31.3-21.6,33.1-40.1 c0.2-1.7,0.2-3.3,0.2-5c0-23,0-46,0-69c0-7.3,0.8-14.7,2.5-21.8c6.4-27.2,25.5-50.6,50.8-62.4C556,254.1,569.5,250.9,583,251.1z"></path> <path class="st3" d="M448,705.1c-1.5,6.3-3.5,12.5-5.2,18.7c-6.2-1.9-15.1-2.9-20.4,1.6c-5,4.5-4.3,11.8-4.3,17.9 c8.2,0,16.5,0,24.7,0c0,6.2,0,12.4,0,18.6c-8.2,0-16.4,0-24.7,0c-0.1,32.1,0,64.2,0,96.3c-7.7,0-15.4,0-23,0 c-0.1-32.1,0.2-64.2-0.1-96.3c-5.9,0-11.7,0-17.6,0c0-6.2,0-12.4,0-18.6c5.9,0,11.8,0,17.7,0c0.1-8.3-0.7-15.7,2.9-23.5 c4.1-9.5,13.1-15.3,23.1-17.2C429.9,701.1,439.6,701.7,448,705.1z"></path> <path class="st3" d="M107.8,704.4c11.7,2.6,22.5,8.4,29.6,18.2c5.2,7.1,7.6,15.5,8.1,24.3c-7.4-0.1-14.7-0.5-22.1-0.8 c-0.7-3.3-1.4-6.5-3-9.5c-2.6-4.9-7-8.6-12.2-10.7c-7.1-2.9-15.4-3.2-23-2.3c-6.7,0.9-13.5,3.3-18.3,8.3c-4.9,4.9-6.8,12.8-4.2,19.3 c1.9,4.6,6.4,8.1,10.6,10.5c7.9,4.4,16.8,7.2,25.5,9.5c11.8,3.3,24.7,7.8,34.4,15.5c6.4,5,11.2,12,12.9,20 c2.5,11.6,0.7,24.3-6.2,34.1c-5.9,8.6-14.8,14.2-24.6,17.3c-11.2,3.6-23.6,4.2-35.2,2.7c-13.2-1.8-26-6.9-34.9-17 c-7-7.9-10.3-17.8-11.1-28.2c7.9,0,15.9,0,23.8,0c0.6,3.9,1.2,7.7,3.4,11.1c3.7,6.3,10.1,10,17,12c8.6,2.3,18,2.4,26.6-0.2 c6.5-2,12.6-5.7,16.3-11.5c3.6-5.6,4.2-13.1,0.9-19.1c-2.3-4.1-6-6.7-10-8.9c-7.6-4-15.7-6.1-23.7-8.7c-9.2-3-18.2-5.1-26.8-9.8 c-8-4.3-15.3-10.4-19.4-18.7c-5.9-12.1-4.3-27.5,3.6-38.3c6.3-8.8,15.8-14.7,26.1-17.8C83.4,702.2,96,701.9,107.8,704.4z"></path> <path class="st3" d="M568,703.7c7.7,0,15.4,0,23.1,0c0,18.1-0.1,36.2,0.1,54.3c3.5-4.2,6.9-8.3,11.7-11.2c8.9-5.8,20.4-7.4,30.7-5.1 c8.2,1.8,15.5,6.7,20.2,13.6c5.9,8.6,8,19.4,7.9,29.7c0,24.4,0.1,48.8,0,73.2c-7.6,0-15.3,0-22.9,0c0-24.1,0-48.2,0-72.2 c0-6.3-0.9-12.5-4.9-17.7c-4-5.1-10.3-7.4-16.7-7.1c-7.2,0.4-14.5,3.1-19.2,8.6c-4.8,5.5-6.7,13.1-6.7,20.2c0,22.7,0,45.5,0,68.2 c-7.7,0-15.4,0-23.1,0C568,806.7,568,755.2,568,703.7z"></path> <path class="st3" d="M892.8,703.7c7.7,0,15.4,0,23,0c0.1,29-0.1,58,0.1,87c3-1.7,4.8-4.3,7-6.8c12-13.8,24-27.6,36-41.4 c9.2,0,18.4,0,27.5,0c-14.7,16.5-29.4,33-44.2,49.5c15.9,22,31.8,44.1,47.7,66.2c-8.3,0-16.6,0-24.8,0c-12.4-17-24.7-34.1-37-51.1 c-4.1,4.4-8.2,8.8-12.3,13.2c0,12.7,0,25.3,0,38c-7.7,0-15.4,0-23,0C892.8,806.7,892.8,755.2,892.8,703.7z"></path> <path class="st3" d="M353,741c4.1,0.5,7.8,2,11.3,4c-2.4,6.8-4.8,13.6-7.1,20.4c-8.8-4.2-19.1-3.1-26.6,3.2 c-7.5,6.3-11.5,16.8-11.4,26.4c0,21.1,0,42.1,0,63.2c-7.7,0-15.4,0-23,0c0-38.6,0-77.1,0-115.7c7.7,0,15.4,0,23,0 c0.1,6.4-0.2,12.8,0.2,19.1c2.5-2,3-4.8,4.8-7.4C330.4,745.1,342,739.3,353,741z"></path> <path class="st3" d="M507,740.8c9.7,0.5,19.2,3.1,26.7,9.5c6.3,5.4,10,12.6,12.4,20.4c-7,1.3-14.1,2.4-21.1,3.6 c-1.7-3.9-3.6-7.5-7-10.2c-6.6-5.2-15.9-5.7-23.7-3.7c-5.3,1.4-10.8,4.7-12.8,10c-1.6,4.6-0.1,9.5,3.5,12.7c5.7,5.1,14,6.2,21.1,7.9 c9.3,2.3,18.2,3.4,26.7,8.2c6.4,3.6,11.5,9.1,13.7,16.2c2.6,8.5,1.4,18.1-3.4,25.6c-4.2,6.6-10.7,11.4-17.9,14.3 c-10.3,4.2-21.2,5.1-32.2,4.2c-10.4-0.9-20.5-4.3-28.3-11.3c-6.1-5.4-10-12.5-12.4-20.2c7.4-1.5,14.7-2.9,22.1-4.4 c1.9,4.6,4,8.8,7.7,12.1c6.1,5.6,14.9,7,22.9,6.2c6-0.6,12.4-2.8,16.2-7.8c3.6-4.6,3.7-11.7-0.5-15.9c-4.7-4.7-12.2-6.2-18.5-7.5 c-12.6-2.8-25.1-4.8-34.9-14.1c-8.6-8-10.6-20.7-7.2-31.6c2.4-7.4,7.8-13.5,14.5-17.4C484.1,742,496.1,740.3,507,740.8z"></path> <path class="st3" d="M752.5,742.6c8.6,2.3,16.5,6.8,21.6,14.3c5.1,7.5,6.6,16.2,6.6,25.1c0,25.4,0,50.8,0,76.2c-8,0-16,0-24,0 c0-4.9,0-9.8-0.1-14.7c-2,2.8-3.8,5.5-6.3,7.9c-6.4,5.8-14.8,8.9-23.4,9.4c-10.3,0.6-21.2-1.9-29.4-8.4c-6.4-5-10.5-12.4-11.7-20.3 c-1.2-8-0.5-16.4,3.8-23.4c3.8-6.3,10.1-10.4,16.9-13.1c11.3-4.4,22.6-5.1,34.5-6.5c3.9-0.5,8.1-0.9,11.8-2.3 c1.4-0.5,3.2-1.6,3.8-3.1c1.1-8.2-1.8-17.6-9.8-21.3c-13-5.5-30.7,0-35.9,13.7c-7.4-1.7-14.7-3.5-22.1-5.3c1.8-4.9,4.1-9.5,7.4-13.5 c6.5-8,16-12.9,26-15C732.2,740.1,742.7,740.2,752.5,742.6z"></path> <path class="st3" d="M866,741c4,0.5,7.6,2,11,4c-2.3,6.8-4.8,13.6-7.1,20.5c-8.3-3.9-17.9-3.3-25.4,2.2 c-8.4,6.2-12.7,17.2-12.7,27.4c0,21.1,0,42.1,0,63.2c-7.7,0-15.3,0-23,0c0-38.6,0-77.1,0-115.7c7.7,0,15.3,0,23,0 c0.4,6.3-0.9,13.3,0.9,19.4c2-3.5,3.3-7,6-10.1C845.3,744.1,855.9,739.4,866,741z"></path> <path class="st3" d="M244.2,742.6c7.6-0.2,15.3,0,23-0.1c0,38.6,0,77.1,0,115.7c-7.4,0-14.8,0-22.2,0c-0.1-5.2,0-10.3-0.1-15.5 c-2.9,3.2-5.5,6.5-9,9.2c-9.5,7.3-22.5,9.5-34.1,7c-8.6-2-16.4-7.1-21.4-14.5c-5.8-8.4-7.8-18.4-7.9-28.5c0-24.5,0-49,0-73.5 c7.7,0,15.3,0,23,0c0,23.2,0,46.4,0,69.5c0,4.9,0.2,9.6,2.2,14.2c2.6,5.9,7.8,10.3,14.1,11.8c8,1.7,16.8,0.7,23.1-4.9 c6.4-5.7,8.7-13.8,9-22.1C244.3,788.2,243.9,765.3,244.2,742.6z"></path> <path class="st2" d="M756,802.1c-0.1,6,0.1,12-0.1,17.9c-0.2,6.8-4.7,13-10.5,16.4c-6.5,3.9-14,4.5-21.4,3.8 c-4.2-0.5-8.4-1.7-11.6-4.5c-6.3-5.2-6.5-16.3-0.5-21.8c3.5-3.2,8.5-4.9,13.1-5.9C735,806,746.5,805.8,756,802.1z"></path> </svg> 