<svg xmlns="http://www.w3.org/2000/svg" viewBox="0 0 74 8">
  <path fill="#FCC4B6" fill-rule="evenodd" d="M13.6 6.4c-.5.8-.9-.4-1.3 0-.2.2-.4 0-.5 0-.7-.3-.9 0-2.5.4-.2 0-.2-.2-.3-.2H5.3c-.4.5-.6 0-1.7.4-.4.1-.8.3-1.2.1-.2 0-1.3.3-1.6.7C.1 8.8.3 5.3 0 3 0 2 .2 1 .6 1.2 1.4 1.5 18.7 0 36.3 0c8.8 0 17.6.1 24.4.3 6.8.2 11.6.5 12.3.3.2-.1.7-.1.9.7.4 2-.3 3.7-.4 4.2-.2 1.3-.6.9-2.3.8-.2 0-.5.3-.6-.2-.2-.6-6.8-.4-7-.4-1 0-1.2-.4-2.4-.3-1.5.2-.5.5-1.3.2-.7-.3-.1-.4-.8-.3-2.3.3-2.2.2-3.9.3-3.7.4-2 .4-3.8.2-1.6 0-1.7.2-4.3-.1-.2 0 0-.5-.5-.2-.4.3-.7.1-1.4.1-1.6 0-1.5-.6-1.9 0H43c-1.8-.2-1.9 0-2-.5-.4-.7-.4.8-1.1.4h-.2c-1 .8-4-.3-6 .2h-.5c-.5-.1-1 0-1.5.1-.7.1-.5-.5-1-.2-.7.4-.5-.1-.9 0-.9.4-.4-.1-1 .1-.5.3-1 .2-1.5 0l-1 .3c-1.1-.2-.7-.6-1.4-.1h-.3l-.8.2h-.7c-.5.4-.8.1-1 .2-.6.2-1-.6-1.6-.2-.5.4-.5 0-1.8.2-1.2.2-.8-.2-1.8-.2-.5 0-1-.2-1.5.2-.7.5-.8 0-1.1.2-.3.3-.3.3-.7-.1"/>
</svg>
