<svg xmlns="http://www.w3.org/2000/svg" viewBox="0 0 74 9">
  <path fill="#FCC4B6" fill-rule="evenodd" d="M13.6 7.3c-.5.9-.9-.3-1.4.1h-.5c-.6-.3-.8 0-2.4.3l-.4-.1H5.2c-.4.4-.6 0-1.6.4-.4.1-.9.3-1.3.1-.2 0-1.3.3-1.6.7C0 9.8.3 6.3 0 4 0 3 .2 2 .6 2.2c.8.3 18.1-1 35.7-1.5C45 .4 53.9.3 60.7.3c6.7 0 11.5 0 12.2-.3.1 0 .6 0 .9.8.5 2-.1 3.6-.1 4.1-.1 1.3-.6 1-2.3 1-.2 0-.5.3-.6-.2-.2-.7-6.8-.2-7.1-.2-.9 0-1.2-.3-2.4-.2-1.4.3-.4.5-1.2.2-.7-.2-.2-.3-.9-.2l-3.8.5c-3.8.4-2.1.4-3.8.3h-4.3c-.2 0-.2-.5-.6-.2-.4.3-.7.1-1.4.1-1.6.1-1.5-.5-1.9 0h-.3c-1.8 0-1.9 0-2-.4-.4-.7-.4.8-1.2.5-1 .8-4.1-.3-6.2.3-.1 0-.3.1-.4 0-.5-.1-1 0-1.6.1-.6.1-.5-.5-1-.2-.7.4-.5-.1-.8 0-1 .5-.5 0-1 .2-.5.3-1 .2-1.6 0l-1 .3c-1-.2-.7-.5-1.4-.1l-.2.1h-.9l-.5.2h-.2c-.5.3-.8 0-1 .1-.6.3-1-.6-1.6-.1-.5.4-.5 0-1.8.2-1.2.2-.8-.2-1.8-.2-.5 0-1-.1-1.5.2-.7.5-.9 0-1.1.3-.4.2-.4.2-.7-.2"/>
</svg>
