<svg width="63" height="74" fill="none" xmlns="http://www.w3.org/2000/svg"><path d="M16.016 9.586c.536-.694 1.392-1.253 2.292-1.497.9-.244 1.83-.169 2.492.202-.523-.36-.977-.805-1.175-1.373-.198-.567-.112-1.273.355-1.864.199-.251.43-.651.133-.706l.103.021c-1.441 1.181-3.676 1.545-5.022.816l-.218.045c1.627.605 2.066 2.562.919 4.1" stroke="#000" stroke-width="1.44" stroke-linecap="round" stroke-linejoin="round"/><path clip-rule="evenodd" d="M42.375 66.195c0 1.895-1.45 3.602-3.75 4.693-1.692.803-3.84 1.25-6.165 1.25-2.326 0-4.476-.44-6.169-1.242-2.298-1.092-3.775-2.806-3.775-4.7 0-.312.008-.6.086-.898.417 1.628 1.974 3.028 4.12 3.941 1.62.689 3.601 1.058 5.738 1.058 2.137 0 4.133-.336 5.753-1.024 2.146-.913 3.61-2.377 4.026-4.005.078.298.136.616.136.927z" stroke="#000" stroke-width="1.28" stroke-linejoin="round"/><path clip-rule="evenodd" d="M42.246 65.281c-.416 1.628-1.893 3.064-4.04 3.976-1.619.688-3.608 1.1-5.746 1.1-2.136 0-4.11-.446-5.73-1.135-2.146-.912-3.698-2.313-4.115-3.94.417-1.628 1.957-3.058 4.103-3.97 1.62-.689 3.606-1.057 5.742-1.057 2.138 0 4.1.424 5.72 1.113 2.147.913 3.65 2.285 4.066 3.913z" stroke="#000" stroke-width="1.28" stroke-linejoin="round"/><path fill-rule="evenodd" clip-rule="evenodd" d="M33.38 17.695c.334 3.819.017 3.833.017 7.666 0 3.831-.039 3.831-.039 7.663 0 3.832.095 3.832.095 7.666 0 3.832-.109 3.832-.109 7.665 0 3.834.02 3.834.02 7.667 0 3.834.366 3.85-.015 7.665-.112 1.115-.806 1.503-1.546-.022 0-.92-.182-3.756-.182-7.638 0-2.268-.005-4.884-.005-7.666 0-2.468.1-5.066.1-7.666 0-2.597-.09-5.195-.09-7.667 0-2.774-.01-5.39-.01-7.667 0-3.723.003-6.57.003-7.694.83-1.844 1.655-1.19 1.761.028z" fill="#fff"/><path clip-rule="evenodd" d="M33.38 17.695c.334 3.819.017 3.833.017 7.666 0 3.831-.039 3.831-.039 7.663 0 3.832.095 3.832.095 7.666 0 3.832-.109 3.832-.109 7.665 0 3.834.02 3.834.02 7.667 0 3.834.366 3.85-.015 7.665-.112 1.115-.806 1.503-1.546-.022 0-.92-.182-3.756-.182-7.638 0-2.268-.005-4.884-.005-7.666 0-2.468.1-5.066.1-7.666 0-2.597-.09-5.195-.09-7.667 0-2.774-.01-5.39-.01-7.667 0-3.723.003-6.57.003-7.694.83-1.844 1.655-1.19 1.761.028z" stroke="#000" stroke-width="1.28" stroke-linejoin="round"/><path d="M10.816 17.15c1.963-.107 1.977-.502 3.91-.148.751 1.073 2.332.73 3.25-.015.52.008 3.524.024 7.387-.021 2.248-.027 4.8-.106 7.35-.138 2.554-.032 5.106-.071 7.35-.1 4.22-.056 3.773-.851 7.364-.073.818.898 1.851 1.155 3.31.124 1.663-.014 1.78.072 3.548.057" stroke="#000" stroke-width="1.28" stroke-linejoin="round"/><path clip-rule="evenodd" d="M24.804 44.638c0 1.913-4.435 3.424-9.889 3.424-5.453 0-9.89-1.51-9.89-3.424 0-1.913 4.437-3.422 9.89-3.422 5.454 0 9.889 1.509 9.889 3.422z" stroke="#000" stroke-width="1.28" stroke-linejoin="round"/><path d="M5 44.624c1.213-3.464 1.218-3.462 2.43-6.925 1.213-3.464 1.235-3.456 2.447-6.92 1.213-3.465 1.181-3.476 2.394-6.94 1.212-3.464 1.243-3.453 2.456-6.918M18.045 17.058c.846 3.446.78 3.463 1.626 6.909.846 3.446.904 3.432 1.75 6.879.847 3.446.86 3.443 1.707 6.89.846 3.447.826 3.452 1.673 6.9M39.264 44.629c1.102-3.387 1.157-3.37 2.26-6.757 1.102-3.386 1.027-3.411 2.129-6.798 1.103-3.388 1.113-3.385 2.215-6.772 1.103-3.388 1.19-3.36 2.292-6.748M49.84 17.527c1.154 3.387 1.128 3.395 2.282 6.783l2.31 6.774c1.155 3.387 1.165 3.384 2.32 6.771 1.155 3.388 1.092 3.41 2.247 6.797" stroke="#000" stroke-width="1.28" stroke-linejoin="round"/><path clip-rule="evenodd" d="M58.98 44.638c0 1.913-4.435 3.424-9.889 3.424-5.453 0-9.89-1.51-9.89-3.424 0-1.913 4.437-3.422 9.89-3.422 5.454 0 9.889 1.509 9.889 3.422z" stroke="#000" stroke-width="1.28" stroke-linejoin="round"/><path fill-rule="evenodd" clip-rule="evenodd" d="M20.855 40.226a5.441 5.441 0 11-10.882 0 5.441 5.441 0 0110.882 0z" fill="#fff"/><path fill-rule="evenodd" clip-rule="evenodd" d="M54.875 40.226a5.441 5.441 0 11-10.882 0 5.441 5.441 0 0110.882 0z" fill="#3AC2B9"/><path d="M54.875 40.226a5.441 5.441 0 11-10.882 0 5.441 5.441 0 0110.882 0" stroke="#000"/><path fill-rule="evenodd" clip-rule="evenodd" d="M20.584 39.978l-.008-.11c-.005-.074-.01-.181-.039-.318a4.9 4.9 0 00-.313-1.139 5.127 5.127 0 00-2.699-2.782c-1.428-.657-3.388-.563-4.82.425a5.07 5.07 0 00-1.677 1.884 5.145 5.145 0 00-.551 2.287c0 .75.178 1.549.551 2.289.375.737.96 1.403 1.676 1.884 1.433.988 3.393 1.082 4.821.425a5.112 5.112 0 002.698-2.782c.196-.464.268-.866.314-1.139.03-.136.034-.245.039-.317l.008-.11c.03-.332.52-.34.518.023 0 0 0 .043-.003.123-.002.08-.002.2-.027.351a5.433 5.433 0 01-.293 1.279 5.707 5.707 0 01-.976 1.726 5.833 5.833 0 01-1.961 1.535c-1.615.816-3.908.793-5.643-.338a5.94 5.94 0 01-2.042-2.205 5.987 5.987 0 01-.686-2.744 5.987 5.987 0 01.687-2.742 5.935 5.935 0 012.041-2.205c1.735-1.131 4.028-1.154 5.643-.338.817.394 1.48.949 1.961 1.535.485.586.79 1.2.976 1.726.195.527.256.975.293 1.28.025.151.025.27.027.35l.003.122c-.033.373-.468.346-.518.025z" fill="#000"/><path d="M15.834 17.677c0 3.801.013 3.801.013 7.602 0 3.8.004 3.8.004 7.601s-.038 3.801-.038 7.603c0 3.801.033 3.801.033 7.603M49.013 17.539c.02 3.82.013 3.82.032 7.64.019 3.82.055 3.82.074 7.64.02 3.82.008 3.821.027 7.642.02 3.82-.01 3.82.01 7.64" stroke="#000" stroke-width="1.28" stroke-linejoin="round"/><path fill-rule="evenodd" clip-rule="evenodd" d="M25.767 65.405s-.416.619-.776.899c-.364.272-1.07.511-1.07.511-.027.006-.324-.385-.315-.412 0 0 .416-.62.775-.899.365-.272 1.071-.511 1.071-.511.05.026.314.372.315.412zM27.623 66.512s-.557.809-1.014 1.218c-.463.401-1.336.852-1.336.852-.032.013-.356-.356-.343-.39 0 0 .557-.808 1.014-1.217.463-.402 1.336-.852 1.336-.852.058.017.345.344.343.39zM29.854 66.89s-.655.897-1.175 1.364c-.527.46-1.499 1-1.499 1-.036.015-.36-.353-.343-.39 0 0 .655-.898 1.175-1.364.527-.46 1.498-1 1.498-1 .063.015.35.341.344.39zM31.976 67.418s-.645.872-1.158 1.32c-.518.44-1.474.95-1.474.95-.036.014-.356-.359-.34-.394 0 0 .646-.871 1.158-1.319.519-.44 1.476-.95 1.476-.95.06.016.344.346.338.393zM33.333 67.739s-.24.727-.514 1.106c-.282.374-.906.817-.906.817-.024.013-.418-.28-.417-.309 0 0 .24-.726.514-1.106.282-.373.905-.816.905-.816.056.01.406.268.418.308zM37.156 67.002s-.768 1.148-1.37 1.783c-.61.63-1.723 1.446-1.723 1.446-.04.026-.394-.314-.375-.359 0 0 .769-1.147 1.37-1.782.61-.63 1.723-1.447 1.723-1.447.07.003.383.304.375.36zM38.985 67.465s-.43.73-.81 1.09c-.384.354-1.14.734-1.14.734-.03.011-.364-.348-.355-.379 0 0 .43-.73.81-1.09.384-.354 1.14-.734 1.14-.734.056.018.353.336.355.379z" fill="#262626"/></svg>