<svg width="63" height="74" fill="none" xmlns="http://www.w3.org/2000/svg"><path d="M56.714 25.147H19.058c-1.784 0-3.287 1.51-3.287 3.3v23.577c0 1.791 1.503 3.3 3.287 3.3h1.784v8.016c0 .566.658.943 1.127.566l10.705-8.582H56.62c1.784 0 3.287-1.509 3.287-3.3V28.448c.094-1.886-1.315-3.3-3.193-3.3z" fill="#000"/><path d="M50.329 16.943h-3.287c-1.596 0-1.596-.189-3.287-.189H40.47c-1.597 0-1.597.19-3.287.19-1.596 0-1.596-.095-3.287-.095-1.69 0-1.69-.189-3.286-.189-1.69 0-1.69.189-3.287.189-1.596 0-1.596-.189-3.287-.189H20.75c-1.69 0-1.69.095-3.287.095h-3.287c-1.69.094-1.69.188-3.38.188H7.508c-1.033 0-1.878.377-2.535 1.037-.658.66-1.221 1.604-1.221 2.64 0 1.698.094 1.698.094 3.302v9.901c0 1.698-.094 1.698-.094 3.3v3.301c0 1.698.188 1.698.188 3.301 0 1.603-.188 1.697-.188 3.3 0 1.038.563 1.887 1.22 2.641.658.755 1.597 1.037 2.63 1.037.47 0 .47-.094.94-.094.656 0 1.22.66 1.22 1.32 0 1.98-.188 1.98-.188 3.961v4.244c0 .66.845 1.037 1.315.66 1.22-.943 1.22-1.038 2.441-1.98 1.221-.944 1.127-1.038 2.348-2.075 1.22-.943 1.408-.755 2.63-1.792 1.22-.943 1.22-.943 2.44-1.98 1.221-.943.94-1.51 2.348-1.98 1.597-.567 1.69 0 3.38 0 1.691 0 1.691-.19 3.381-.19 1.69 0 1.69.19 3.38.19h3.381c1.69 0 1.69.094 3.381.094 1.69 0 1.69-.095 3.38-.095s1.69.189 3.381.189c1.69 0 1.69-.094 3.38-.094 1.034 0 1.973-.566 2.63-1.226.657-.66 1.22-1.603 1.22-2.64 0-1.698-.187-1.698-.187-3.301v-3.301c0-1.697.094-1.697.094-3.3 0-1.698.188-1.698.188-3.301 0-1.698-.282-1.698-.282-3.3 0-1.698.094-1.698.094-3.301 0-1.698.094-1.698.094-3.3 0-1.604-.188-1.698-.188-3.302 0-1.037-.282-1.98-.939-2.734-.563-.849-1.502-1.132-2.535-1.132z" fill="#F5F1F0"/><path d="M51.924 18.075l.188.094c.375.189.657.471.845.849.188.283.188.66.282 1.037v1.226c0 .943.188 1.697.188 2.64 0 .85 0 1.698-.094 2.64 0 .944 0 1.698-.094 2.641 0 .943-.094 1.792 0 2.735.094.472.094.849.188 1.32v1.226c0 .472 0 .849-.094 1.226 0 .472-.094.943-.094 1.32 0 .943 0 1.698-.094 2.64v5.282c.094.943.188 1.697.188 2.546 0 .66-.376 1.32-.846 1.886-.469.566-1.126.943-1.784 1.037h-5.07c-.846-.094-1.785-.094-2.63-.094-.939 0-1.784.094-2.63.094h-2.628c-1.785-.094-3.569.095-5.165 0-.376 0-.845-.094-1.221-.094-.47-.094-.94-.094-1.409-.094-.845 0-1.878.094-2.629.188h-1.22c-.376 0-.752-.094-1.221-.188-.47-.094-1.127-.094-1.597.094-.47.094-.939.283-1.408.566-.282.188-.47.377-.658.566l-.375.566c-.282.282-.47.471-.845.754l-2.066 1.603c-.376.283-.658.472-1.033.755a11.95 11.95 0 01-1.127.66c-.376.283-.751.566-1.033.848-.376.283-.657.66-1.033.85-.563.565-1.315 1.036-1.972 1.602l-1.033.849-.188.283h-.094c-.094.283 0-1.037-.094-1.886s-.094-1.698-.094-2.546c0-.85.094-1.698.188-2.64v-1.038c0-.189 0-.377-.094-.472-.187-.66-.657-1.131-1.408-1.32-.376-.094-.658-.094-.94 0h-.563c-.375 0-.657-.094-1.033-.188-.281-.19-.563-.378-.845-.66-.281-.284-.563-.566-.657-.85-.188-.282-.282-.66-.376-.942-.094-.283 0-.755 0-1.132.094-.754.188-1.792.188-2.64 0-.472 0-.944-.094-1.415-.094-.471-.094-.849-.094-1.226v-2.64-2.64c0-.85.094-1.793.094-2.641.094-1.698.094-3.49 0-5.281 0-1.698.094-3.49 0-5.281l-.094-1.226V20.62v-.283c.094-.66.47-1.32 1.033-1.886.47-.472 1.127-.849 1.878-.849H9.95c.845 0 1.784 0 2.723-.094.845-.095 1.69-.095 2.535-.095h2.63c.47 0 .939 0 1.314-.094.47 0 .846 0 1.315-.094h2.63c.938 0 1.69 0 2.535.094.939.095 1.784.095 2.723.095.94-.095 1.69-.19 2.536-.19.469 0 .845 0 1.22.095.47 0 .94.095 1.315.095h2.63c.844 0 1.783 0 2.722-.095.846-.094 1.69-.094 2.536-.094h2.63c.469 0 .844 0 1.22.094.376 0 .939.095 1.315.095.563 0 1.033 0 1.502.094h.282c1.127 0 1.972-.377 1.972-.755 0-.377-.94-.754-2.066-.754h-.282c-.563 0-1.033.094-1.596 0-.564 0-1.033-.094-1.69-.094h-1.69c-1.128 0-2.254-.095-3.475 0-.94.094-1.597.188-2.442.094h-2.535c-.845 0-1.596 0-2.442-.094-.75.094-1.596.094-2.535.094-.94.094-1.597.189-2.442.094-.375 0-.75 0-1.22-.094-.376 0-.845-.094-1.315-.094-1.69 0-3.287-.095-5.07 0-.846.094-1.597.094-2.442.094h-2.536c-.845 0-1.784 0-2.535.094-.752.095-1.597 0-2.442 0H6.944c-1.033.283-1.972.849-2.63 1.51-.563.754-1.126 1.602-1.22 2.64v1.32l.094 1.226c.094 1.603 0 3.3 0 4.998v12.636c0 .85.094 1.792.187 2.547v2.357c0 .377-.093.849-.093 1.32v.66c0 .283 0 .566.093.755 0 1.131.564 1.886 1.315 2.546.751.66 1.69 1.037 2.723 1.132H8.54c.094 0 .282.188.376.377v.943c0 .377 0 .754-.094 1.226-.094.849-.094 1.792-.094 2.546 0 .849.094 1.697.094 2.546v1.037c0 .19.094.378.188.566.375.66 1.22 1.038 1.972.66.47-.283.47-.377.657-.565l.47-.378.939-.754a15.788 15.788 0 001.972-1.697c.563-.566 1.22-1.038 1.878-1.51.281-.188.75-.377 1.127-.66.375-.282.75-.565 1.033-.754l1.971-1.603c.376-.283.752-.66 1.033-.943.282-.377.47-.566.658-.66.282-.189.657-.283.939-.377.375-.095.563-.095.939 0 .376.094.845.188 1.315.188h1.314c.94-.094 1.69-.188 2.442-.188.845 0 1.502.094 2.441.188.94.095 1.69 0 2.536 0 1.69-.094 3.286 0 4.977 0 .845 0 1.69 0 2.535-.094h2.441c1.69.189 3.475.094 5.071.094h.658c.281 0 .47-.094.75-.094.47-.094.94-.377 1.316-.566.845-.566 1.502-1.226 1.878-2.169.188-.471.375-.943.375-1.509v-1.32-2.546c0-1.697 0-3.395.094-4.998.094-.849 0-1.697.094-2.546.094-.755.188-1.698.094-2.546 0-.472 0-.944-.094-1.32-.094-.472-.188-.755-.188-1.227v-2.451-2.547c0-.848.094-1.697.094-2.546 0-.471 0-.849-.094-1.32v-1.132c0-.377 0-.848-.094-1.32-.093-.471-.187-.943-.375-1.414-.282-.566-.752-1.038-1.221-1.415-.094-.094-.188-.189-.376-.189-.657-.283-1.22-.377-1.69-.283-.375.095-.657.283-.657.472.094.471.939.754 1.69 1.132z" fill="#111"/><path d="M10.418 22.507l-.094.094c-.187.094-.281.283-.375.377v.095l-.564 1.037-.187.566-.658.094c-.375.094-.939.094-1.314.189a1.297 1.297 0 00-.376.283c-.094.094-.188.188-.188.377v.377c0 .094.094.283.282.472.939.943 1.408 1.32 1.22 1.226l-.093.565c-.094.378-.188.943-.188 1.32 0 .19.094.378.094.472 0 .094.094.189.281.283a.707.707 0 00.376.094c.188 0 .282 0 .564-.094l1.314-.566.282-.094.563.283c.376.188.846.471 1.221.566.188.094.376 0 .47 0 .094 0 .281-.095.375-.19.094-.093.188-.188.188-.376.094-.095.094-.283.094-.566l-.282-1.697c0-.095-.094.094.282-.378l.657-.66.376-.377c.094-.094.188-.283.188-.377v-.283c0-.095-.094-.283-.188-.377-.094-.095-.282-.283-.657-.378-1.127-.188-1.878-.283-1.785-.188l-.47-1.226c0-.094-.093-.094-.093-.189 0-.188-.376-.094-.751.095-.376.188-.658.377-.564.565l.188.189.376.849.094.283.093.188.094.189c.188.283.564.377.94.377l.563.094s.094 0 0 0l-.094.283c-.188.189-.282.189-.563.566-.282.283-.188.755-.094 1.037l.094.66s0 .095 0 0l-.94-.377c-.469-.377-1.22.189-1.314.283l-.376.189h-.094v-.095l.188-.942c.188-.566-.563-1.038-.657-1.226l-.282-.283.94-.095a.716.716 0 00.469-.188c.094-.095.188-.283.281-.472l.282-.566.563-1.037s0-.094.094-.094c-.187-.189-.281-.283-.47-.283 0 0-.093.094.189-.094.188-.095.375-.283.281-.472-.094-.283-.47-.471-.845-.377zM19.434 22.507c-.094 0-.094.094-.188.094l-.188.189c0 .094-.094.188-.094.188v.095l-.47 1.037-.187.471-1.409.19c-.375 0-.75.188-.845.282-.094.094-.094.094-.188.283-.094.094-.094.283-.094.377 0 .189.094.472.376.755l.751.754.376.377-.188.755c-.094.377-.188.943-.188 1.32 0 .189.094.377.094.471 0 .095.188.189.282.283a.707.707 0 00.376.095c.187 0 .281 0 .563-.095 1.22-.66 1.69-.943 1.596-.848l.564.283c.281.188.845.471 1.22.565.188.095.376.095.47 0 .094 0 .282-.094.376-.188.188-.095.188-.189.281-.377.094-.095.094-.283.094-.566-.188-1.415-.375-1.886-.281-1.792l.47-.472c.28-.283.657-.66.938-.943.094-.188.188-.282.188-.471 0-.094 0-.283-.094-.472-.094-.188-.188-.188-.282-.283a.716.716 0 00-.47-.188l-.657-.095-.563-.094-.47-.094s0 .094-.187-.377l-.564-.566v-.189c-.094-.094-.47-.094-.845.095-.375.188-.657.471-.563.565l.188.189.47.849.28.566c.095.283.376.471.658.565l.94.095s.093 0 0 .094l-.658.66c-.47.377-.188 1.226-.188 1.415l.094.377v.094h-.094l-.845-.566c-.282-.094-.564-.188-.845 0-.094 0-.282.095-.376.189l-.188.094-.375.189H18.4l.188-.943a.898.898 0 00-.376-.943l-.47-.472-.093-.094h.094l.939-.094a.716.716 0 00.469-.189c.094-.094.188-.283.282-.471l.281-.566.47-1.038s0-.094.094-.094l-.376-.377s-.094.094.188-.094c.188-.095.376-.189.282-.472-.094-.283-.564-.566-.94-.377zM28.541 22.507c-.094.094-.188.094-.188.094-.093.094-.281.283-.281.377v.095l-.47 1.037-.281.471-1.409.19c-.376 0-.751.188-.845.282-.094.094-.094.094-.188.283-.094.094-.094.283-.094.377 0 .189.094.472.376.755l.751.754.376.377-.094.66c-.094.472-.188.943-.188 1.32 0 .19.094.378.094.472 0 .094.188.189.281.283.188.094.188.094.376.094.094 0 .282 0 .564-.094 1.22-.66 1.69-.943 1.596-.849l.563.283c.376.189.846.472 1.221.66.188.095.376.095.47 0 .094 0 .281-.094.375-.188.094-.095.188-.189.188-.378.094-.094.094-.282.094-.565l-.188-1.415c-.094-.471-.094-.283 0-.377l.47-.377.939-.943c.094-.189.188-.283.188-.472 0-.094 0-.283-.094-.471-.094-.189-.188-.189-.282-.283a.716.716 0 00-.47-.189l-1.408-.189H30.7l-.563-1.131c0-.094-.094-.094-.094-.189-.094-.094-.47-.094-.845.095-.376.188-.658.471-.564.565l.188.189.376.849.281.566a.706.706 0 00.658.471c.094 0 .281.094.375.094H31.077s.094 0 0 .095l-.658.66c-.47.377-.187 1.226-.187 1.414l.094.378v.094h-.094l-.94-.472c-.281-.094-.563-.188-.845 0l-.563.283-.376.189h-.093l.187-.943a.898.898 0 00-.375-.943l-.47-.472-.094-.094h.094l.94-.094c.187-.095.375-.095.469-.189.094-.094.188-.283.281-.471l.282-.566.564-1.226s0-.095.094-.095l-.47-.188s-.094.094.188-.094c.188-.095.375-.19.282-.472-.094-.283-.47-.471-.846-.377zM37.463 22.601c-.094 0-.094.095-.188.095-.281.377-.187.377-.187.471l-.47 1.037-.188.472-1.502.189c-.376 0-.751.188-.845.282l-.282.283c-.094.095-.094.283-.094.378 0 .188.094.471.376.754l.845.754.375.378-.093.565c-.094.378-.188.943-.188 1.32 0 .19.094.378.094.472 0 .094.093.189.281.283a.707.707 0 00.376.094c.094 0 .282 0 .563-.094 1.221-.66 1.69-.943 1.597-.849l.563.283c.282.189.845.472 1.22.566.189.094.377 0 .47 0 .094 0 .282-.094.376-.189.188-.094.188-.188.188-.377.094-.094.094-.283.094-.566-.188-1.414-.376-1.886-.282-1.791l.376-.378.939-.943c.094-.188.188-.282.188-.471 0-.094 0-.283-.094-.472-.094-.188-.188-.188-.282-.282a.716.716 0 00-.47-.19l-1.408-.188c-.47-.094-.282 0-.376-.094l-.563-1.132c0-.094-.094-.094-.094-.188-.094-.095-.47-.095-.845.094-.188.377-.47.66-.376.754l.188.189.376.849.281.566c.188.565 1.127.471 1.221.565l.376.095h.093l-.657.66c-.47.377-.188 1.226-.188 1.414l.094.378v.094h-.094l-.845-.472c-.47-.377-1.22.189-1.408.283l-.282.189h-.094v-.094l.188-.944c0-.188 0-.377-.094-.565-.094-.189-.188-.283-.376-.472l-.47-.377-.093-.094h.094l.939-.189c.188-.094.376-.094.47-.188.093-.095.187-.283.281-.472l.282-.566.563-1.037s0-.095.094-.095c-.188-.094-.376-.094-.47-.188h.094l.094-.094c.188-.095.376-.189.282-.472-.094-.283-.563-.566-1.033-.283zM46.572 22.601c-.094 0-.094.094-.188.094l-.188.189v.189l-.469 1.037-.188.471-.563.095c-.376.094-.94.094-1.315.188a1.297 1.297 0 00-.376.283c-.093.095-.187.189-.187.378v.377c0 .094.094.283.281.471l1.033 1.038c.282.282.188.188.188.282l-.282.66c-.093.378-.187.944-.187 1.32 0 .19.093.378.093.472 0 .095.094.189.282.283.188.095.188.095.376.095.094 0 .282 0 .563-.095 1.221-.66 1.69-.943 1.597-.849l.563.283c.282.189.845.472 1.22.566.189.095.376.095.47 0 .094 0 .282-.094.376-.188.094-.095.188-.189.188-.283.094-.095.094-.283.094-.566l-.282-1.697c0-.095-.094.094.282-.378l.657-.66.376-.377c.094-.094.094-.283.187-.377v-.283c0-.095-.093-.283-.187-.377a1.315 1.315 0 00-.658-.378 20.239 20.239 0 00-1.408-.188h-.282l-.563-1.132c0-.094-.094-.094-.094-.188-.094-.095-.47-.095-.846.094-.375.189-.657.471-.563.566l.188.188.376.755.281.566a.706.706 0 00.658.471c.093 0 .281.094.375.094H49.014s.093 0 0 0l-.094.283-.188.189-.376.377c-.281.283-.281.66-.188 1.037l.094.66v.095h-.093l-.752-.472c-.47-.377-1.22.189-1.314.283l-.282.189h-.094v-.095l.188-.942c.188-.566-.564-1.038-.657-1.226l-.282-.283.939-.095a.716.716 0 00.47-.188c.093-.095.187-.283.281-.472l.282-.566.563-1.037s0-.094.094-.094l-.47-.189s-.093.095.188-.094c.188-.094.376-.189.282-.472-.188-.377-.657-.66-1.033-.377z" fill="#EB603D"/><path d="M49.953 33.163c-.188 0-.376.094-.47.094H36.618c-.939 0-1.69.095-2.535.095-.845 0-1.596-.095-2.535-.189h-2.63c-1.596.094-3.38 0-5.07 0-.846 0-1.785.094-2.63.094h-5.071c-.845-.094-1.784-.094-2.63-.094-.844 0-1.69-.094-2.535-.094H7.884c-.282 0-.47.377-.47.754s.188.755.47.755h.093c.094 0 .282-.095.376-.095h4.132c.845.095 1.69 0 2.441.095.752 0 1.69.094 2.536.094h2.441c.846 0 1.69 0 2.536-.094.845-.095 1.596 0 2.441 0h2.442c.845 0 1.784-.095 2.535-.095.845 0 1.597 0 2.348.095.845.094 1.69.094 2.535.094.845 0 1.597-.094 2.442-.094h12.301c.094 0 .282 0 .376.094h.094c.281 0 .47-.377.47-.755 0-.377-.189-.754-.47-.754zM49.953 36.464h-.47c-.751-.095-1.784-.189-2.63-.189-.469 0-.938 0-1.314.094-.47 0-.845.095-1.22.095-.846 0-1.597 0-2.536-.095-.939-.094-1.784 0-2.63 0h-2.535c-.845 0-1.69.095-2.535.095-.845 0-1.596-.095-2.535-.189-.94-.094-1.785 0-2.63 0-1.69.094-3.38 0-5.165.094-1.784 0-3.38.095-5.164 0h-5.165c-.94 0-1.69.095-2.535.095H8.353c-.094 0-.282 0-.376-.095h-.093c-.282 0-.47.378-.47.755s.188.754.47.754H27.322c.845 0 1.69-.094 2.441-.094.845 0 1.597 0 2.348.094.845.094 1.69.094 2.535.094.846 0 1.597-.094 2.442-.094.845 0 1.69 0 2.441-.094.845 0 1.597 0 2.442.094.845.094 1.69.094 2.535.094 1.785-.188 3.1-.188 4.883 0 .094 0 .282 0 .376.095h.094c.282 0 .563-.377.563-.755 0-.471-.188-.848-.47-.848zM49.953 39.481h-.47c-.75-.094-1.784-.188-2.629-.094H39.06c-.751.189-1.596.189-2.442.189-.845 0-1.69-.095-2.629-.095-.845 0-1.878.095-2.63.095-.844 0-1.69 0-2.44-.095-1.785-.188-3.569 0-5.26 0-1.784 0-3.38.095-5.07-.094a13.142 13.142 0 00-2.723 0c-.752.189-1.503.189-2.442.189-.375 0-.845 0-1.22-.095-.47 0-.94-.094-1.315-.094-.845 0-1.878.094-2.63.189H7.79c-.282 0-.47.377-.47.754s.188.755.564.755h.094c.094 0 .281-.095.375-.095.658 0 1.127-.188 1.69-.188.752 0 1.597 0 2.348.094.845.094 1.69.094 2.536 0 .939-.094 1.596-.189 2.441-.094.845 0 1.503.094 2.442.188h4.977c.845 0 1.596-.094 2.441-.094.845 0 1.502.094 2.442.094.845 0 1.69 0 2.535-.094.751-.094 1.596-.094 2.348-.094 1.596.094 3.38.094 4.977 0h7.324c.845 0 1.503.094 2.442.094.093 0 .281 0 .375.094h.094c.282 0 .47-.377.47-.754.281-.377 0-.755-.282-.755zM28.073 42.593c-.094 0-.188.095-.188.095l-2.535.094h-4.977c-.751 0-1.69-.094-2.536-.094H7.696c-.094 0-.282.377-.282.754s.094.754.282.754c.094 0 .094-.094.188-.094H18.307c.751 0 1.596.094 2.442.094h4.882l2.442-.094h.188c.094 0 .282-.377.282-.754-.188-.472-.282-.755-.47-.755z" fill="#111"/></svg>