<svg width="64" height="75" fill="none" xmlns="http://www.w3.org/2000/svg"><path fill-rule="evenodd" clip-rule="evenodd" d="M51.736 50.028c0 1.41-.034 1.41-.034 2.818 0 2.623-2.034 4.862-4.656 4.931-2.712.071-4.946-2.123-4.946-4.82 0-1.465.02-1.465.02-2.93 0-.027.014-.047.041-.047 2.378 0 2.378-.018 4.756-.018s2.378-.006 4.756-.006c.028 0 .063.044.063.072z" fill="#000"/><path clip-rule="evenodd" d="M23.584 24.446c-2.9 0-2.9.017-5.8.017-2.899 0-2.899-.017-5.798-.017-.079 0-.13-.034-.13-.113 0-1.1.017-1.1.017-2.2 0-.08.034-.133.113-.133 2.9 0 2.9.02 5.799.02 2.9 0 2.9-.023 5.799-.023.078 0 .129.057.129.136 0 1.1.04 1.1.04 2.2 0 .08-.091.113-.17.113zM37.156 24.436c.028 0 .11.062.11.09l.001 5.683c0 2.844-.035 2.844-.035 5.686s-.007 2.842-.007 5.685c0 2.844.03 2.844.03 5.688s-.074 2.844-.074 5.688c0 2.698-2.197 4.876-4.908 4.805-2.622-.069-4.668-2.29-4.668-4.913 0-2.83-.053-2.83-.053-5.663 0-2.832.059-2.832.059-5.664s-.075-2.832-.075-5.662c0-2.834.034-2.834.034-5.667 0-2.833-.04-2.833-.04-5.667 0-.027.09-.005.117-.005 2.377 0 2.377.006 4.755-.008 2.377-.013 2.377-.076 4.754-.076z" stroke="#000" stroke-width="1.28"/><path fill-rule="evenodd" clip-rule="evenodd" d="M37.157 31.037c.028 0 .016.049.016.076 0 2.73-.018 2.73-.018 5.46s-.008 2.73-.008 5.459c0 2.73.08 2.73.08 5.462 0 2.731-.085 2.731-.085 5.462 0 2.698-2.156 4.83-4.867 4.759-2.621-.069-4.696-2.245-4.696-4.867 0-2.716.08-2.716.08-5.433 0-2.716-.1-2.716-.1-5.432 0-2.717.023-2.717.023-5.435v-5.435c0-.027.038.01.065.01 2.378 0 2.378.01 4.756.002 2.377-.009 2.377-.088 4.754-.088z" fill="#5D66EB"/><path fill-rule="evenodd" clip-rule="evenodd" d="M38.051 24.333h.01-.13V24.323c0-.017 0-.041-.002-.073l-.01-.28-.043-1.04-.013-.35-.01-.152c-.003-.023-.002-.05-.023-.065-.02-.014-.055-.003-.085-.004l-.212.012-1.968.046-4.566.088-2.33.048-1.753.019h-.001v.125l.002.268.005.554V23.916l-.001.004c.004.004-.02.015.015.015l.052.004.188.004 1.173.013c1.57.011 3.163.034 4.574.074l4.96.167c.294.014.284.581-.001.6l-1.423.039-3.537.071-4.565.12-1.18.023-.145.002c-.058-.002-.156-.015-.232-.022l-.488-.05c-.171.016-.301-.104-.396-.24-.05-.06-.058-.145-.083-.222-.02-.08-.055-.15-.046-.25l-.025-1.284-.007-.686c.005-.084-.012-.185.013-.254l.067-.21c.035-.134.172-.252.288-.321.278-.052.582-.066.88-.1h.543l1.116.005 2.334.018c1.576.022 3.162.061 4.573.105l1.964.056c.17.01.422.046.616.066.103.017.21 0 .278.08a.395.395 0 01.115.254c.05.171.026.408.028.58l-.007.346c-.011.897-.03 1.402-.032 1.45-.034.188-.18.28-.291.275-.116-.008-.144-.095-.14-.16 0-.032.003-.072 0-.098l-.005-.01c0-.023-.086-.062-.044-.047z" fill="#262626"/><path clip-rule="evenodd" d="M51.652 24.525v5.662c0 2.833.054 2.833.054 5.665 0 2.83-.012 2.83-.012 5.661 0 2.834.059 2.834.059 5.667 0 2.833.032 2.833.032 5.666 0 2.623-2.118 4.778-4.74 4.847-2.711.071-4.979-2.04-4.979-4.737 0-2.842.016-2.842.016-5.684 0-2.843.084-2.843.084-5.686 0-2.842-.012-2.842-.012-5.684 0-2.845-.018-2.845-.018-5.688 0-2.845-.016-2.845-.016-5.689 0-.027.015-.117.043-.117 2.378 0 2.378.048 4.755.048 2.378 0 2.378-.018 4.757-.018.027 0-.023.06-.023.087z" stroke="#000" stroke-width="1.28"/><path clip-rule="evenodd" d="M52.615 24.468l-5.798.001c-2.9 0-2.9.02-5.8.02-.078 0-.164-.077-.164-.155 0-1.101-.003-1.101-.003-2.201 0-.08.09-.163.168-.163 2.9 0 2.9.036 5.799.036 2.899 0 2.899-.013 5.798-.013.08 0 .132.06.132.14l.002 2.2a.128.128 0 01-.134.135z" stroke="#000" stroke-width="1.28"/><path fill-rule="evenodd" clip-rule="evenodd" d="M16.169 9.248s0-.092-.034-.254a3.054 3.054 0 00-1.816-2.277c-.837-.373-1.966-.3-2.772.28-.406.282-.73.669-.94 1.09a3.017 3.017 0 00-.306 1.305c0 .427.097.88.303 1.305.209.422.535.809.94 1.09.806.58 1.935.654 2.772.283a3.047 3.047 0 001.819-2.273c.034-.162.034-.254.034-.254.023-.193.591-.21.599.029l-.001.079c0 .051 0 .129-.014.227a3.505 3.505 0 01-.179.832c-.219.684-.81 1.62-1.889 2.156-1.05.554-2.572.565-3.73-.184a3.908 3.908 0 01-1.36-1.464 3.97 3.97 0 01-.456-1.827 3.985 3.985 0 01.46-1.825 3.925 3.925 0 011.36-1.464c1.157-.749 2.681-.737 3.73-.18a3.782 3.782 0 011.886 2.158c.121.344.157.635.178.832.014.099.013.176.014.228v.079c-.047.244-.55.216-.598.029zM29.327 14.27s-.013-.138-.112-.329a1.055 1.055 0 00-.602-.516.983.983 0 00-.902.151.947.947 0 00-.359.752.957.957 0 00.364.754c.241.196.607.252.899.149.297-.097.507-.331.6-.52.1-.192.112-.331.112-.331.017-.068.585-.088.599.028 0 0 .027.206-.067.543-.09.33-.353.794-.875 1.075-.507.288-1.262.315-1.853-.048a1.947 1.947 0 01-.941-1.646 1.937 1.937 0 01.936-1.652 1.897 1.897 0 011.851-.053c.524.277.79.742.881 1.072.095.337.068.544.068.544-.054.118-.558.092-.6.028zM45.944 2.974s-.001-.07-.029-.19a2.247 2.247 0 00-1.381-1.665c-.625-.26-1.455-.191-2.043.233a2.119 2.119 0 00-.9 1.738 2.135 2.135 0 00.907 1.74c.587.424 1.416.491 2.04.227a2.256 2.256 0 001.377-1.672c.028-.12.029-.19.029-.19.021-.143.59-.161.599.03 0-.001.008.085-.01.242-.014.156-.04.388-.134.662a2.988 2.988 0 01-1.494 1.726c-.837.445-2.052.463-2.988-.127a3.135 3.135 0 01-1.108-1.164 3.156 3.156 0 01-.38-1.47 3.128 3.128 0 01.374-1.474c.253-.47.642-.881 1.107-1.166.938-.589 2.147-.573 2.987-.134a2.98 2.98 0 011.501 1.72c.094.275.12.506.136.662.017.157.009.243.009.243-.05.195-.554.167-.6.03zM54.867 14.27s0-.065-.027-.179a2.128 2.128 0 00-1.305-1.574c-.59-.245-1.37-.178-1.921.223a2.006 2.006 0 000 3.27c.55.401 1.33.468 1.92.224a2.127 2.127 0 001.306-1.574.915.915 0 00.027-.18c.021-.136.589-.154.599.029 0 0 .008.082-.008.232-.014.15-.038.372-.128.634a2.856 2.856 0 01-1.431 1.657c-.803.426-1.968.442-2.868-.123a3.01 3.01 0 01-1.064-1.12 3.02 3.02 0 01-.361-1.415c0-.463.118-.963.362-1.413a3.01 3.01 0 011.064-1.12c.9-.565 2.064-.55 2.868-.122a2.855 2.855 0 011.43 1.656c.09.263.114.485.128.634.016.15.008.233.008.233-.05.187-.554.16-.6.029z" fill="#262626"/><path clip-rule="evenodd" d="M5.354 74.03c-2.055 0-2.055.13-4.109.13-.078 0-.077-.129-.077-.207 0-8.501-.127-8.501-.127-17.001 0-8.502.081-8.502.081-17.002 0-.078.045-.13.123-.13 2.054 0 2.054.006 4.109.006.078 0 .16.046.16.124 0 8.5.064 8.5.064 17.002 0 8.5-.038 8.5-.038 17 0 .079-.108.078-.186.078zM62.708 74.145c-2.054 0-2.054-.126-4.108-.126-.078 0-.207.012-.207-.067 0-8.5.019-8.5.019-17 0-8.501-.02-8.501-.02-17.002 0-.078.13-.126.208-.126 2.054 0 2.054-.057 4.108-.057.078 0 .057.105.057.183 0 8.5.14 8.5.14 17.001 0 8.501-.103 8.501-.103 17.002 0 .078-.016.192-.094.192z" stroke="#000" stroke-width="1.28"/><path fill-rule="evenodd" clip-rule="evenodd" d="M22.725 42.786c0 2.516-.044 2.516-.044 5.03 0 2.516-.012 2.516-.012 5.032 0 2.622-2.035 4.81-4.656 4.877a4.75 4.75 0 01-4.903-4.769c0-2.542-.047-2.542-.047-5.085s-.004-2.543-.004-5.085c0-.027.044-.015.071-.015 2.378 0 2.378-.034 4.755-.034 2.378 0 2.378.034 4.756.034.027 0 .084-.012.084.015z" fill="#fff"/><path clip-rule="evenodd" d="M22.655 24.525c0 2.832-.03 2.832-.03 5.663 0 2.832.108 2.832.108 5.664s-.105 2.832-.105 5.663c0 2.833.069 2.833.069 5.666 0 2.834.036 2.834.036 5.667 0 2.622-2.098 4.787-4.72 4.855a4.712 4.712 0 01-4.877-4.747c0-2.842-.042-2.842-.042-5.684 0-2.843-.09-2.843-.09-5.686 0-2.842.024-2.842.024-5.684 0-2.845.058-2.845.058-5.688 0-2.845-.037-2.845-.037-5.689 0-.027.055.033.082.033 2.378 0 2.378-.119 4.756-.119 2.377 0 2.377-.002 4.755-.002.027 0 .013.06.013.088z" stroke="#000" stroke-width="1.28"/><path fill-rule="evenodd" clip-rule="evenodd" d="M62.709 39.807c-10.243 0-10.243-.15-20.486-.15-10.244 0-10.244-.024-20.488-.024s-10.244.107-20.489.107c-.078 0-.246-.092-.246-.171 0-3.411.256-3.411.256-6.823 0-.079-.088-.09-.01-.09 10.243 0 10.243-.129 20.486-.129 10.244 0 10.244-.068 20.488-.068 10.245 0 10.245.205 20.489.205.078 0 .018.003.018.082 0 3.412.25 3.412.25 6.823 0 .079-.19.238-.268.238z" fill="#F5F1F0"/><path clip-rule="evenodd" d="M62.709 39.807c-10.243 0-10.243-.15-20.486-.15-10.244 0-10.244-.024-20.488-.024s-10.244.107-20.489.107c-.078 0-.246-.092-.246-.171 0-3.411.256-3.411.256-6.823 0-.079-.088-.09-.01-.09 10.243 0 10.243-.129 20.486-.129 10.244 0 10.244-.068 20.488-.068 10.245 0 10.245.205 20.489.205.078 0 .018.003.018.082 0 3.412.25 3.412.25 6.823 0 .079-.19.238-.268.238z" stroke="#000" stroke-width="1.28"/></svg>