<svg width="63" height="74" fill="none" xmlns="http://www.w3.org/2000/svg"><path clip-rule="evenodd" d="M42.291 52.389c0 1.988.16 1.988.16 3.977 0 1.987-.086 1.987-.086 3.975 0 1.99.02 1.99.02 3.979s-.025 1.989-.025 3.978c0 .332-.282.511-.614.511-2.071 0-2.071.054-4.142.054-2.072 0-2.072.053-4.143.053-2.072 0-2.072.084-4.142.084-2.073 0-2.073-.057-4.145-.057-2.073 0-2.073.016-4.146.016-.332 0-.633-.33-.633-.66 0-1.99-.003-1.99-.003-3.979 0-1.988-.035-1.988-.035-3.977 0-1.989.01-1.989.01-3.978 0-1.99.162-1.99.162-3.98 0-1.48.531-2.78 1.494-3.756.963-.977 2.276-1.645 3.753-1.664 1.285 1.325.914 1.614 1.758 3.256.844 1.643.73 1.701 1.573 3.345.845 1.643.942 1.592 1.786 3.236.23.446.814.474 1.023.018.75-1.638.765-1.63 1.515-3.27.75-1.639.762-1.633 1.513-3.273.75-1.64.53-1.753 1.48-3.285.141-.226.247-.05.514-.05 1.493 0 2.916.572 3.896 1.55.978.98 1.457 2.403 1.457 3.897z" stroke="#000" stroke-width="1.44"/><path d="M42.346 65.842c2.068 0 2.068.048 4.136.048 2.067 0 2.067.026 4.135.026 2.069 0 2.069.121 4.138.121s2.069-.211 4.137-.211c.332 0 .45-.146.45-.478 0-1.698.182-1.698.182-3.397 0-1.7.095-1.7.095-3.4s-.19-1.7-.19-3.399M20.428 63.834c-2.062 0-2.062-.017-4.123-.017-2.06 0-2.06.025-4.12.025-2.063 0-2.063.12-4.125.12s-2.062.104-4.124.104c-.332 0-.666-.362-.666-.695 0-1.845-.024-1.845-.024-3.692 0-1.845-.078-1.845-.078-3.69 0-1.847.028-1.847.028-3.694 0-1.846.117-1.846.117-3.693M59.494 29.676c1.172 0 2.178.902 2.178 2.071 0 2.09.008 2.09.008 4.18 0 2.089-.074 2.089-.074 4.178a2.11 2.11 0 01-2.112 2.117c-2.164 0-2.164.064-4.328.064-2.165 0-2.165-.11-4.33-.11s-2.165.063-4.33.063a2.15 2.15 0 01-2.14-2.134c0-2.089-.005-2.089-.005-4.178 0-2.09.023-2.09.023-4.18 0-1.169.954-2.185 2.122-2.185" stroke="#000" stroke-width="1.44"/><path clip-rule="evenodd" d="M57.073 27.734c0 .888.003.888.003 1.776 0 .066-.072.116-.138.116-1.969 0-1.969-.035-3.936-.035-1.968 0-1.968.05-3.936.05-.066 0-.146-.065-.146-.131 0-.836.006-.836.006-1.671 0-1.115.452-2.15 1.17-2.908.72-.76 1.73-1.27 2.853-1.285 1.14-.014 2.156.494 2.901 1.24.734.73 1.223 1.725 1.223 2.848z" stroke="#000" stroke-width="1.44"/><path clip-rule="evenodd" d="M59.516 27.704c0 .903-.016.903-.016 1.806 0 .066-.06.102-.126.102-2.123 0-2.123-.038-4.247-.038-2.125 0-2.125.117-4.25.117s-2.125-.015-4.25-.015c-.067 0-.126-.1-.126-.166 0-.903-.019-.903-.019-1.806 0-1.183.353-2.284.906-3.24.571-.985 1.353-1.86 2.34-2.43.954-.552 2.09-.786 3.274-.786 1.79 0 3.42.689 4.592 1.863a6.49 6.49 0 011.922 4.593zM54.615 34.87c0-.968-.811-1.753-1.802-1.644-.722.08-1.305.666-1.416 1.383-.108.691.19 1.328.718 1.662.035.022.084.045.084.085 0 .994-.03.994-.03 1.988 0 .445.343.86.788.883a.854.854 0 00.888-.836v-2.035c0-.04-.014-.099.021-.12.46-.292.75-.782.75-1.366zM11.13 14.9c-1.316.72-2.718 1.3-4.378 1.3-1.305.002-2.777-.315-4.483-.91a.572.572 0 00-.773.549c0 1.823-.025 1.823-.025 3.646 0 1.824.075 1.824.075 3.648 0 1.825-.142 1.825-.142 3.649 0 1.216.446 2.429 1.104 3.545.608 1.031 1.492 1.955 2.41 2.827.922.875 1.893 1.711 2.883 2.352 1.221.792 2.426 1.394 3.331 1.705.902-.3 2.07-.981 3.338-1.741 1.017-.61 2.178-1.207 3.12-2.088.916-.858 1.76-1.858 2.344-2.954.582-1.09.838-2.34.838-3.646 0-1.811-.067-1.811-.067-3.621 0-1.812.117-1.812.117-3.624s-.12-1.812-.12-3.624c0-.43-.353-.702-.75-.535-1.646.696-3.11.901-4.453.828-1.574-.087-2.992-.657-4.369-1.306zM4.296 48.505l-1.922.001c-.75 0-1.353-.624-1.353-1.374 0-.96-.021-.96-.021-1.922 0-.75.624-1.352 1.374-1.352.96 0 .96-.007 1.922-.007.749 0 1.356.61 1.356 1.359 0 .961.02.961.02 1.922 0 .75-.627 1.373-1.376 1.373zM60.453 55.174c-.96 0-.96-.003-1.922-.003-.75 0-1.36-.603-1.36-1.352 0-.96-.005-.96-.005-1.922 0-.75.616-1.362 1.366-1.362.96 0 .96-.009 1.921-.009.75 0 1.346.622 1.346 1.371 0 .961.012.961.012 1.922 0 .75-.608 1.355-1.358 1.355z" stroke="#000" stroke-width="1.44"/><path d="M45.807 7.308a2.489 2.489 0 011.98-.336 2.489 2.489 0 011.568 1.255c-.227-.545-.383-1.134-.331-1.723.051-.588.333-1.176.828-1.498.21-.136.49-.39.313-.568l.06.064c-1.321.423-2.901-.22-3.55-1.447L46.518 3c.872 1.24.534 3.162-.709 4.03" stroke="#000" stroke-width="1.44" stroke-linecap="round" stroke-linejoin="round"/><path d="M10.951 37.266c0 2.165.116 2.165.116 4.328 0 2.164-.05 2.164-.05 4.328 0 .16.12.37.233.483 1.517 1.517 1.466 1.569 2.983 3.086 1.518 1.518 1.516 1.52 3.034 3.038 1.518 1.519 1.533 1.503 3.05 3.022M53.017 42.226c0 2.252-.135 2.252-.135 4.505 0 .159-.023.234-.135.347-1.324 1.322-1.318 1.329-2.641 2.652-1.325 1.325-1.255 1.394-2.579 2.72-1.325 1.324-1.365 1.284-2.69 2.61-1.326 1.325-1.18 1.471-2.505 2.797" stroke="#000" stroke-width="1.44"/><path clip-rule="evenodd" d="M32.69 47.324c-1.37 0-1.37.052-2.738.052-.737 0-1.374-.642-1.374-1.379h.087c0-.736.55-1.302 1.287-1.302 1.369 0 1.369.02 2.738.02.736 0 1.31.546 1.31 1.282h-.006c0 .737-.568 1.327-1.304 1.327z" stroke="#000" stroke-width="1.44"/><path clip-rule="evenodd" d="M13.525 24.274c-.67 0-.67-.06-1.34-.06-.342 0-.607-.242-.607-.584 0-.17.072-.31.185-.422a.577.577 0 01.422-.182c.67 0 .67.015 1.34.015h1.024c.342 0 .593.247.593.589 0 .17-.04.329-.152.44a.612.612 0 01-.441.174c-.512.018-.512.03-1.024.03zM15.387 24.968c0 .17-.096.304-.21.416a.555.555 0 01-.415.174c-1.493 0-1.493.003-2.987.003-.343 0-.619-.25-.619-.593 0-.171.08-.314.192-.427.111-.112.256-.233.427-.233 1.494 0 1.494.032 2.987.032.342 0 .625.285.625.628z" stroke="#000" stroke-width="1.44" stroke-linecap="round"/><path clip-rule="evenodd" d="M14.619 26.81c-1.31-.01-1.737-.032-2.62-.041-.181-.003-.32-.333-.406-.54-.106-.26.001-.546.266-.64.054-.02.106-.074.167-.074 1.348 0 1.348.056 2.696.056.02 0 .041-.031.06-.029.34.04.493.416.337.718-.11.213-.281.55-.5.55z" stroke="#000" stroke-width="1.44" stroke-linecap="round"/><path clip-rule="evenodd" d="M12.72 28.025c-.577-.002-.92-.69-.552-1.134.059-.07.124-.137.188-.137 1.008 0 1.008.05 2.016.05.064 0 .135.01.194.077.373.432.04 1.109-.53 1.12-.418.007-.905.025-1.316.024z" stroke="#000" stroke-width="1.44" stroke-linecap="round"/><path d="M6.86 25.208c1.276-1.141 1.575-.867 2.537-2.283.912-1.34.589-1.498 1.127-3.027.135-.383.14-.533.551-.578.319-.035.745.525.745.829a4.7 4.7 0 01-.073.613A66.081 66.081 0 0011 23.01c.661.04.665-.034 1.327.007M12.744 28.028c-2.37 0-2.37-.009-4.74-.009" stroke="#000" stroke-width="1.44" stroke-linecap="round"/><path fill-rule="evenodd" clip-rule="evenodd" d="M37.361 39.666c0 1.66-.617 3.183-1.705 4.27-1.088 1.088-2.61 1.704-4.27 1.704-1.66 0-3.153-.645-4.24-1.733-1.088-1.087-1.793-2.58-1.793-4.24 0-1.66.674-3.185 1.761-4.273a6.058 6.058 0 014.272-1.774c1.66 0 3.142.73 4.229 1.818a5.928 5.928 0 011.746 4.228z" fill="#fff"/><path clip-rule="evenodd" d="M37.361 39.666c0 1.66-.617 3.183-1.705 4.27-1.088 1.088-2.61 1.704-4.27 1.704-1.66 0-3.153-.645-4.24-1.733-1.088-1.087-1.793-2.58-1.793-4.24 0-1.66.674-3.185 1.761-4.273a6.058 6.058 0 014.272-1.774c1.66 0 3.142.73 4.229 1.818a5.928 5.928 0 011.746 4.228z" stroke="#000" stroke-width="1.44"/><path fill-rule="evenodd" clip-rule="evenodd" d="M29.202 39.493c.924 0 .926-1.436 0-1.436-.925 0-.926 1.436 0 1.436zM33.643 39.6c.925 0 .926-1.437 0-1.437-.924 0-.926 1.436 0 1.436z" fill="#000"/><path d="M28.117 41.608a4.485 4.485 0 002.8 1.429 4.485 4.485 0 003.043-.782c.317-.223.615-.503.75-.867M31.958 37.684l.196 2.647c.011.15.02.31-.056.44a.593.593 0 01-.218.197 1.43 1.43 0 01-.726.2" stroke="#000" stroke-width="1.44" stroke-linecap="round"/><path fill-rule="evenodd" clip-rule="evenodd" d="M32.92 48.68c.16 1.214.144 1.216.305 2.431.16 1.217.143 1.219.304 2.435.16 1.217.195 1.212.355 2.429.161 1.216.156 1.217.316 2.434.003.022-.044.023-.058.038-.7.755-.671.783-1.37 1.538-.7.754-.706.747-1.404 1.502-.027.028-.081.042-.108.013-.699-.755-.71-.743-1.409-1.498-.698-.754-.664-.79-1.363-1.544-.014-.015-.035-.025-.033-.047.16-1.215.15-1.216.31-2.43.16-1.216.156-1.216.316-2.432.161-1.215.192-1.21.352-2.427.161-1.217.131-1.221.292-2.438.16-1.216.184-1.213.345-2.43.004-.035.026-.06.06-.06 1.19 0 1.19.003 2.38.003.035 0 .095.017.099.051.16 1.215.15 1.217.31 2.431z" fill="#F78BA0"/></svg>