<?xml version="1.0" encoding="UTF-8"?> <svg xmlns="http://www.w3.org/2000/svg" xmlns:xlink="http://www.w3.org/1999/xlink" width="41px" height="40px" viewBox="0 0 41 40"><!-- Generator: Sketch 58 (84663) - https://sketch.com --><title>NBC-colour</title><desc>Created with Sketch.</desc><g id="homepage-S.O" stroke="none" stroke-width="1" fill="none" fill-rule="evenodd"><g id="Artboard" transform="translate(-932.000000, -192.000000)" fill-rule="nonzero"><g id="NBC" transform="translate(932.000000, 192.000000)"><path d="M20.3631485,3.09602862 C19.7303041,1.51627907 18.1889088,-0.189838998 15.3021825,0.0445080501 C11.6248301,0.444293381 10.4788551,3.96844365 11.0344902,6.07091234 C9.56994633,5.07914132 7.07942755,4.64300537 4.90561717,6.50504472 C2.09896243,9.31856887 3.60021467,13.1234347 5.1431127,14.036136 C3.44264758,13.8786404 0.755205725,15.0276923 0.160644007,18.0333453 C-0.471842576,21.7651521 2.37302326,23.9406798 5.1431127,23.9406798 L35.8608945,23.9406798 C39.064186,23.9406798 40.8415742,21.169517 40.6421467,18.5560644 C40.3277996,15.1451878 37.2065832,13.8364937 35.5040429,14.1168515 C36.9265116,13.3232916 38.8264043,9.59527728 35.9376029,6.66454383 C33.6445796,4.48350626 30.721288,5.27699463 29.6934526,6.22833631 C30.247585,4.40629696 29.339034,0.639928444 25.6197496,0.0441502683 C25.3628623,0.0153846154 25.1153488,0 24.8794275,0 C22.0402147,0.000286225403 20.7637209,2.07563506 20.3631485,3.09602862" id="path3113" fill="#FFFFFF"></path><path d="M5.41731664,7.09889088 C3.79549195,8.56701252 3.20522361,11.8935242 6.12880143,13.8381395 L17.7919857,21.8399284 L12.1368157,8.88400716 C10.9518426,5.82669052 7.71005367,5.16 5.41731664,7.09889088" id="path3115" fill="#F37021"></path><path d="M15.4570304,0.799713775 C13.5612165,0.838282648 10.7144902,3.09595707 11.9813953,6.54339893 L17.8301252,20.3373882 L19.8854383,5.82876565 C20.3610733,2.22368515 17.6328444,0.559499106 15.4570304,0.799713775" id="path3117" fill="#CC004C"></path><path d="M20.7983542,5.27549195 L21.9042576,5.27549195 C21.9042576,5.27549195 22.4948837,5.27549195 22.5752415,5.55406082 C22.1400358,5.90948122 20.9552773,5.95398927 21.1125581,7.85252236 L22.9718784,20.3355277 L28.7808229,6.50525939 C29.9690161,3.41724508 27.4749195,0.838282648 25.2625403,0.759427549 C25.1592844,0.751985689 25.0555277,0.745974955 24.9483363,0.745974955 C22.9625045,0.745974955 20.686941,2.18905188 20.7983542,5.27549195" id="path3119" fill="#6460AA"></path><path d="M28.5469767,9.00143113 L23.0525224,21.8018605 L34.712415,13.7578533 C37.4001431,11.851449 36.9665832,8.80357782 35.4621109,7.29710197 C34.8314132,6.58805009 33.6733453,6.04028618 32.4465116,6.04028618 C30.9972093,6.04007156 29.4460823,6.80880143 28.5469767,9.00143113" id="path3121" fill="#0089D0"></path><path d="M33.406941,15.5792487 L22.4568873,23.2276923 L35.9393918,23.2276923 C38.7054741,23.2276923 40.4830769,20.3755277 39.6928801,17.7583542 C39.1636494,16.1133453 37.5977818,14.8219678 35.780322,14.8201073 C35.0153131,14.8204651 34.2040072,15.0508766 33.406941,15.5792487" id="path3123" fill="#0DB14B"></path><path d="M5.1031127,23.2276923 L18.3866905,23.2276923 L7.43398927,15.5792487 C4.90375671,13.9534884 2.05846154,14.9047585 1.03134168,17.602576 C0.160715564,20.6909481 2.33452594,23.2276923 5.1031127,23.2276923" id="path3125" fill="#FCB711"></path><path d="M19.814025,33.6923077 L22.2782826,33.6923077 C22.8447227,33.7279428 23.848873,34.2225403 23.848873,35.3938462 C23.848873,36.6189624 22.8067263,37.1132737 22.2420751,37.1690877 L19.814025,37.1690877 L19.814025,33.6923077 M19.776458,28.2382111 L21.8047943,28.2382111 C22.4981038,28.2756351 23.3179249,28.7879785 23.3179249,29.7391771 C23.3179249,30.6722004 22.6981038,31.294025 21.8961717,31.4048658 L19.776458,31.4048658 L19.776458,28.2382111 M17.0033631,25.9685152 L17.0033631,39.4364937 L23.5381753,39.4364937 C25.0892308,39.4364937 26.9330233,37.881932 26.9330233,35.8505903 C26.9330233,33.728229 25.5464758,32.6858676 24.669195,32.2646869 C24.669195,32.2646869 26.2755635,31.3315921 26.2041503,29.3181395 C26.1310912,26.6097317 23.6291234,25.9685152 22.7713775,25.9685152 L17.0033631,25.9685152" id="path3127" fill="#000000"></path><polygon id="polygon3129" fill="#000000" points="6.98025045 39.4364937 6.98025045 31.679356 15.4503757 39.9488372 15.4503757 25.9685152 12.6041503 25.9685152 12.6041503 33.5272272 4.13202147 25.4208229 4.13202147 39.4364937"></polygon><path d="M27.3906261,32.5566369 C27.4620394,36.8157424 30.5222182,40 34.4562433,40 C35.3889803,40 36.3716637,39.8234705 37.3759571,39.4364937 L37.3759571,36.6923077 C36.5800358,37.1786762 35.6943828,37.4131664 34.826619,37.4131664 C32.4459392,37.4131664 30.1996422,35.6515206 30.2925939,32.4472987 C30.4530233,29.8480859 32.5808945,28.0533095 34.8741324,28.0533095 C35.7139177,28.0533095 36.5776744,28.2952415 37.3759571,28.8237567 L37.3759571,26.1531306 C36.4451521,25.775814 35.5199284,25.6070841 34.6286941,25.6070841 C30.7045438,25.6070841 27.465975,28.9171377 27.3906261,32.5566369" id="path3131" fill="#000000"></path></g></g></g></svg> 