<svg xmlns="http://www.w3.org/2000/svg" viewBox="0 0 57 10">
  <path fill="#FCC4B6" fill-rule="evenodd" d="M10.5 7.9c-.4.9-.7-.3-1 .1-.1.1-.3 0-.4 0-.5-.3-.6 0-1.9.4L7 8.3l-2.8.2c-.3.4-.5 0-1.3.4-.3.1-.6.4-1 .2 0-.1-1 .3-1.2.7C.1 10.8.3 7.3 0 5c0-1.1.1-2 .5-1.8.5.3 13.9-1.8 27.4-2.5C34.7.4 41.5.2 46.7.2c5.2 0 9 0 9.4-.2.2 0 .5 0 .7.8.5 2 0 3.6 0 4.1-.1 1.3-.5 1-1.8.9-.2 0-.4.3-.5-.2-.2-.6-5.2-.2-5.4-.2-.7.1-1-.3-1.9-.2-1 .3-.3.5-.9.2-.6-.2-.1-.3-.7-.2l-3 .5c-2.8.4-1.6.4-2.9.3-1.2 0-1.3.2-3.3 0-.1 0-.1-.5-.4-.2-.3.3-.6.2-1.1.2-1.2.1-1.2-.6-1.4 0h-.3c-1.3 0-1.4 0-1.6-.4-.3-.7-.3.8-.8.5h-.1c-.8.8-3.1-.2-4.7.4-.1 0-.2.1-.4 0-.4-.1-.7.1-1.1.2-.5 0-.4-.6-.8-.2-.5.4-.4-.1-.7 0-.7.4-.3 0-.7.2-.4.3-.8.2-1.2 0l-.9.3c-.7-.1-.4-.5-1 0 0 0-.1.1-.2 0l-.6.2H18l-.2.1c-.3.3-.6.1-.7.2-.5.3-.8-.6-1.2-.2-.4.5-.4 0-1.5.3-.9.3-.5-.2-1.4-.1-.3 0-.7-.1-1 .2-.6.5-.8.1-1 .3-.2.2-.2.2-.5-.1"/>
</svg>
