<svg xmlns="http://www.w3.org/2000/svg" viewBox="0 0 96 9">
  <path fill="#FCC4B6" fill-rule="evenodd" d="M16.5 7.6l-.6-.1c-.8-.3-1 0-3.2.2-.3 0-.3-.2-.5-.2l-4.7-.2c-.6.3-.8 0-2.2.1-.6.1-1.1.3-1.6 0-.3 0-1.7.3-2.2.6-1 1-.3-2.6-.4-5 0-1.2.4-2 1-1.8.9.4 23.1.8 45.6.3 22.4-.5 45 0 46.6-.6.2-.1.8-.2 1.2.6 1 2 .3 3.8.3 4.3 0 1.3-.6 1-2.8 1.1-.3 0-.7.4-.9 0-.3-.7-8.7-.6-9-.5-1.2 0-1.6-.3-3.1 0-1.8.3-.6.5-1.6.2-1-.2-.2-.3-1.2-.1-2.9.5-2.7-.6-4.9-.3-4.8.6-2.7.5-4.8.5-2.1 0-2.3.2-5.7.1-.2 0-.1-.4-.6-.1-.6.3-1 .1-1.9.2-2 .1-2-.6-2.4 0-.1.1-.3 0-.4 0-2.3 0-2.4.1-2.7-.4-.4-.7-.4.8-1.4.5h-.2c-1.3.8-5.2-.2-7.8.4h-.6c-.7-.2-1.3 0-2 0-.9.2-.7-.5-1.3-.2-1 .5-.7 0-1.1 0-1.2.5-.6 0-1.3.2-.7.3-1.3.2-2 0l-1.4.2c-1.3-.2-.8-.5-1.7-.1l-.4.1h-1l-.7.1h-.3c-.6.3-1 0-1.2.1-.9.3-1.4-.6-2.1-.2-.7.4-.7 0-2.4.1-1.6.2-1-.2-2.4-.2-.6 0-1.2-.3-1.9 0-.9.5-1 0-1.4.3-.5.2-.5.2-.9-.2-.7.8-1.1-.4-1.8 0z"/>
</svg>
