<?xml version="1.0" encoding="UTF-8"?> <svg xmlns="http://www.w3.org/2000/svg" xmlns:xlink="http://www.w3.org/1999/xlink" width="113px" height="41px" viewBox="0 0 113 41"><!-- Generator: Sketch 58 (84663) - https://sketch.com --><title>wired-colour</title><desc>Created with Sketch.</desc><g id="homepage-S.O" stroke="none" stroke-width="1" fill="none" fill-rule="evenodd"><g id="Artboard" transform="translate(-755.000000, -191.000000)"><g id="wired-logo-card-copy" transform="translate(755.000000, 200.000000)"><path d="M0,0 L22.47732,0 C22.47732,7.66573171 22.47732,15.3342683 22.47732,23 L0,23 L0,0 Z M1.65533908,3.60987805 C2.65806564,8.28560978 3.55715843,12.9865854 4.52347313,17.6707317 C4.6999306,18.2317073 4.59069502,18.9721952 5.13407198,19.3480488 C6.11439124,19.5051219 7.1199187,19.4658537 8.10864068,19.3985366 C8.64641579,19.4153658 8.77525777,18.7814634 8.87328971,18.3747561 C9.54830952,15.0397561 10.2821485,11.7159756 10.9543675,8.3809756 C11.0075848,8.07243903 11.1028158,7.77231709 11.2484632,7.49463415 C12.085936,11.0736585 12.7777613,14.6835366 13.5564149,18.2737805 C13.6628495,18.6552439 13.6852568,19.1264634 14.0605791,19.3592683 C15.1305274,19.4882927 16.228485,19.4995122 17.2956325,19.3508537 C17.6793575,19.1236585 17.6989639,18.6552439 17.7969959,18.2681707 C18.7857178,13.3848781 19.7072179,8.48195119 20.7519582,3.60987805 C19.8080507,3.61548781 18.8669442,3.61268293 17.9258378,3.61268293 C17.1751933,7.86207313 16.5729972,12.1395122 15.7439272,16.3748781 C14.8112235,12.7818293 14.1866201,9.10182925 13.3743555,5.47512195 C13.1894954,4.8552439 13.2735227,3.95207317 12.5957019,3.63792683 C11.766632,3.58743902 10.9319601,3.58463415 10.1028902,3.63792683 C9.63233689,3.67719512 9.52590222,4.23536585 9.43347212,4.60560975 C8.68282767,8.20146343 7.89577134,11.7889025 7.16193238,15.3847561 C7.08630775,15.7185366 6.97427127,16.0382927 6.84823022,16.3552439 C6.09478485,12.1170731 5.38055225,7.86768291 4.73074063,3.61268293 C3.70560678,3.60987805 2.68047293,3.61548781 1.65533908,3.60987805 Z" id="Shape" fill="#000000" fill-rule="nonzero"></path><path d="M22.47732,0 L44.7445717,0 C44.7445717,7.66573171 44.7445717,15.3342683 44.7445717,23 L22.47732,23 C22.47732,15.3342683 22.47732,7.66573171 22.47732,0 Z M28.1799772,3.45841463 C28.1687735,4.40085366 28.1687735,5.34048781 28.1799772,6.28292683 C29.459994,6.29134146 30.7400109,6.28573171 32.0200277,6.28573171 C32.014426,9.7609756 32.014426,13.2390244 32.0200277,16.7142683 C30.7400109,16.7142683 29.459994,16.7086585 28.1799772,16.7170731 C28.1687735,17.6595122 28.1687735,18.5991463 28.1827781,19.5415854 C31.8015566,19.55 35.4203351,19.55 39.0391136,19.5415854 C39.0531182,18.6019512 39.0503173,17.6595122 39.0447154,16.7198781 C37.7618976,16.7086585 36.4818808,16.7142683 35.201864,16.7142683 C35.2074658,13.2390244 35.2074658,9.7609756 35.201864,6.28573171 C36.4818808,6.28573171 37.7618976,6.29134146 39.0419146,6.28292683 C39.0531182,5.34048781 39.0531182,4.39804878 39.0391136,3.45841463 C35.4203351,3.45 31.8015566,3.45 28.1799772,3.45841463 Z" id="Shape" fill-rule="nonzero"></path><path d="M44.7445717,0 L67.2218917,0 C67.2218917,7.66573171 67.2218917,15.3342683 67.2218917,23 L44.7445717,23 C44.7445717,15.3342683 44.7445717,7.66573171 44.7445717,0 Z M49.8226254,3.61268293 C49.8226254,8.87182925 49.8226254,14.1281707 49.8226254,19.3873171 C50.8589629,19.3873171 51.8981013,19.3873171 52.9372398,19.3873171 C52.9372398,17.3313415 52.9372398,15.272561 52.9372398,13.2165854 C54.6261897,13.2221952 56.3151398,13.2081707 58.0040898,13.2193902 C58.6202905,13.1604878 59.3541295,13.6008537 59.3401249,14.2796342 C59.4185504,15.985 59.5641979,17.6847561 59.6706325,19.3873171 C60.6593545,19.3873171 61.6452756,19.3873171 62.6339976,19.3901219 C62.3539064,17.4603658 62.6984186,15.4660975 62.1550417,13.5756098 C61.8749504,12.5854878 60.7825947,12.3639025 59.9311174,12.1170731 C60.5641235,11.7804878 61.3763881,11.7496342 61.8357377,11.132561 C62.5023547,10.2854878 62.5499702,9.15512194 62.5527712,8.12292687 C62.5415675,6.91682927 62.5695767,5.59012195 61.8049276,4.57756098 C61.1943288,3.73609756 60.0515566,3.61268293 59.0936447,3.61268293 C56.0042385,3.60987805 52.9120315,3.61268293 49.8226254,3.61268293 Z" id="Shape" fill="#000000" fill-rule="nonzero"></path><path d="M67.2218917,0 L89.5591659,0 C89.5591659,7.66573171 89.5591659,15.3342683 89.5591659,23 L67.2218917,23 C67.2218917,15.3342683 67.2218917,7.66573171 67.2218917,0 Z M71.2383998,3.46121952 C71.2271961,4.39804878 71.2271961,5.33768293 71.2327979,6.27451219 C71.9470306,6.28853658 72.6612631,6.28853658 73.3754957,6.28292683 C73.3895003,9.7609756 73.3895003,13.2390244 73.3754957,16.7170731 C72.6612631,16.7114634 71.9498314,16.7114634 71.2355989,16.7198781 C71.2271961,17.6595122 71.2243952,18.5991463 71.2383998,19.5387805 C75.7422665,19.5528048 80.2433326,19.5528048 84.7471987,19.5387805 C84.7696066,17.6791463 84.7556018,15.8195122 84.7556018,13.9598781 C83.7780836,13.9514634 82.8005655,13.9514634 81.8230466,13.9626829 C81.8202461,14.8798781 81.8202461,15.7970731 81.8230466,16.7142683 C80.0416667,16.7170731 78.2602867,16.7030488 76.4789064,16.7226829 C76.4508973,15.3454878 76.4705037,13.9654878 76.4649019,12.5882927 C77.8653579,12.5882927 79.2658137,12.5882927 80.6662703,12.5882927 C80.6662703,11.6935366 80.6662703,10.7987805 80.6662703,9.9040244 C79.2658137,9.9040244 77.8653579,9.9040244 76.4649019,9.9040244 C76.4649019,8.69792687 76.4621009,7.49182927 76.4677027,6.28573171 C78.2042683,6.28853658 79.9380328,6.28853658 81.6745986,6.28573171 C81.6689968,7.08792683 81.6689968,7.89012194 81.6717973,8.69512194 C82.6325101,8.69512194 83.593223,8.69512194 84.5539358,8.69512194 C84.5511353,6.95048781 84.5567371,5.20585366 84.5511353,3.46121952 C80.1116892,3.44719512 75.6750446,3.44719512 71.2383998,3.46121952 Z" id="Shape" fill-rule="nonzero"></path><path d="M89.5591659,0 L112.316577,0 L112.316577,23 L89.5591659,23 C89.5591659,15.3342683 89.5591659,7.66573171 89.5591659,0 Z M94.6372198,3.61268293 C94.6372198,8.87182925 94.6372198,14.1281707 94.6372198,19.3873171 C97.2560729,19.3817073 99.8721247,19.3985366 102.490978,19.3789025 C104.104303,19.3480488 105.983715,19.0479269 106.955632,17.6006098 C108.090001,15.7830488 107.919146,13.5587805 108.11801,11.5084146 C107.916344,9.45524388 108.095602,7.22256098 106.955632,5.39939025 C106.050937,4.04463415 104.319973,3.68841463 102.799078,3.63231707 C100.079392,3.58743902 97.3569055,3.62390244 94.6372198,3.61268293 Z" id="Shape" fill="#000000" fill-rule="nonzero"></path><path d="M28.1799772,3.45841463 C31.8015566,3.45 35.4203351,3.45 39.0391136,3.45841463 C39.0531182,4.39804878 39.0531182,5.34048781 39.0419146,6.28292683 C37.7618976,6.29134146 36.4818808,6.28573171 35.201864,6.28573171 C35.2074658,9.7609756 35.2074658,13.2390244 35.201864,16.7142683 C36.4818808,16.7142683 37.7618976,16.7086585 39.0447154,16.7198781 C39.0503173,17.6595122 39.0531182,18.6019512 39.0391136,19.5415854 C35.4203351,19.55 31.8015566,19.55 28.1827781,19.5415854 C28.1687735,18.5991463 28.1687735,17.6595122 28.1799772,16.7170731 C29.459994,16.7086585 30.7400109,16.7142683 32.0200277,16.7142683 C32.014426,13.2390244 32.014426,9.7609756 32.0200277,6.28573171 C30.7400109,6.28573171 29.459994,6.29134146 28.1799772,6.28292683 C28.1687735,5.34048781 28.1687735,4.40085366 28.1799772,3.45841463 Z" id="Shape" fill="#000000"></path><path d="M71.2383998,3.46121951 C75.6750446,3.44719512 80.1116892,3.44719512 84.5511353,3.46121951 C84.5567371,5.20585366 84.5511353,6.95048781 84.5539358,8.69512194 C83.593223,8.69512194 82.6325101,8.69512194 81.6717973,8.69512194 C81.6689968,7.89012194 81.6689968,7.08792683 81.6745986,6.28573171 C79.9380328,6.28853658 78.2042683,6.28853658 76.4677027,6.28573171 C76.4621009,7.49182927 76.4649019,8.69792687 76.4649019,9.9040244 C77.8653579,9.9040244 79.2658137,9.9040244 80.6662703,9.9040244 C80.6662703,10.7987805 80.6662703,11.6935366 80.6662703,12.5882927 C79.2658137,12.5882927 77.8653579,12.5882927 76.4649019,12.5882927 C76.4705037,13.9654878 76.4508973,15.3454878 76.4789064,16.7226829 C78.2602867,16.7030488 80.0416667,16.7170731 81.8230466,16.7142683 C81.8202461,15.7970731 81.8202461,14.8798781 81.8230466,13.9626829 C82.8005655,13.9514634 83.7780836,13.9514634 84.7556018,13.9598781 C84.7556018,15.8195122 84.7696066,17.6791463 84.7471987,19.5387805 C80.2433326,19.5528048 75.7422665,19.5528048 71.2383998,19.5387805 C71.2243952,18.5991463 71.2271961,17.6595122 71.2355989,16.7198781 C71.9498314,16.7114634 72.6612631,16.7114634 73.3754957,16.7170731 C73.3895003,13.2390244 73.3895003,9.7609756 73.3754957,6.28292683 C72.6612631,6.28853658 71.9470306,6.28853658 71.2327979,6.27451219 C71.2271961,5.33768293 71.2271961,4.39804878 71.2383998,3.46121951 Z" id="Shape" fill="#000000"></path><path d="M1.65533908,3.60987805 C2.68047293,3.61548781 3.70560678,3.60987805 4.73074063,3.61268293 C5.38055225,7.86768291 6.09478485,12.1170731 6.84823022,16.3552439 C6.97427127,16.0382927 7.08630775,15.7185366 7.16193238,15.3847561 C7.89577134,11.7889025 8.68282767,8.20146343 9.43347212,4.60560975 C9.52590222,4.23536585 9.63233689,3.67719512 10.1028902,3.63792683 C10.9319601,3.58463415 11.766632,3.58743902 12.5957019,3.63792683 C13.2735227,3.95207317 13.1894954,4.8552439 13.3743555,5.47512195 C14.1866201,9.10182925 14.8112235,12.7818293 15.7439272,16.3748781 C16.5729972,12.1395122 17.1751933,7.86207313 17.9258378,3.61268293 C18.8669442,3.61268293 19.8080507,3.61548781 20.7519582,3.60987805 C19.7072179,8.48195119 18.7857178,13.3848781 17.7969959,18.2681707 C17.6989639,18.6552439 17.6793575,19.1236585 17.2956325,19.3508537 C16.228485,19.4995122 15.1305274,19.4882927 14.0605791,19.3592683 C13.6852568,19.1264634 13.6628495,18.6552439 13.5564149,18.2737805 C12.7777613,14.6835366 12.085936,11.0736585 11.2484632,7.49463415 C11.1028158,7.77231709 11.0075848,8.07243903 10.9543675,8.3809756 C10.2821485,11.7159756 9.54830952,15.0397561 8.87328971,18.3747561 C8.77525777,18.7814634 8.64641579,19.4153658 8.10864068,19.3985366 C7.1199187,19.4658537 6.11439124,19.5051219 5.13407198,19.3480488 C4.59069502,18.9721952 4.6999306,18.2317073 4.52347313,17.6707317 C3.55715843,12.9865854 2.65806564,8.28560978 1.65533908,3.60987805 Z" id="Shape" fill="#FFFFFF"></path><path d="M49.8226254,3.61268293 C52.9120315,3.61268293 56.0042385,3.60987805 59.0936447,3.61268293 C60.0515566,3.61268293 61.1943288,3.73609756 61.8049276,4.57756098 C62.5695767,5.59012195 62.5415675,6.91682927 62.5527712,8.12292687 C62.5499702,9.15512194 62.5023547,10.2854878 61.8357377,11.132561 C61.3763881,11.7496342 60.5641235,11.7804878 59.9311174,12.1170731 C60.7825947,12.3639025 61.8749504,12.5854878 62.1550417,13.5756098 C62.6984186,15.4660975 62.3539064,17.4603658 62.6339976,19.3901219 C61.6452756,19.3873171 60.6593545,19.3873171 59.6706325,19.3873171 C59.5641979,17.6847561 59.4185504,15.985 59.3401249,14.2796342 C59.3541295,13.6008537 58.6202905,13.1604878 58.0040898,13.2193902 C56.3151398,13.2081707 54.6261897,13.2221951 52.9372398,13.2165854 C52.9372398,15.272561 52.9372398,17.3313415 52.9372398,19.3873171 C51.8981013,19.3873171 50.8589629,19.3873171 49.8226254,19.3873171 C49.8226254,14.1281707 49.8226254,8.87182925 49.8226254,3.61268293 Z M52.9372398,6.20439025 C52.9372398,7.72743903 52.9372398,9.25048784 52.9372398,10.7735366 C54.7998463,10.7482927 56.6680547,10.8296342 58.5278604,10.7342683 C59.527786,10.6753658 59.5417906,9.47207313 59.5810033,8.72036582 C59.5501933,7.89292687 59.7042435,6.79341463 58.9339927,6.24646342 C56.9397432,6.14268293 54.937091,6.2352439 52.9372398,6.20439025 Z" id="Shape" fill="#FFFFFF" fill-rule="nonzero"></path><path d="M94.6372198,3.61268293 C97.3569055,3.62390244 100.079392,3.58743902 102.799078,3.63231707 C104.319973,3.68841463 106.050937,4.04463415 106.955632,5.39939025 C108.095602,7.22256098 107.916344,9.45524388 108.11801,11.5084146 C107.919146,13.5587805 108.090001,15.7830488 106.955632,17.6006098 C105.983715,19.0479269 104.104303,19.3480488 102.490978,19.3789025 C99.8721247,19.3985366 97.2560729,19.3817073 94.6372198,19.3873171 C94.6372198,14.1281707 94.6372198,8.87182925 94.6372198,3.61268293 Z M97.7518344,6.20439025 C97.7518344,9.73573172 97.7518344,13.2642683 97.7518344,16.7956098 C99.3455531,16.7928048 100.939272,16.7984146 102.535792,16.7984146 C103.300441,16.812439 104.227543,16.6104878 104.58606,15.847561 C105.121034,14.6667073 104.989391,13.3371951 105.034206,12.0778048 C104.975387,10.5014634 105.19946,8.85780485 104.670087,7.34317073 C104.43201,6.56902439 103.57213,6.20158537 102.818685,6.21 C101.129734,6.19317073 99.440784,6.21280488 97.7518344,6.20439025 Z" id="Shape" fill="#FFFFFF" fill-rule="nonzero"></path><path d="M52.9372398,6.20439025 C54.937091,6.2352439 56.9397432,6.14268293 58.9339927,6.24646342 C59.7042435,6.79341463 59.5501933,7.89292687 59.5810033,8.72036582 C59.5417906,9.47207313 59.527786,10.6753658 58.5278604,10.7342683 C56.6680547,10.8296342 54.7998463,10.7482927 52.9372398,10.7735366 C52.9372398,9.25048784 52.9372398,7.72743903 52.9372398,6.20439025 Z" id="Shape" fill="#000000"></path><path d="M97.7518344,6.20439025 C99.440784,6.21280488 101.129734,6.19317073 102.818685,6.21 C103.57213,6.20158537 104.43201,6.56902439 104.670087,7.34317073 C105.19946,8.85780485 104.975387,10.5014634 105.034206,12.0778048 C104.989391,13.3371951 105.121034,14.6667073 104.58606,15.847561 C104.227543,16.6104878 103.300441,16.812439 102.535792,16.7984146 C100.939272,16.7984146 99.3455531,16.7928048 97.7518344,16.7956098 C97.7518344,13.2642683 97.7518344,9.73573172 97.7518344,6.20439025 Z" id="Shape" fill="#000000"></path></g></g></g></svg> 